<mxfile modified="2020-09-22T15:56:59.538Z" host="app.diagrams.net" agent="5.0 (Macintosh; Intel Mac OS X 10_15_6) AppleWebKit/537.36 (KHTML, like Gecko) Chrome/85.0.4183.102 Safari/537.36" etag="i2FPzfmCa931KYc3DPdc" version="13.7.4" type="github" pages="2">
  <diagram id="d1ab7348-05c3-a1e3-ca4d-12c340fd6b49" name="Page-1">
    <mxGraphModel dx="1426" dy="842" grid="1" gridSize="10" guides="1" tooltips="1" connect="1" arrows="1" fold="1" page="1" pageScale="1" pageWidth="1169" pageHeight="827" background="#ffffff" math="0" shadow="0">
      <root>
        <mxCell id="0" />
        <mxCell id="1" parent="0" />
        <mxCell id="4GYh9d1XmSdqZsPijuMS-163" value="&lt;font face=&quot;Roboto&quot; data-font-src=&quot;https://fonts.googleapis.com/css?family=Roboto&quot; style=&quot;font-size: 15px&quot;&gt;&amp;nbsp; &amp;nbsp; &amp;nbsp; &amp;nbsp; &amp;nbsp; &amp;nbsp; &amp;nbsp; &amp;nbsp; &amp;nbsp; &amp;nbsp; &amp;nbsp; &amp;nbsp;On Premise&lt;/font&gt;" style="points=[[0,0,0],[0.25,0,0],[0.5,0,0],[0.75,0,0],[1,0,0],[1,0.25,0],[1,0.5,0],[1,0.75,0],[1,1,0],[0.75,1,0],[0.5,1,0],[0.25,1,0],[0,1,0],[0,0.75,0],[0,0.5,0],[0,0.25,0]];rounded=1;absoluteArcSize=1;arcSize=2;html=1;strokeColor=none;gradientColor=none;shadow=0;dashed=0;fontSize=12;fontColor=#9E9E9E;align=left;verticalAlign=top;spacing=10;spacingTop=-4;fillColor=#EFEBE9;" vertex="1" parent="1">
          <mxGeometry x="340" y="138" width="660" height="502" as="geometry" />
        </mxCell>
        <mxCell id="9" value="Architecture: Retail &amp;gt; Beacons and Targeted Marketing" style="fillColor=#4DA1F5;strokeColor=none;shadow=1;gradientColor=none;fontSize=14;align=left;spacingLeft=50;fontColor=#ffffff;html=1;" parent="1" vertex="1">
          <mxGeometry x="110" y="40" width="950" height="40" as="geometry" />
        </mxCell>
        <mxCell id="156" style="edgeStyle=orthogonalEdgeStyle;rounded=0;html=1;labelBackgroundColor=none;startFill=1;startSize=4;endArrow=blockThin;endFill=1;endSize=4;jettySize=auto;orthogonalLoop=1;strokeColor=#4284F3;strokeWidth=2;fontSize=12;fontColor=#000000;align=center;dashed=0;" parent="1" source="127" edge="1">
          <mxGeometry relative="1" as="geometry">
            <mxPoint x="360" y="285" as="targetPoint" />
          </mxGeometry>
        </mxCell>
        <mxCell id="127" value="Beacons&lt;br&gt;&lt;font style=&quot;font-size: 10px&quot;&gt;Proximity Notifications&lt;/font&gt;&lt;br&gt;" style="rounded=1;absoluteArcSize=1;arcSize=2;html=1;strokeColor=none;gradientColor=none;shadow=0;dashed=0;fontSize=12;fontColor=#9E9E9E;align=left;verticalAlign=top;spacing=10;spacingTop=-4;fillColor=#E1F5FE;" parent="1" vertex="1">
          <mxGeometry x="130" y="220" width="170" height="130" as="geometry" />
        </mxCell>
        <mxCell id="157" style="edgeStyle=orthogonalEdgeStyle;rounded=0;html=1;labelBackgroundColor=none;startFill=1;startSize=4;endArrow=blockThin;endFill=1;endSize=4;jettySize=auto;orthogonalLoop=1;strokeColor=#4284F3;strokeWidth=2;fontSize=12;fontColor=#000000;align=center;dashed=0;" parent="1" source="128" edge="1">
          <mxGeometry relative="1" as="geometry">
            <Array as="points">
              <mxPoint x="330" y="425" />
              <mxPoint x="330" y="285" />
            </Array>
            <mxPoint x="360" y="285" as="targetPoint" />
          </mxGeometry>
        </mxCell>
        <mxCell id="128" value="Backoffice&lt;br&gt;&lt;font style=&quot;font-size: 10px&quot;&gt;Business Systems&lt;/font&gt;&lt;br&gt;" style="rounded=1;absoluteArcSize=1;arcSize=2;html=1;strokeColor=none;gradientColor=none;shadow=0;dashed=0;fontSize=12;fontColor=#9E9E9E;align=left;verticalAlign=top;spacing=10;spacingTop=-4;fillColor=#FFF8E1;" parent="1" vertex="1">
          <mxGeometry x="130" y="360" width="170" height="130" as="geometry" />
        </mxCell>
        <mxCell id="129" value="Mobile Devices&lt;br&gt;&lt;font style=&quot;font-size: 10px&quot;&gt;Push Notifications&lt;/font&gt;&lt;br&gt;" style="rounded=1;absoluteArcSize=1;arcSize=2;html=1;strokeColor=none;gradientColor=none;shadow=0;dashed=0;fontSize=12;fontColor=#9E9E9E;align=left;verticalAlign=top;spacing=10;spacingTop=-4;fillColor=#F1F8E9;" parent="1" vertex="1">
          <mxGeometry x="130" y="500" width="170" height="140" as="geometry" />
        </mxCell>
        <mxCell id="130" value="" style="strokeColor=#dddddd;fillColor=#ffffff;shadow=1;strokeWidth=1;rounded=1;absoluteArcSize=1;arcSize=2;labelPosition=center;verticalLabelPosition=middle;align=center;verticalAlign=bottom;spacingLeft=0;fontColor=#999999;fontSize=12;whiteSpace=wrap;spacingBottom=2;html=1;" parent="1" vertex="1">
          <mxGeometry x="140" y="268" width="70" height="70" as="geometry" />
        </mxCell>
        <mxCell id="131" value="" style="dashed=0;connectable=0;html=1;fillColor=#757575;strokeColor=none;shape=mxgraph.gcp2.beacon;part=1;" parent="130" vertex="1">
          <mxGeometry x="0.5" width="36.5" height="50" relative="1" as="geometry">
            <mxPoint x="-18.25" y="10" as="offset" />
          </mxGeometry>
        </mxCell>
        <mxCell id="132" value="" style="strokeColor=#dddddd;fillColor=#ffffff;shadow=1;strokeWidth=1;rounded=1;absoluteArcSize=1;arcSize=2;labelPosition=center;verticalLabelPosition=middle;align=center;verticalAlign=bottom;spacingLeft=0;fontColor=#999999;fontSize=12;whiteSpace=wrap;spacingBottom=2;html=1;" parent="1" vertex="1">
          <mxGeometry x="220" y="268" width="70" height="70" as="geometry" />
        </mxCell>
        <mxCell id="133" value="" style="dashed=0;connectable=0;html=1;fillColor=#757575;strokeColor=none;shape=mxgraph.gcp2.retail;part=1;" parent="132" vertex="1">
          <mxGeometry x="0.5" width="50" height="44.5" relative="1" as="geometry">
            <mxPoint x="-25" y="12.75" as="offset" />
          </mxGeometry>
        </mxCell>
        <mxCell id="134" value="" style="strokeColor=#dddddd;fillColor=#ffffff;shadow=1;strokeWidth=1;rounded=1;absoluteArcSize=1;arcSize=2;labelPosition=center;verticalLabelPosition=middle;align=center;verticalAlign=bottom;spacingLeft=0;fontColor=#999999;fontSize=12;whiteSpace=wrap;spacingBottom=2;html=1;" parent="1" vertex="1">
          <mxGeometry x="140" y="410" width="70" height="70" as="geometry" />
        </mxCell>
        <mxCell id="135" value="" style="dashed=0;connectable=0;html=1;fillColor=#757575;strokeColor=none;shape=mxgraph.gcp2.database;part=1;" parent="134" vertex="1">
          <mxGeometry x="0.5" width="50" height="45" relative="1" as="geometry">
            <mxPoint x="-25" y="12.5" as="offset" />
          </mxGeometry>
        </mxCell>
        <mxCell id="136" value="" style="strokeColor=#dddddd;fillColor=#ffffff;shadow=1;strokeWidth=1;rounded=1;absoluteArcSize=1;arcSize=2;labelPosition=center;verticalLabelPosition=middle;align=center;verticalAlign=bottom;spacingLeft=0;fontColor=#999999;fontSize=12;whiteSpace=wrap;spacingBottom=2;html=1;" parent="1" vertex="1">
          <mxGeometry x="220" y="410" width="70" height="70" as="geometry" />
        </mxCell>
        <mxCell id="137" value="" style="dashed=0;connectable=0;html=1;fillColor=#757575;strokeColor=none;shape=mxgraph.gcp2.storage;part=1;" parent="136" vertex="1">
          <mxGeometry x="0.5" width="50" height="40" relative="1" as="geometry">
            <mxPoint x="-25" y="15" as="offset" />
          </mxGeometry>
        </mxCell>
        <mxCell id="138" value="" style="strokeColor=#dddddd;fillColor=#ffffff;shadow=1;strokeWidth=1;rounded=1;absoluteArcSize=1;arcSize=2;labelPosition=center;verticalLabelPosition=middle;align=center;verticalAlign=bottom;spacingLeft=0;fontColor=#999999;fontSize=12;whiteSpace=wrap;spacingBottom=2;html=1;" parent="1" vertex="1">
          <mxGeometry x="180" y="550" width="70" height="70" as="geometry" />
        </mxCell>
        <mxCell id="139" value="" style="dashed=0;connectable=0;html=1;fillColor=#757575;strokeColor=none;shape=mxgraph.gcp2.mobile_devices;part=1;" parent="138" vertex="1">
          <mxGeometry x="0.5" width="50" height="36.5" relative="1" as="geometry">
            <mxPoint x="-25" y="16.75" as="offset" />
          </mxGeometry>
        </mxCell>
        <mxCell id="4GYh9d1XmSdqZsPijuMS-165" value="" style="shape=image;verticalLabelPosition=bottom;labelBackgroundColor=#ffffff;verticalAlign=top;aspect=fixed;imageAspect=0;image=data:image/png,iVBORw0KGgoAAAANSUhEUgAAAewAAACMCAYAAAC+qZqOAAAAAXNSR0IArs4c6QAAAERlWElmTU0AKgAAAAgAAYdpAAQAAAABAAAAGgAAAAAAA6ABAAMAAAABAAEAAKACAAQAAAABAAAB7KADAAQAAAABAAAAjAAAAACE0WDIAAA7M0lEQVR4Ae1dCXxU1bn/zp2ZhB1R2TMJASoqVauggtaKdckkLK7BqgURK22trba1m77a1KWL+l5rrb6nIiq8ViX6UBASahWXtoCKWwUVWbKpLIqasCSz3PP+504Sksy9s9y5s2W+88vk3nvOd77zff+7fGf5zjmC8izIh8b0CehighTBIwXJoVKKQSTkIKmLQbgeSEIMklIOcpH4ledbjS/lGTysLiPACDACjECWIuDOUrmSFksurXQF9r5yHOlyohT60UTiaCnpaH8oOFYSaYR/+EPoOJHhaxCpoGs0xDjhf4wAI8AIMAKMQBYg0KsMtlw8tjgQ9J8Dm1vmb153Jkxw2OgaNrjTPGcB7CwCI8AIMAKMACOQGAI5bbDlmmnutm3bz9ZEqEwZ6Ta//8iD6ocN9MFrPmMEGAFGgBFgBHIXgZw02HJJ0Xh/gL7VtnXrPHRpD9fZNufuE8iSMwKMACPACMSFQM4YbLlqfKF/R9sFcAi7yu+naWhRi45R6Lg0ZSJGgBFgBBgBRiCHEch6gy0XjxvmD/p/4v+49QoY6cMU1tygzuEnjkVnBBgBRoARsIVA1hpsTL86xK+HfuIPtF0LQ93flnaciRFgBBgBRoAR6CUIZJ3BlouP7e8PfHatMtbo/j6kl+DMajACjAAjwAgwAkkhkDUGW742ydP25u6r2wJ7bkCf97CktOLMjAAjwAgwAoxAL0MgKwy2f2HJ8f63dj4EbI/jAepe9oSxOowAI8AIMAKOIJBRgy2XTizw723+pdRDP8c4dUZlcQRNZsIIMAKMACPACKQIgYwZSf+D3sn+luaHME795RTpxmwZAUaAEWAEGIFeg0DaDbYaq0b3981YNhROZeTqNUiyIowAI8AIMAKMQAoRSKvBlovGD217c9eT0Oe0FOrErBkBRoARYAQYgV6HQNoMdtsjpce2BVuXA8GSXociK8QIMAKMACPACKQYAS3F/A32bQ+VXEDBwL/gAc7GOh2AcxmMACPACDACvQ6BlBpsOJSJtgeLfkV66AlerazXPTusECPACDACjEAaEUhZl7hcWunyP1i8GOt+X5pGfbgoRoARYAQYAUagVyKQEoNtGOuWdUvgCX5Jr0SNlWIEGAFGgBFgBNKMgONd4lJWaf6W9Y+gO5yNdZpvJhfHCDACjAAj0HsRcLSFbRjrRQsfxnj1Zb0XMtaMEWAEGAFGgBFIPwKOGWzDWD/44CKMWc9JvxpcIiPACDACjEDOITCtyk1bXjuBKHg6CTqVpBwBHQ4lEkOIsFujECEcD+B6D2YZ7cL5h4jbDprtoH+fhNxE9as/zjm9uwpcUjaSQtpV0GUG9PcYSUIESIpnyC3up7pVOzrIRcdJske5sLQkIAJnJcsnW/If5XlyxFZ9VGm2yJO0HC7XIzRn1MtJ82EGjAAjwAgki8C484eR/8DPYYS/BSM8MCl2gj5H/s0wcO9TU+3cpHilO3Nx+UUw0jcBh7touOdR2rBivyHCpJn9aKf/UlRKrkUF5WZqqK1W8Y4Z7HTrmfLyHml6EkBekPJy0lWAEJ9QgetEumRkXbqKdLScojJ03uRgaFpt7x1Lt75C+PHh/AwfPfXx+wy1fRzFZ/htJE37Fw0+9BV6e8m+rL4DxdPHoqU2GTqcCF3G4yM4GPKjlaaOaK1JGoSPnw4dWvFutyLtANKaEb8bx1047sJxN9KbsGhyHY51dOLARqquRiuPgyMIYKovlZRjqq+8Hvz6O8Kzg4mgADWuLui4zPqjMta6fjXRoIuoqXqPqbxHnn8Y7T3wBGl0rzLa9j4mppx7WWRvM9jq9gjxNgn3KTR3RHZ/eM0epXQbMDMZ7MTlisGOqZvqmiQ8P/KfMOCLqL7mjZhZUk0wtnIwBZq/iQd7JgzwZBR3WAqKDOK9aYIx3wZj/h4qA++SJt8lWfAuNS7/KAXl9V6WlZUuWte8CFimqBUs9qOF7WwlIFV3Q3WD6+JZ6t/3dHpv2ac0aYGHdjecZxQnUYl09VlPdU+pyjORMtr7DryE5+4sNtgGIib/eqPBVmoK8QRdXlRponF2R7HBzrb7s4Y0139R/cqVeKbS2/tR7PsqDPRVeJgrceybMWCEUK3zTajEvIHj62iVv04DBr1DG6vRW8EhAoEi32L0dKTOx0ndj8Za9KbkQCgqvwkGeCdazfcZ0o457xAKtb6Ed+lOPNMD8JtL7oJ5VLfiPSPd67salcXDHZ/WlQNQ5beIUl5Ei5tuzG8QWHsHEDgDKxiuIK9vE40pn+IAv9gsSmcch/JeQXfqy0YrLZPGWkkr5SD8mwJZvourByhEG6i5eX5sRfKQomT6GSk11gpSKQM5g6yQ51Lfgr92lxcOdQ01i1HpuJdI+wuF/Gd2prv6gFaexwa7E5E8OpF0Cy1urMgjjVnV1CFwJIXkizCkGItLURhfXkjeslspEHgNH2WMT2dzENxN3vP2VFVpFAr9Z89ox68FBR3nmTKG6Bl6f3lLD/aH0hjfNLxLl6DXZjqGL2s6043ucTmADXYnInl0ohw/dHqQln6B6RMcGIEkEZCyAIb0HlJdnkWVznZRF5dNpFb9TbRiVa+QY9NQk9Q4WvbcnmIUTTO7aQ+t86F1eLzd7HHnk5gKlStBwiOia9A8WBgUDpK6+AqwmoikVtI8EY5oufACdFWLz51DYAQdaLkL7FI3puScrNachNhKHs/XrQl6WYoQ22jclAmOa9WyoYB2yiGo2WP+a3AISZeXhK7mxZ6KseJj8BGJo3KP8UmtRdHBEcyBMLbiCAqEngOn4Q5wSw8L6eYWdk+kdZrVMyol18m0sIt81XjGL7Ih1zPUtHpmwvkE7SPlNLmt+gsjrx4QePfqMab9R+O6uOzXFGzFMAItC19PxzsZamGDbaCRp/+k/CYt/nApzR29ImcRUONW21Y05Kz8iQsu6YWqVHT9KZ5qDuiHXUQKj7Eph5hgKxZ2oB/CgI/skh55qsvLqNj3cqczTSRFfDFjfGPIr+eWsUYNh8ZP3klNz8SnY75QSZqeFlVzaQybtGXhGQ50j4GNamGHsD5MZ9CacDq681LXL8P7tyyOWnNnFj7pjQjo+v/Qss8O6Y2qsU4OIaDGz5pq76BCUYqPxjX4YQ5zlKAWgSgpt98FqhbVCMnn0eIpilJK9iWpudypqUxln67xSjSmQnXxpuc+JtPCjlcfp+jcnoVg9R06YubhBsutSzGVq+/sTvYFtJgOPfwh41pN6xL6t+E1/gAb7E6E8vZkFDXvC3fD5C0ErHhcCGypacPCFPeQ9GAZSWE9VitlITy5l6A13n2cLq5CQNS2/1aMWZfGS541dJKsMckaIdMsSEhi2dE0hVwaw96+fCfGrG+i/YFq+H0cakyN7Jh3reBS75paqKgYXeF7Dyw1aJGHDXaanqWsLkbKy2lJ47SslpGFyx4Emp55Ba3tk2IY7YnknV6WsNDe6V/GmPn8hPNlRwYev+55H6T8Us+olF2LHJrWpUBoql2G3qo/ELWsgcPmld0cNpXzprd8PunBNaC5y6BFFh7DTtnTk2OMdfE7SJye+bQ5Bg2La4LAlpomTD+5Ailq6ol5S1ro1yGt1iR3lKjgHUh0RSHI4iTJBjvi7iRtsBvxdP0Pae61GCb5BIuNhMgl3fCmdlHI5SEK9cXT0g+PYD/Mg8+9FRwba5fT+PK11EYLSLY8j3cqbJNlC3xKsPlHH+1stLZ3d8DKBrsDiXw/SnkyLfnoPGwQ8lS+Q8H6x4lAY+1qfGDuRdf390xzSHkOlUw/CquhvWua3jPSW/E1eMJiClCOBo3nYJvcufEmcXFGibV06NCzs34N+zi1sSQLG+TbkK5+UQMb7Kjw5FliKHQbPr7L0dWpNkjgwAjERqCg783k34/WAaG1ExEw3z90FWJ/FJFiFuH8ZjufonX2KmakvY+W2TYcW0iE9kHWNiyr6kaLrBDx/fHMD8SUmsFotR2CTRYOwzXWJBeH4zgM+YeBvo+ZuCZxPIbdExRBY4CfveCBU1a2bzhjTzPbudhg24auV2Y8mpZ8qBbmf7hXasdKOY/A1mW70MrGXFF50MO1eymndb+MdiWdaF1jsw5agkrnIjp54FpHdtpS82VlywgKiBEw7KNgzPFTR4lpN6IIBqmoPZ67xHveXikGAKeesbGvhdhE22vfjk2YXxRssPPrfsfWVlIVrZKPUoVoi03MFIwAEBB0P77JFgZbHmc40zRVd51kGgmbmncdlBMiExKJwW50BVolbVu12cjVkEjeKLThxS3UAhfvW1Ipj/jZszVyqkzLgnIoYWJlAX3RbNMfQa7LIU3TJip7iacN6hwpSMoS2vXh5TkiLYuZDQjMn7IGYpg7/Kiucq1lUkwxQ0m2rgW9Qv0LvtpprGMW6DCB2rGM983uDuq+AJzB7Aax3W7O3pyPDXZvvrt2dROUuo0c7MrE+bIXgaoqHV3Qb1gKKEXs2QeS7M/XVQu5eFxzTDZTsBSJE9KAQEhPxmB/mgYJc64INtg5d8vSILBEN+YjTVPTUBIX0VsQkGKDpSrqeYoVBA2NRRIl/emMtayjCJX3SVJNt7IbZPQhFLtsczwfG+wcv4EpFF/t8cuBEYgPAY1etyZUXtexgrBvsKVreSzunJ4BBDx+m+PXkFVgvjWHCATY6SwCEo4wEJCyEq3sH9LlRdw1xY9EbAQk7bAmwnSpWEEm0cLWsMtRvoQJswZSa2gy5qufjGlnX4JlK4bDX7ExLY1EX8SFW7VCYCMXtFKl+AJOgQ04b8CwxQf4vUJ9PK/y8EFuPjBssHPzvqVD6j542dVKVnemozAuI8cRcMEwYG0m0yBkbIMtJOY9m+aOHely7Y1NlMMU4871kr/tIuBTSfv8J8P4dukZbQfNOHQBUMpB0Bg/ORz5jjC0lyodv31+HUthrochfwJb0z7hyG53RWX/jEA4QPb3RtfFf2C6oJrDH3+Q4j5qqvlL1Axe30Om6ZJONI2PGYn9q614WuaVn2NN/h9aJkdJiDDYcknR+LaAVhElT14knS/Xr6+hKU15oayVkpq0+gRb5eD4fEVAimZr1eNoYRMNtM4fI0UPqm0I34pBlXvJaqerkP4zamurhKG1370coblh8KfCdk8lf+B28pY9QZr2e6qvsXYcjOAREXFKRIyqHNgO8ojOika8PDSxMiaplPNi0iREgJ3IJCXGM7xxjjMGO+AX3yGp/zghmXsh8VN03XmF8xtv74WqsUqMgPMI6C7MU7aq38khMQuU9BlohsWkMyPQ6UxErzJLysk4tf+43noHBUNXQn7zddodUwwVAUkXo2JwMVqKD5Jw/YQaVqp7wSELEejStRKWTpd0bhbKySIxAoxANiOgtUVpTonYRkeIT2yrJ2kuqT2De0Mo8U2lUOsmbE/6LagTGzcndZbySoyNb8L67yatZScLYl52EehmsNsWFR+NrpfxdplxPkaAEchTBDShxkwtAsbsYocknBsx/r1v//+SWlkrl0Nx2WwY6ufhODYyY2pIOQLrv2PXqPKLMyYDF2yJQDeDja6RWZaUnMAIMAKMgBUCAfdgqyTDU9kysT1B0s5YJFHTJfnoi5YXSS1xmouhpGw6Nh/5K77B8W40kjotpSxEpeEvVFwxI3WFMGc7CPQw2Dp3h9tBkfMwAvmOgKZbG2wRRwtbE5FexgljKqdgz+R34UT1B+wxXJRw9kxlKPUdi53DHnfWsSxZZTC2rYceIyUbh6xBoNNgy6Vj1Qt3UtZIxoIwAoxADiEQiuJYJmJ3ieviOUeUVS1USddRq74dhvsxtLinOcI3VUzUpiEBeT/Y909VEUnw7W/IpmTkkBUIdBrs4N7gifAa6bzOCulYCEaAEcgNBKT25SiCxjbYjSvfQf5dUXgkmuQ2vJ+Dcg0M9wcYk72RSitKEmWScnqvT3mCY2511oaT4T2uZOSQBQh0GmhdR3cSB0aAEWAE7CAgZbQdubbGZKl2uyJ6OiadHQJJ4zFV9VYKhNDq9r0E4/1dGne+vSlkdsq3yhP2bP+dVXIWxf8OW6QemkXy5K0onQYbS9uxwc7bx4AVZwSSREBEM9hyfVzcNbcyXlaTueNiEYNIwJnqNBjve6ntwEcw3s9Sse/bVDpreIx8qUned+A2MM6F6WiHkdirZOWQYQQ6DTZWrcvmbpkMw8TFMwKMgCUCyjNbkrXRc7niM9gNK7dhretHLMtxNEEtGCLPwjSq/6GA/yMs1fkceSuugLNalOlpDgowthI+Q/JyBzl+gGnbL2Dm9uPA8DHwXYPrzc7x1+eRIbNzHJlT4ggYS5PKh73j2oKYy8iBEWAEGIFEEQjRN6NkaaC6VTuipHdPctGtFBSXwJj1656Qyitjqc6vY9GQr1Mb3YuW93IYvf+lod5a2nB/ICUl+5ux3GiyU7jUYjPyDtLcT2B1sm2mcqrKVEhgHXL9J0i3PwygnPnCMi80LUdQbWS86G/0aEQmxI4RpHwaPo5N2IVCUl2XK4tTYbELGCpw9oLEs5LYMyLJb68oIsNgt+niKNx4uzw4HyOQQQTEaHxgl2ZQACIXPvJ1tS9kVIZMFa48iIvLrZ2ShFiXkGh1tXVUUjGXQqFq5Eu/d7IxD1rOhqGZTbsaPkTL+y4qGHg/bavG0qsOBiHmoowkGIpV5CmYT9uX74zKROGpNvAZX/4ItcmFKNP+WhuC5oCXucFuXF0eIUepbwIF6L2I+HgipOu31LTqr/GQJkTTVGvYvIg8RT48b/KiiPjYESupsXZmbDJnKAzhNamX6s7wYy6MQJoRkANR11StlcyFED6e+RqKK86GERhjrb5m0vKypjZS6lc9iUrYTeB7SwzK1CZLqTYVuZ0CLdg5quwBKtT+SFtqmpIuVLV6g/Kr9vmItTR44Pm0sTr+ltqWmt00repC2rr2ObwvX7NVtqTTjIVpwpUAWyw4U3IIhMewpShNjg3nZgQYgbxDYNICD4yqchSzCp+Sa9ijVolR4xtrbyVN3B2VJl2JaqtKST9GC3UzFZXfRGPm9Umq6JC8FPnt9h7sJVFwUULGukPYF6qC5C6cjZLt9hYILEyjZOeQIQQMg41OLTbYGboBXCwjkLMI7Gy4Ad2Ix0eRfyHVPdwaJT16UkPtD7Dt4+UYIzwQnTBNqVL2JdJ/TaEd75BaStRukGS/dS3oYWpc/pHdosNd6OJB2/mlONV2Xs6YNALtXuKSDXbSUDIDRiCPEBhTcTKmgt5orTGcewoK7rVOjzOloWYxubRTYLS3xpkj9WRSjsNSos8Y49uVlYk7KwnxFdtCejx/sp23I6OLVM+FvQF0QdEqaB0l8DFFCHR0iY9JEX9mywgwAr0NgeKysyioP4tPvsdSNUHVtG1Fg2V6Igl1q96kQjERWX6WRHduIiXGSSt/QOtaViU03Ukt2GJ7Ny5M09r2zAdxCmdNpsagBW20JoiSomTPhkVnoojYm5PcUlZpbQ8utF64vzdrz7rlPgKC0D0ors+oIponMU/ojAqbZOHF5cq7+QE00Ky3slT3pK/n+0mW1D37lpo2RNxOR8xcRAcCVZDh27g29/jtnjO1V1KeQ4Hm5+CFfSoc0pSM0YP/QDIt1BeiM08oVfGKtpysNbOwDqutCTglVQi4qbo6jfMdU6UG881bBCQ1U1OtPcemvAXNhuLestNQMfoN6XqM8Vehk+b6Jm1egTnCKQhhvtdQycz/JBn4LhY+mY9SMrtamKRJ1CpVV7WqREQPqjvc7nQuTf4jOvNEUtXuaPKaRHJ00oa79NlgdwKSvhONgvv7p684LokRYARyBoHisomYY32dsQqYpJdgaGIYa2gm5G+pfuWalOtYv2I7NdT+lNwjizC+fQV+r6W8zKgFyAWYivaNqCQqUZeqa99eEGKLvYxmuTT7vJLRwUwUjosbATe1hthgxw0XEzICmUZADjF2nnJcDImpShItVXE4xqaxdjQdDeMyAhYm/pI0sZDGTqmixjQ2vsJe6A9DyIeppPx4yFwJ+S+ALhPiF9wpSswbr6pail8U0HD/7Aa9oN5u1oh8fV11tD8UER1fRBI6xFcAU1kg4PYLnQ22BTgczQhkHQKSsGsSdp5KWWh3Hm4/xFcMPMI1+BE01PwRrd74sqSCqr7mDbBVvxtI9Q4ow20Yb7LvlZ2InGpXsEXrpyPLCstsgtSc7sSDEH5qePpj9CQkntcshxpaKCrbh6TEv/9KBw4ZQcBNLlcQywC+kJHSs7jQ37vmDaQlC6ZlsYjpF01376fLR76S/oK5xKxFILwIx8Uw1mlsVseBRsNq5QWtfrdgvLuUZPBctL7PxTXG4m2vGx27YF1eByJrgy3tGjv5GYy1HVMfTeY9SEzcYNvWIZoonBYPAu7CufXvgvCMeIjziuaRBU9hrqV6wTl0ICBCb+P0uI5LPuYxAkI0o/v8z9TX/YeUOZg5Ba8a7yb6o/Ez9nVuvgBd/nPQ0oXxxpmzYRpNmDWQ3l/eYspW0GBbLWxKxeIxiqeNOoDSgUNGEHBnpFQuNFcRUF1oHPIbgU9h4u4iV5+7qe6pz3MOiqZq1apcaPxKK0own/xbcKb7Lq4xfu9EwM5frYETwel5U262W6cyFau92VuFzrYOpohwZAIItK90lkAOJs1nBNhg59vdF/Q5umJXkNCuJ+E6kaYOGg6nslty0lj3vHfbV9Vjp6Vf0vCCYtLoOlREnKmA6DS1Z1Gd13bHf6WwZ1w7CzY7sVkJsKuDmQgclxAC3MJOCK58J5ZssDP9CCijIuk+x8XQsBM0kWp97oHhwlHsoVDBbrryhG3dvJ4bHS858ww3rNgPIe7CCl6Pkv/AErS4z0lOKKla2BZBBNENbb1CnEUu5HG+cSWEZm9OuNKBQyYQYIOdCdRzt0w22Bm/d+JTLBTz87SJUbU8bUVlvKCty3bRpAUzaGfDUzCQFbblkWo6nFWQGPsnbCKSaBDJ7RBmWpzazMROMHSwk5HzJImA87W2JAXi7FmMgBR7s1g6Fo0RSB6BDfcHyFMwP7nucXGIpSBSfGGZFjXBrnGNxlTYM9i2dYgmC6fFgwAb7HhQYpowAkLY39aPMWQEcgWB7ct3QlT7y90KaW2wBZbStRVsGteoZdmsBNjfTzuqNJwYGwE22LExYooOBKRU02M4MAL5gEAS88qjtbDJZgsbC+ZMq3JuCLOqCt9+rGpnJ6j1+zlkBAE22BmBPUcLdWlssHP01rHYCSKgkX33OimjOWXZNNhY7GX7Bm+CWliTL3xtJBzOrHdcs86pUmzqEJ0pp8ZGgA12bIyYogMBobPB7sCCj4yAFQJC7LZKwuYo9qeOiUCJJd9EE1zSPq9kdEhUTqbvhgAb7G5w8IUlAoL8dNloHsO2BIgTehUCuhiahD5RthbVNtnmq5NzG5ro+pG25aAkdLBfaJbmdGpx9/jUY4MdH05MRWI7FtCIsgsRQ8QI9CoExtnWRkrrFramvZ4E36/ZzhuRUaplWe2FZHSwV2LqcwkK2CzE6aVto4rBBjsqPJx4EAFp/0NzkAmfMQK5gkASi6cI6xa2q596j6QtEKRw0mCfbksGJXtYB5vZszabWjwn8SDIlXgm+znYYNvHLr9yClqXXwqztnmLQOms4TBLZyeh/4eWebdVf4E53lst06MmyCLyVkyOShJPYumM46BfaTykETRKdqVDbwuC7BlsSYXphIINdjrRzu2y1ue2+Cw9IxAnAkH/r9GQ7BcndSSZEGsiI7vGCPu9VVL/QVdOts6Dwe/bymdkSkJ2+4WmPqcu7RlsQQNSL9zBEthgH8SCz6wRaKM+RW9YJ3MKI9BLEPCWz8d0pwW2tRHUSq7hL8XIb7/yK+hiGltxRAz+1snecozNy8usCWKm2Jc9JusMEgiyt+yylMV4XtI2js0GO4PPSM4ULcSbNFv4c0ZeFjR3ESj1TaCS6UfRpJn2W7h2tFeLknjLbsDH935kT+IDLF6kuoej76wl3Y+jiJAdMY2504HQk7bwGTOvD0n9CXSH21yXHDIbstuSPMsz2V52eRiNKZ+SLuWcWzknXRJzOelHQNI/0l8ol5iXCAToN0TBC2gntC8q2wXTWQfjVocZCnUwVvU4/wgtxA9hOD6i8ZN30gtV0RYpiQ3hhFkDaZ9/Nm1ddy0M2THgHTtPdIrYK6Q1PfMhFflqwWZ6dFYWqZK+TLsCtVRaMYfUFqHxhPHlRdS6YwlIvxIPuQVNLSnZe2UQ223fex37qx8x83TavMLa2dAhzNhgOwRkr2ajuVb0av1YuWxCoLSLMMNgP4fhQ3oSjHV7dMcRs3C2rNPJ69sFmo9h2D8FwR7Qth+xPSipcUkXtg3VW7HfNY6aIJ0GYfGSweA3Hr/jab//eND1Td5OG+IFSfM81UV+61MhFqJ8ewZbcZWYlhUMvQXD/wdyex6nuhXvmRamus8DoYupTf8R0q3XODfN3CNSydxbg9A/sP0MSHk0HfB/gArmfahYvkcapvWFRAGeyUJcFwCyQjx3OFcOanoh7tdK2v7MW3agZINtB7X8yrOH+ozgFnZ+3fPMaStkafwfTuwRLWkEhB0RmafDsLf3PBuH9vOOJKVlZ0XAAZWFuJ/qV2yPi9O4k5+hrWt3Qu7hcdGbEUkaDAWqKOivQsWlDiRN4LcDhkFpCFzgVe4Pda0AmXGJL06gz0PJ3FgTH32uUWkjt5L+scJN2BJdGpWhnxnPk/GYgZXi1vX5UtcqBINqtTtbBpvHsA0E+Z8lAkKsxPh1+5fOkooTGIHkESiePgQfueRagclLYZfDXnIX3Bx35nBXvnMtVinHwDh8FRbiIhwr8TsNWDpjrA2lxANJDz/EDU4GCMN+B41pKVmgl8dmYINtE7g8yrY8j3RlVTOJgAg6aGDSrYi4k8LbcsZf8LCC36DLdGv8GTJEqWQc5vlthkpPX7FCbEhLYVIMtFtORJe4XDPNTbu32K4B2BUk2/L1PRDc10pujIPlcxAB6lugnGM4MAKpR0BqYzHGl/pynC5B0BYaMvROdEgnFjas2A/P9CuQ6UX8RGKZ00at+navICVrrw8afHVC56deTd22fY0w2FRXN8CviyYpbW5unnpt01LCF9rXziuc35jMfMW0yMmFYPF9J/cJdhrQZL2YnZYnm/npGL/OtSDEx3A0O4feXmJvHm/j6pfhOHY3jOIPslN1cTc11r6cnbI5LFVB4UpqO4AaI3wjUhucM9jiirrP2xZ5H8X4x/zUyszcGQEnEJATaMtauAxnbcjWllP2ASbE2G5OOtknYXeJhPgMXujnxO1o1j33wavhnl/QTv85iEhiB62D7Bw8e4+UbIn2HDgoQFpZbV22C57eagnmU1Jcrm2DbVqTEJL+O8UCM3tGgBFgBHogkFMt7H2YKjadGle+00OJxC9Vd3Nhv9Mxnv164plTlEPJomTKi67wLhi6xG1drlJzKoWzBrvgysbXhBCvpUZa5soIMAKMgAkCjno1m/B3KkqIV8kjJlF97VqnWJJq3fUrmIah7Occ42mbEWRQsiiZ8i3U165CxSn24jfJ4JIKL3FuZSdzRzgvI8AIJIRAVZUGt6sxCeVJPzFWVRNVNG7KKbS99n3Hi39/eQsNHlgBg/GY47zjZajKVjIoWfI1uDzX4R5guCNFQZJtL3HTLnElpmf4sMfQylYTvDkwAowAI5BaBKo39oPfzDP4UNaltiCb3IV4mYRrKjXV/jql85E3Vvvh5HUJdlmegcrB2zaltZENZakyVdlKhnwOatU4gXnsQqRmGdaUtLBnbtgPoe/L5/vGujMCjECaENhYvRfG8EIYDHiKDzoMq4ieBYP103BrU6A1K9I/30uINpT/MLm0EyDX16hxVfqGCetXr8SqYl+BU9tlkCF1c7UN3ihDlaXK5BBGoGH1RvJ4TkGvj/PTWqW0PYYd1YNV/qV4iL9VbsMUr1xdfcj24yc0oaZ1PW2bAWdkBBgB5xCYWDmAWvYeh2naJ6AhMRHe5EfgYzoBrfJRzhUCTqorVNJaHNdg5edHaEvNbkf522E2aYGHdjeVka6fDd3PhnxH2WHTmUfQuyTFs6Rpz9LQotW04f5snmXRKXbGTkrKTqAQ3YDnbRaw99iWw+g9kutJaOuooeaPdvhENdiKYdui4l9IXf+NHea5nIcNdi7fPZY9bxBQhnxv8xH4kGIzDzEaH9WRMOojof8onKt1uvtjXm1fWGJs8CH7IQ7j0GqTEGOMEkecS7kLxutVLNryLziSbYKx7lj1GclZGIpmjCYtiB4ImgS9D4d+h0P38FGoI4KU2DlKfAID334kHGkD6e6/994dtwzNU/dPbU8a+vhEGNxTgO/JwH4E8EVjVuAnh6BgF34tiP8Uz1kdjnWYSbAR9P+Gmf+3E5W/mAZbrpjUr23Xrq0QUC2ynzeBDXbe3GpWlBFgBBiBnEDA0umsQ3qBsWxN0i0d13xkBBgBRoARYAQYgfQjENNgK5E8Xxn2ALqJtqVfPC6REWAEGAFGgBFgBBQCcRlsMXlDAFusXs+QMQKMACPACDACjEBmEIjLYCvRCq9sWiZIPJ4ZMblURoARYAQYAUYgvxGI22ArmAr69b0G3m+Zn+aQ3/eMtWcEGAFGgBHIQwQSMtji0s2fCKl9Lw9xYpUZAUaAEWAEGIGMIpCQwVaSFn6roRo7ED+ZUam5cEaAEWAEGAFGIM8QSNhgK3wKPIVX46Am4nNgBBgBRoARYAQYgTQgYMtgi7lbd7k07RK0tENpkJGLYAQYAUaAEWAE8h4BWwZboeaZ3/B3KcRP8h5BBoARYAQYAUaAEUgDArYNtpKtz/zGP2ALzsVpkJOLYAQYAUaAEWAE8hqBpAy2Qq5gZOECzM9+Ja9RZOUZAUaAEWAEGIEUI5C0wRYVW9oKBJ2PHUs+TrGszJ4RSByBYt9XyVu2jYrKViSemXMwAoxAXiFw7Jz+NLbiCFJHp4PX9xvjW+T1KadtW8FtK1ePTOLKxo/k0rFH0QH/gB5JOXtZIF+6hR5x35OzCnQXfDXNLboK68Hr3aNz5KqorAWyq63rYoVvUGPt8m5EUvTDTnOlqFB+3i2eL5JDoGRmKYX8bxtM+miHY+vANkuGRWVPIK0MW1j+0u4+wJa88znBW3YatnBcZQ6B+AhbPm7G1o6raMqA+6m6mh2EzYE6GOv1nUh7dq1BRH8c91HRjK9jK1Lneo8ltkElKg1vyXmw2ETOHDHYqkAxe9sXOKhf7wiPeAbjQz8695XBRvUlo7+Xs8bauAHGXsYu6KA2oGm1vCeC9lmm9aaEIh96tOhSrDq4BhWUezOimtTV1rzhCnpweIxtekUfGI8BpEtPRmTtrYW6UIkNAlcSyhhv6aImRimxV7Mk7BOuz6B1Ld+j8eU+VKqautA4d+otuxX7cU8gt3Yn1a1a7xxjhzhVVWm0cF14We0+4krg0GzKWVXuSRa2pxWSO4jr7AqOGezsUoulCSMgnqN+o8+lM4S1kcslqNwYetleG27V5ZLcTsuq0ZEwfhfhQ73XadbMLwcRUMtFN9YeGSF50YyTSAQXouFxDKq5D+N4Niq9MoIu2Qgpvg5DNxWVg0eTZZWS/Bs3okKp3hcVhHV3dFPNi1Q6q4hkAK1gz3bavnxnOE/2/GeDnT33wllJhHie+o6eSbPFAWcZMzdGgBHICQRUd25pxUwK6JtgsM7E+cmQe11OyJ4pIcNGOusMdQccbLA7kOhVR/ECHarNpJlsrBO6rd7y89AKuQp5xuPXRJp4jfr1uZ3eW/ZpBJ+S6aeQHvwBdqjdTI01N0Wkj8HHMRT6IdK3Iv3GiHQVUVJ+PFrK38bHdDKu0BUntqIrcxnV1yw2bQl5y39MpJ+Irs6j2/lNgxPLYzjfQ42rrVsOhiz6daA7FnmbMYb2BrkK/kR1K95r55PZg7diMlpnP4PuH6CleEOEMMXlvwdOY9Hlehu6XN80TZd6CXkKfkqh4HjS9cuB5fFhOvkiFWo3oxt0N3lnjSLy34B7/FWkFQLjzaC7B/fnbxE8u0ZIKai4/GLcJ/zEl3Dchy7g90lz3UUNKzd0Je127vVdAtpzkeev5OrzEoVafwz8p0LPYaDbSG76bcp7jLavqofDpeqmPoNC+ldwNDfYEysHUEvLfMg3EzQjIfcHeHZfA0p3W3Yhe31/BZ0GPI9AHjya9CM8j7PB4+/UtHqhEdfzX2Wli9a3XII8c0E3xhjmEnI9HTLsdnp7ifmQ1piZR8JfogqYv4t7dTOVVFyFe3wO8h4FHnWQ8y/UtAqy9AjKeSwQuhlDAgeHbNrkA5CxFWP7d8Of4p/dcoydWUwB/+2dcXLQ1dRUvafzuuNEOaR99sl3oEMF9MczJXbgnuKd0m7H87mjgywVRzbYqUA1kzzVB/9Q7Zs0c9T+TIqRU2VPWuChnQ0PwmjMCcstsCMdDIQuv057919CpTNm0vZn3uqmU6jfeySaL1BfKRpz3n9R3VPdndpCch4+JuojX9UtX8eFt/x6CsnfI13Dh+czRLfhA/Bl5DmXvL6LcD4L8d27L6U8BR+H85An/AGSsgTXxbhu6mAbcSwq+ykFQ79DvBrX/Bw8S1HGFAr655C3fA4+gE9F5El7hI6PHrospTA3JlKehfQTKEgPmoqmSx/ij6VAQEA31fUJXWUQ5x6cH0Ntuo9Kyi7GR///wAeYGb4O/YHxkbieRd6K+dS46iHER4aiyr5U7HsavM5GogTnjyCnwvwkVNi+CWO4wNI4SXkc8lxMGiQPtt6BPMqwwdjDqUnJFRQXoOxTUfZruE5dEKIZuirpB5kWohwIv2hehTTggSBggIxKoX4etYn5VDx9tkXF5EJgARuCZ1gFVRkBQMA+0sipdGXo1u6qxlm5ukTYhTxn41dGn+2qpJKZ06l+xfZwUpf/If9Q0FwMvu+g4jQRulRCxgOIQyVXovIaqsA9KqGG2t92yYVo/TDIV9ktzqiQqNdHPo1/3Q22DBxilNORoc/e63HaXZeiWeNpz+6/I38JVA2AXhnrUyDTNLxnV1Gp79RUVsKSntbVoRsfM4xA+ON+M7zBL2RjneC92NlwA17AOXjx3iWPOI6aaoeRe+RAXP8ZnLwUCP53BEej5i1q8MJ6SG+b1S1dtciMlhViC7RHu6WpC9U6lzo+4BhZFOJctCoPxW8kaugnoEzVHTcDrYj2yoPK0B6aai+EbC60/MMtdiEeMa6bVisjFBmKK2YgEpUC8SnK8aEVPoSmDIRe4nuIh8HSF9KEWQMjM+ZojJSoQKHHol/BMJoyqC/wrICuMFboMQmJV5G2g9wFR8HADqD+hYOQdp+hqUSFRrX8zIJovgX51djv62iUH4H7VIRKzmDcp2tArqzTXTTufNVitg66vAyJjeQWpUbZLkIFBQ6DUhbgHlRZZ3QgZVqVG+WEextcaNX3DCpdDzyB6COh499IFI42nsWCQUOg2/3IO5Zk6GmaNLNfz6ygKzSePxJrjTQXVRrXVr09e3b/F+iUsV5PmnscsBhOfcQQoPg4MD4KFSr1TlgHSV/GPfwaCdfpaB33J/eI/sh7m5FBp19EPMv1tWsNeaYOLOhk2keMCMtYG/ledhJFORH+xyEDjDXePc+godChmIZ5FFZLkGsAqmbmPQtRWCaSxAY7EbSyllao1vRsmuf9FR4kVKV7aQjQEiry/cv0p7p97YTi6eqD8Qv8Augmu6izdlz3cCtdOfVa4PlvvKBT0X0Nx5qeAV2dKhiGokvamPIpiBsJnhto26rNXVLCpzJ4Ik7eRIvhNnz0lnem19e8gQ+X+qgpnmd0xts90UPhD6BGV6Oc1QYbNb1HeZZrhuyH0T7/d+yy78wX/Pg59Aq8bPlTLZB0BE38Eh/QhbR5xSfGNKb6mhoUe0970XgvPBd2DgO8v7yFCsW1SNuL3zBav9+80kNCtYrfhPFH9+jyLQYv9Y41rlZ81+NG9aNA20lGvPW/96hgIMqurTNI6ld/DKPz03byWHmtucZKmVhZQFvW3wky9AjQpxQaFDasXfNtW6u6p0+AwamnYcUzqHH5R0bytuovYNi+jed/NdJH086gam3aD2NnfAlYqamlzeSC82jDym0GM+WxLQddgfgPcX0BKrNHWRYihB/34Tz0SLwEenSGG+/oTTj/GLwH0n5/uIfAkkGSCaWzhgML1SP2Gg0auIAURipsWLGfBg+8GhiGkD45ouKQZLFds3OXeFc0cvFciAaMhZ1LlxW9mYviJyazPNaSPqQfYpkWNSE0Cy9ZIUgwRapmUzfSqiod3cZYcAVetpKUkX2+W7ocAGPb0oL0MlJjgBur1ccfl0a3NU7aDboR2eVfw+q7cKV+kcEltqCrHDxoTGRiAjHe6eheD6oP2KcYE38CH5kemaWqKFyGSsXkHgl2LlWXoJ18DufRIseTpfYO+kZRjvw35tQqo3AwqLnjXl8DZD+ahD4GCWEjcpAC7eLaWV0vu51ruFe6PBm/0m7xPS+EWNX5ce9I6+d+n/YZcg0l1e3eVH2gIynho+rq9pbdfTAfbraUI9DNrZ5ZZawlucQCqjcZj9VR0VdBiD/ThvsDxnnXf4LuQO4ysLgQ0Td3TUroPBi8CPRqWGYFqQpL16B09/qeRdQ8PLPqeXy3a3LnuaTtVFezrvNanRjvaNkHOBuJef5KV/SkpCiEHdKON+Wu3n1v2U5gNYoOtCk5NprSJRnJBjtJADOaXRBqmu5KumzErozKka7CXTQJrQTzl/nKiW1UVWtHkonhTOKw7h+9dlZqXFkFMwNqfGjKliFtLrU0V4BqqUGr6+fj26SjP/wx49rq3/jyIvKjK54I3Y4S00lEAYbEh1qRJxavh/USGBsv9v0JunXPLsVwpRR+Y7on2Lga0O9wcrnbLHM2tzwB/XoIYEntbIIL+iu7SLTflLGUfiNeR7U3WjAWKRHoYpfFuE/ADqbnoPNftJzmaaFAuFyV2mevB/8PmBPGE4tWvjS66NuJ2ytPxhgrpnYK7edUbzFObjhugV7o5hX+fn3fhB+H4jse9xAGFy1bO0Fvd5TU8ax3q1x0Mgs/r2bvWSeJxYkUqGhALF0/2PVtQepItBpG2LoOFRBU1iSGzAjd+uFwmCGHdPesHTtSrGIS/SF1rBhm5CwC6ALX6EaaM/pPeIFgGPIkSHx8rVoiVdX2QJAdBhKtdwnHpYjQ8X2S6iNtEuChSjo8XoVqgSyl4rKJMLpfwouLFnt796JJLhjRKjhD3YAyPbiHquWnfnvNSG3FScMTWX0/RiH/NZE82vWSWGAj2dA6eJ/RPWnFp8gXtErK+ng1xr/fvwLG6nTIii5PtKrVvGdJBw1uppVQzoQaKhMdwTCqGK8/cWBjHCuchSuIwq2ev8igZkgU+VDlQaVg7LnDQLAzkiiOGOUZbzxyar62ck7rGTreM6My1DMxe66LKo6hLetWAI8SCLUP7+42HPdAJ1UtTJmh7gCADXYHErlyVK1qreBKmjNsC9p1HJJH4BODhaD/Rkvkz5bsPAUtpmlTBjxH65rRFYYpHmPm9aHQDrSujY9PeHzbLJPX9w10o8LfAF18QlyMbtdXO8nU1DKSyzqv7Z4IqYyK+oSgF0b7riUbtyuyG9SSOA8T9vsxewDGWoilGD+9ttu0nSLfYiAyJ+OoqBamcrDqGep6RphdS2WoB8H57VCzVDpi5uGosIQd8g6VLXhibQYZfs801a2uPW7JRBN7LNMynaC83PfsVsa6GC/WT2m45x5j/LpDLq9PdfUnXwHu4GdyZINtAkpWRgmxDw/Jz2nuqHvw8TAsQlbKmWtCSQrPRVYt0p5j2PHoopy4inz4AMkfwFifgyzn4/744VT0pGV22bnq0o3djLVlBhsJLu09TDNRGb3wqN1kg0P6skgNrVXIKig9XZrxaqactppb1Bh2kIYMnW85TzhefllJJzD+K49Cd/JREO+fESIeCB1txCnHLuVcZT+E3zPVfZztz6OVjs27TwRWJXi/X8Z7ewdWaugZUv5d1nqWyNdZiIAgTLdwH0OXj/4zG2uH74/L9S9YCh24zoSD2bgI7mq8qtRn0lXeldL9F+NK0g/RGoPHLdXAC1bNrTYPQpSEE0wXtgmP5Znn7IgNfxjgStQREXkchg+k+ASt7FKMGZ4bmY6YkjIla+aDJhvCQsgxEdOrlBc/Gd366ZfzQCvW44ZDooD3r6dv9y5wtT61wFSknA/yb2EVxPehq0mXrt4+nCKetlRVYBBIhWjPo+b+R5gGPhuq1d4zqGljaoGUVISJEw8a0mBcmwiZS6FT+3tr4m9QNGM0Mtl0fDUvziyWDbYZKlkTh4UkNHEmXQ6PobkjtmeNWJkSRGChBOVRa/WzmksbTd76le/Ckeg+fKzQukNXdKlvQie5msaxZd3T2GDhNSoqP70zvueJWgJSqM0X5LRwkni0J0mP67fC1/p/hFffwpX6YBX5foLx8F8ZacJYXKNHts5L1fWmwknY1KEwfNrjv5ryQvRzI1bS/RgzP7OTQo3Len3/iUbtBuhlMr7dSZmeE234NuD3OT74h9La5h93FqqmAskQnPrg8ZyJsHV5I+TC+CSM9q7620ktsKNCaUUJNpOoRvxk41qT/Y1jLv4bNxVz0cX7eHaPxaIkizDbIdzLoYy3t/xG6FiJ9P0YVrnDUj1JHc/jaZY09SvXoOKjFqA5hA4EnsJOWMrAhYPCc2fgOSzm85rhA9IR79RReZKH1zdAR46cYputpoXfW0lnAquLOvmodRVE4Flg1deIc6XueWCD3Yl6Fp0I8RamKMyieUVTsRDK81kkWWZFUQaGmtEtZ/Fb1/wdWwK6+t6Aj9LzeOGOwWzsTWiRbsIKVu9ifu0OfMjgzCNepOFetMSjBCHCrWzlOGZM94pC6/HcjI/XZ/h4TSLpb0BZDbQrgLE7eTviXg/njLJTnKfweeRHi09OgOPaDhjfd0xLa6xZhPgH8BuGMfO/o0JQh9/rmHuNsuWPjEqGWzxhmjedkUblQrutvcjfA/8dkHMX+QObgQcWk8HKW5kIauhJaD80ipZ0He2s/wxYN2G5S1V59kGuf4fTotyrTMidSJkvVAWxxOplyKKmt83DEMDnwB+G04dnRL8VOrah0XB557xpc961RrQuv288y17fPaZkheIaPHMbUM6pRAH1LL4FPLcCzzo8y1NQ1nKMxado+EaEZSRsUKLeb69vnqmM0SLVsrhCPAxZXRhCqIb8u41fKPhPOCP266wUBNXKfakJbLBTg6s9rmptY027hOaOPh4/ODdwMBAQ8p94Uf4R86epBRR6BOn6HAZ3LV6m9lZtj3R1qZYVbaw5CzTqgwLDLQ5HWaPwexUOMt/H6mA+0zmqXVm5Vbe4KkfcbenJ3kG/bUUDaZ5JoH0M5cEYCXSlYT1lwoezD9aAV3wkFrKwWkFr69ONeE4uBR0MGqaCqWVNzYIyOE2rFxiVPyGUs4zq8pyAHoXNKPtW6ld4QjcnKjMeVnHS1WrIqWTtvy/cJWpFK+R77bQfWZEA/zthHK8EHvigo3dByC8gYzWmxqlu+//F+T8wp8VqmAH3VmGm4173CEL/tL1s80qNWgNa8SZpzrsB67qTqxw06hnEQLvCUCwjl2syZL0lzJv69Sg1fCm0+rBcoi4ivXCAbJdrLQ122/Oil7K5vXw8p0kEYz30QcfDMN8N/ZTBnIif8oB+FJifhDHn6JW6qQMfRt47QK+W6VQr6e01lUZt7zmsZCpobwAN8FRToggLF2FMWNMux7jwpTgHLj2C2xPWU8g3e6SELzVUso13T/vENF1F9vVcD5r/wxneFWN1tX0RtIECNAbwHHX8ZB9UinuEcVOuwgyd6yD7O/j1B16fQOZ7sTDOcXg0HjLyCrUWu0nQsK9AWM7I0W8TcrMokzELM7I8jHuk6UnUBC9IuebqI6A2odfEA9Rn1CrsroWPAgdGgBFgBBgBRqA7Au7ul3yVPgSMWveDVFC4iC4Zat3ySJ9AXBIjwAgwAoxAFiPABju9N0d189Vic5tFdPnIZ027f9IrD5fGCDACjAAjkCMIsMFO6Y1S04XgYUxYQN+F3+hR6+kMER6vmpfSgpk5I8AIMAKMQC9DgA22ozcU0x9ILcQh34CR/hv1G/h3mj0Y3r8cGAFGgBFgBBiB5BBgg50ofsaKY4Z3ZgOyboJn4CbS9E3kcW+ib4yo527uRAFlekaAEWAEGIF4EGAvcSuUljQdh/V7sAuOq5k0rKE7sG8zBQ5pYS9uK8A4nhFgBBgBRiCVCPw/+vmC4A+QYm4AAAAASUVORK5CYII=;" vertex="1" parent="1">
          <mxGeometry x="360" y="148" width="70.29" height="20" as="geometry" />
        </mxCell>
        <mxCell id="4GYh9d1XmSdqZsPijuMS-168" value="" style="strokeColor=#dddddd;shadow=1;strokeWidth=1;rounded=1;absoluteArcSize=1;arcSize=2;" vertex="1" parent="1">
          <mxGeometry x="420" y="281" width="100" height="44" as="geometry" />
        </mxCell>
        <mxCell id="4GYh9d1XmSdqZsPijuMS-169" value="Gateway" style="dashed=0;connectable=0;html=1;fillColor=#757575;strokeColor=none;shape=mxgraph.gcp2.gateway;part=1;labelPosition=right;verticalLabelPosition=middle;align=left;verticalAlign=middle;spacingLeft=5;fontSize=12;" vertex="1" parent="4GYh9d1XmSdqZsPijuMS-168">
          <mxGeometry y="0.5" width="32" height="32" relative="1" as="geometry">
            <mxPoint x="5" y="-16" as="offset" />
          </mxGeometry>
        </mxCell>
      </root>
    </mxGraphModel>
  </diagram>
  <diagram id="YKn3jUYvfeeyg0Uo9QDq" name="Page-2">
    <mxGraphModel dx="1426" dy="842" grid="1" gridSize="10" guides="1" tooltips="1" connect="1" arrows="1" fold="1" page="1" pageScale="1" pageWidth="850" pageHeight="1100" math="0" shadow="0">
      <root>
        <mxCell id="wycD591nMWxJo0nDUt0m-0" />
        <mxCell id="wycD591nMWxJo0nDUt0m-1" parent="wycD591nMWxJo0nDUt0m-0" />
        <mxCell id="KWQ4xnJLnPjV0gg7NQpi-2" value="Docker Cluster" style="points=[[0,0,0],[0.25,0,0],[0.5,0,0],[0.75,0,0],[1,0,0],[1,0.25,0],[1,0.5,0],[1,0.75,0],[1,1,0],[0.75,1,0],[0.5,1,0],[0.25,1,0],[0,1,0],[0,0.75,0],[0,0.5,0],[0,0.25,0]];rounded=1;absoluteArcSize=1;arcSize=2;html=1;strokeColor=none;gradientColor=none;shadow=0;dashed=0;fontSize=12;fontColor=#9E9E9E;align=left;verticalAlign=top;spacing=10;spacingTop=-4;fillColor=#F1F8E9;" vertex="1" parent="wycD591nMWxJo0nDUt0m-1">
          <mxGeometry x="40" y="384" width="380" height="666" as="geometry" />
        </mxCell>
        <mxCell id="KWQ4xnJLnPjV0gg7NQpi-48" value="Authentication Services" style="points=[[0,0,0],[0.25,0,0],[0.5,0,0],[0.75,0,0],[1,0,0],[1,0.25,0],[1,0.5,0],[1,0.75,0],[1,1,0],[0.75,1,0],[0.5,1,0],[0.25,1,0],[0,1,0],[0,0.75,0],[0,0.5,0],[0,0.25,0]];rounded=1;absoluteArcSize=1;arcSize=2;html=1;strokeColor=none;gradientColor=none;shadow=0;dashed=0;fontSize=12;fontColor=#9E9E9E;align=left;verticalAlign=top;spacing=10;spacingTop=-4;fillColor=#F3E5F5;" vertex="1" parent="wycD591nMWxJo0nDUt0m-1">
          <mxGeometry x="100" y="909" width="300" height="130" as="geometry" />
        </mxCell>
        <mxCell id="KWQ4xnJLnPjV0gg7NQpi-50" value="Compute Services" style="points=[[0,0,0],[0.25,0,0],[0.5,0,0],[0.75,0,0],[1,0,0],[1,0.25,0],[1,0.5,0],[1,0.75,0],[1,1,0],[0.75,1,0],[0.5,1,0],[0.25,1,0],[0,1,0],[0,0.75,0],[0,0.5,0],[0,0.25,0]];rounded=1;absoluteArcSize=1;arcSize=2;html=1;strokeColor=none;gradientColor=none;shadow=0;dashed=0;fontSize=12;fontColor=#9E9E9E;align=left;verticalAlign=top;spacing=10;spacingTop=-4;fillColor=#FFF8E1;" vertex="1" parent="wycD591nMWxJo0nDUt0m-1">
          <mxGeometry x="100" y="420" width="300" height="430" as="geometry" />
        </mxCell>
        <mxCell id="KWQ4xnJLnPjV0gg7NQpi-57" value="Workload" style="fontStyle=0;verticalAlign=top;align=center;spacingTop=-2;fillColor=none;rounded=0;whiteSpace=wrap;html=1;strokeColor=#919191;strokeWidth=2;dashed=1;container=1;collapsible=0;expand=0;recursiveResize=0;fontFamily=Roboto;fontColor=#666666;" vertex="1" parent="wycD591nMWxJo0nDUt0m-1">
          <mxGeometry x="110" y="560" width="280" height="270" as="geometry" />
        </mxCell>
        <mxCell id="KWQ4xnJLnPjV0gg7NQpi-3" value="VM / Baremetal" style="points=[[0,0,0],[0.25,0,0],[0.5,0,0],[0.75,0,0],[1,0,0],[1,0.25,0],[1,0.5,0],[1,0.75,0],[1,1,0],[0.75,1,0],[0.5,1,0],[0.25,1,0],[0,1,0],[0,0.75,0],[0,0.5,0],[0,0.25,0]];rounded=1;absoluteArcSize=1;arcSize=2;html=1;strokeColor=none;gradientColor=none;shadow=0;dashed=0;fontSize=12;fontColor=#9E9E9E;align=left;verticalAlign=top;spacing=10;spacingTop=-4;fillColor=#E1F5FE;" vertex="1" parent="wycD591nMWxJo0nDUt0m-1">
          <mxGeometry x="590" y="340" width="280" height="490" as="geometry" />
        </mxCell>
        <mxCell id="3rX0NMMkQx8urxFPQjhC-0" value="External Data&#xa;Sources" style="points=[[0,0,0],[0.25,0,0],[0.5,0,0],[0.75,0,0],[1,0,0],[1,0.25,0],[1,0.5,0],[1,0.75,0],[1,1,0],[0.75,1,0],[0.5,1,0],[0.25,1,0],[0,1,0],[0,0.75,0],[0,0.5,0],[0,0.25,0]];rounded=1;absoluteArcSize=1;arcSize=2;html=1;strokeColor=none;gradientColor=none;shadow=0;dashed=0;fontSize=12;fontColor=#9E9E9E;align=left;verticalAlign=top;spacing=10;spacingTop=-4;fillColor=#FFF8E1;" vertex="1" parent="wycD591nMWxJo0nDUt0m-1">
          <mxGeometry x="500" y="210" width="120" height="70" as="geometry" />
        </mxCell>
        <mxCell id="KWQ4xnJLnPjV0gg7NQpi-15" value="" style="group" vertex="1" connectable="0" parent="wycD591nMWxJo0nDUt0m-1">
          <mxGeometry x="615" y="630" width="110" height="44" as="geometry" />
        </mxCell>
        <mxCell id="wycD591nMWxJo0nDUt0m-8" value="" style="strokeColor=#dddddd;shadow=1;strokeWidth=1;rounded=1;absoluteArcSize=1;arcSize=2;" vertex="1" parent="KWQ4xnJLnPjV0gg7NQpi-15">
          <mxGeometry width="110" height="44" as="geometry" />
        </mxCell>
        <mxCell id="wycD591nMWxJo0nDUt0m-6" value="" style="shape=image;verticalLabelPosition=bottom;labelBackgroundColor=#ffffff;verticalAlign=top;aspect=fixed;imageAspect=0;image=data:image/svg+xml,PHN2ZyB4bWxuczpkYz0iaHR0cDovL3B1cmwub3JnL2RjL2VsZW1lbnRzLzEuMS8iIHhtbG5zOmNjPSJodHRwOi8vY3JlYXRpdmVjb21tb25zLm9yZy9ucyMiIHhtbG5zOnJkZj0iaHR0cDovL3d3dy53My5vcmcvMTk5OS8wMi8yMi1yZGYtc3ludGF4LW5zIyIgeG1sbnM6c3ZnPSJodHRwOi8vd3d3LnczLm9yZy8yMDAwL3N2ZyIgeG1sbnM9Imh0dHA6Ly93d3cudzMub3JnLzIwMDAvc3ZnIiB4bWxuczpzb2RpcG9kaT0iaHR0cDovL3NvZGlwb2RpLnNvdXJjZWZvcmdlLm5ldC9EVEQvc29kaXBvZGktMC5kdGQiIHhtbG5zOmlua3NjYXBlPSJodHRwOi8vd3d3Lmlua3NjYXBlLm9yZy9uYW1lc3BhY2VzL2lua3NjYXBlIiB3aWR0aD0iOTguMDU4OTk4bW0iIGhlaWdodD0iODcuMzA5OTk4bW0iIHZpZXdCb3g9IjAgMCA5OC4wNTkwMDIgODcuMzA5OTk4IiB2ZXJzaW9uPSIxLjEiIGlkPSJzdmc2MiIgaW5rc2NhcGU6dmVyc2lvbj0iMS4wLjEgKGM0OTdiMDNjLCAyMDIwLTA5LTEwKSIgc29kaXBvZGk6ZG9jbmFtZT0iY2lyY2xlX2dvSGFyYm9yLnN2ZyI+JiN4YTsgIDxkZWZzIGlkPSJkZWZzNTYiPiYjeGE7ICAgIDxpbmtzY2FwZTpwYXRoLWVmZmVjdCBlZmZlY3Q9ImZpbGxldF9jaGFtZmVyIiBpZD0icGF0aC1lZmZlY3QxMDg4IiBpc192aXNpYmxlPSJ0cnVlIiBscGV2ZXJzaW9uPSIxIiBzYXRlbGxpdGVzX3BhcmFtPSJGLDAsMCwxLDAsMCwwLDEgQCBGLDAsMCwxLDAsMCwwLDEgQCBGLDAsMCwxLDAsMCwwLDEgQCBGLDAsMCwxLDAsMCwwLDEgQCBGLDAsMCwxLDAsMCwwLDEgQCBGLDAsMCwxLDAsMCwwLDEiIHVuaXQ9InB4IiBtZXRob2Q9ImF1dG8iIG1vZGU9IkYiIHJhZGl1cz0iMCIgY2hhbWZlcl9zdGVwcz0iMSIgZmxleGlibGU9ImZhbHNlIiB1c2Vfa25vdF9kaXN0YW5jZT0idHJ1ZSIgYXBwbHlfbm9fcmFkaXVzPSJ0cnVlIiBhcHBseV93aXRoX3JhZGl1cz0idHJ1ZSIgb25seV9zZWxlY3RlZD0iZmFsc2UiIGhpZGVfa25vdHM9ImZhbHNlIi8+JiN4YTsgICAgPGlua3NjYXBlOnBhdGgtZWZmZWN0IGVmZmVjdD0iZmlsbGV0X2NoYW1mZXIiIGlkPSJwYXRoLWVmZmVjdDEwNjgiIGlzX3Zpc2libGU9InRydWUiIGxwZXZlcnNpb249IjEiIHNhdGVsbGl0ZXNfcGFyYW09IkYsMCwwLDEsMCwwLDAsMSBAIEYsMCwwLDEsMCwzLjkxMTYzODEsMCwxIEAgRiwwLDAsMSwwLDAsMCwxIEAgRiwwLDAsMSwwLDEuMDgyOTc5NSwwLDEgQCBGLDAsMCwxLDAsMCwwLDEgQCBGLDAsMCwxLDAsMCwwLDEgQCBGLDAsMCwxLDAsMy4yMzUwNTk1LDAsMSBAIEYsMCwwLDEsMCwwLDAsMSBAIEYsMCwwLDEsMCwzLjIwOTAxMjgsMCwxIEAgRiwwLDAsMSwwLDAsMCwxIEAgRiwwLDAsMSwwLDMuNDg3ODExNywwLDEgQCBGLDAsMCwxLDAsMCwwLDEgQCBGLDAsMCwxLDAsMy43MTUxNzIsMCwxIEAgRiwwLDAsMSwwLDAsMCwxIEAgRiwwLDAsMSwwLDAsMCwxIiB1bml0PSJweCIgbWV0aG9kPSJhdXRvIiBtb2RlPSJGIiByYWRpdXM9IjAiIGNoYW1mZXJfc3RlcHM9IjEiIGZsZXhpYmxlPSJmYWxzZSIgdXNlX2tub3RfZGlzdGFuY2U9InRydWUiIGFwcGx5X25vX3JhZGl1cz0idHJ1ZSIgYXBwbHlfd2l0aF9yYWRpdXM9InRydWUiIG9ubHlfc2VsZWN0ZWQ9ImZhbHNlIiBoaWRlX2tub3RzPSJmYWxzZSIvPiYjeGE7ICA8L2RlZnM+JiN4YTsgIDxzb2RpcG9kaTpuYW1lZHZpZXcgaWQ9ImJhc2UiIHBhZ2Vjb2xvcj0iI2ZmZmZmZiIgYm9yZGVyY29sb3I9IiM2NjY2NjYiIGJvcmRlcm9wYWNpdHk9IjEuMCIgaW5rc2NhcGU6cGFnZW9wYWNpdHk9IjAuMCIgaW5rc2NhcGU6cGFnZXNoYWRvdz0iMiIgaW5rc2NhcGU6em9vbT0iMS42MTYwMjU3IiBpbmtzY2FwZTpjeD0iMzEuNjQ1ODE2IiBpbmtzY2FwZTpjeT0iMTc1Ljk0ODgzIiBpbmtzY2FwZTpkb2N1bWVudC11bml0cz0ibW0iIGlua3NjYXBlOmN1cnJlbnQtbGF5ZXI9ImxheWVyMSIgaW5rc2NhcGU6ZG9jdW1lbnQtcm90YXRpb249IjAiIHNob3dncmlkPSJmYWxzZSIgaW5rc2NhcGU6c25hcC1nbG9iYWw9InRydWUiIGlua3NjYXBlOndpbmRvdy13aWR0aD0iMTgyOSIgaW5rc2NhcGU6d2luZG93LWhlaWdodD0iOTY3IiBpbmtzY2FwZTp3aW5kb3cteD0iNDciIGlua3NjYXBlOndpbmRvdy15PSIxMDMiIGlua3NjYXBlOndpbmRvdy1tYXhpbWl6ZWQ9IjAiLz4mI3hhOyAgPG1ldGFkYXRhIGlkPSJtZXRhZGF0YTU5Ij4mI3hhOyAgICA8cmRmOlJERj4mI3hhOyAgICAgIDxjYzpXb3JrIHJkZjphYm91dD0iIj4mI3hhOyAgICAgICAgPGRjOmZvcm1hdD5pbWFnZS9zdmcreG1sPC9kYzpmb3JtYXQ+JiN4YTsgICAgICAgIDxkYzp0eXBlIHJkZjpyZXNvdXJjZT0iaHR0cDovL3B1cmwub3JnL2RjL2RjbWl0eXBlL1N0aWxsSW1hZ2UiLz4mI3hhOyAgICAgICAgPGRjOnRpdGxlLz4mI3hhOyAgICAgIDwvY2M6V29yaz4mI3hhOyAgICA8L3JkZjpSREY+JiN4YTsgIDwvbWV0YWRhdGE+JiN4YTsgIDxnIGlua3NjYXBlOmxhYmVsPSJMYXllciAxIiBpbmtzY2FwZTpncm91cG1vZGU9ImxheWVyIiBpZD0ibGF5ZXIxIiBzdHlsZT0iZGlzcGxheTppbmxpbmUiPiYjeGE7ICAgIDxjaXJjbGUgc3R5bGU9ImZpbGw6IzAzOGVjZDtmaWxsLW9wYWNpdHk6MTtmaWxsLXJ1bGU6ZXZlbm9kZDtzdHJva2Utd2lkdGg6MC4yNjQ1ODMiIGlkPSJwYXRoMzQiIGN4PSI0OS4zNjI5OTkiIGN5PSI0My43OTYzNTYiIHI9IjQzLjQ2ODkxIi8+JiN4YTsgICAgPGcgc3R5bGU9ImZpbGw6I2ZmZmZmZjtmaWxsLW9wYWNpdHk6MSIgaWQ9Imc5MDMiIHRyYW5zZm9ybT0ibWF0cml4KDIuMTE2NjY2NywwLDAsMi4xMTY2NjY3LDE0Ljk5NjcwMywxMy45NzE2MzgpIj4mI3hhOyAgICAgIDxwYXRoIGQ9Im0gMTcuNTgyLDUuOTk2IGMgMCwwIDAsMCAwLDAgMCwwIDAsMCAwLDAgbSAtMC4wMDEsMCBDIDIxLjk0Niw2LjA2NSAyMyw4LjYxNCAyMywxMCBjIC0xLjI1NywwLjEwNSAtMi4zMDYsMC4xNTkgLTIuNzcsMC44OTggLTEuMDU5LDEuNjg3IC0wLjI2Niw0LjUzOCAwLjQ3OCw1LjgyMiAwLjA4LDAuMTM4IDAuOTQ2LDAuOTU3IDEuMjkyLDEuMjggMC4xMjYsMC4xMTggLTAuNDYsMC4yNzYgLTAuNTgsMC40IC0wLjMzNSwwLjM0OCAtMC4zMywxLjQwMSAtMC40LDIuNTg3IEMgMjEuMDA3LDIwLjk5NSAyMSwyMSAyMSwyMSBjIDAsMCAwLjAwNSwwLjExIDAuMDExLDAuMjYxIEMgMjEuMDA4LDIxLjM3NCAyMSwyMS40NzcgMjEsMjEuNiB2IDIuMDE2IEMgMjEsMjYuMTI0IDE5LjYwMywyNyAxOC40MzgsMjcgMTcuMjAxLDI3IDE2LjEzNiwyNS45OSAxNi4xMzYsMjUuMTMzIDE2LjEzNiwyNC42MyAxNi4wNTUsMjMuNzcxIDE2LDIzIGMgMC4wMTMsLTEuNzc3IDAsLTIuNDIyIDAsLTMgMCwtMC41NTkgLTEsLTEgLTEsLTEgMC4xMjUsLTAuMjkyIDAuNTMsLTAuODkyIDAuNTMsLTAuODkyIEMgMTUuODM0LDE3LjM1MSAxNS45OTQsMTYuNjMxIDE2LDE1IDE2LjAwMywxNC4yNTQgMTUuOTAyLDEzLjQ0IDE1LjY5MSwxMi41MDkgMTUuNDAzLDExLjI0IDE0LjQ0LDEwLjAxIDEzLDEwIGMgLTAuMDA5LDAgLTAuMDE4LDAgLTAuMDI3LDAgLTAuNTg1LDAgLTAuNTE1LDAgLTAuOTczLDAgMCwtMiAyLjY2NSwtNC4wMDQgNS41ODEsLTQuMDA0IG0gMCwwIGMgMCwwIDAsMCAwLDAgMCwwIDAsMCAwLDAgbSAwLC0yIEMgMTMuNTQzLDMuOTk2IDEwLDYuODAyIDEwLDEwIGMgMCwxLjEwNSAwLjg5NSwyIDIsMiBoIDAuNDIgMC41NTMgYyAwLjM4NSwwLjAwMyAwLjY3OCwwLjU1OCAwLjc2NywwLjk1MSAwLjE3NywwLjc4MSAwLjI2MiwxLjQ0OSAwLjI2LDIuMDQxIC0wLjAwNSwxLjI3MSAtMC4xMTEsMS43ODQgLTAuMjU5LDIuMTk0IC0wLjE5MiwwLjI5NSAtMC40NDEsMC43MDIgLTAuNTgsMS4wMjYgLTAuNDA0LDAuOTQyIC0wLjAyOCwyLjAyNCAwLjg0MiwyLjUyMiAwLjAwMywwLjQ4MiAwLjAwNSwxLjE0NSAtMC4wMDMsMi4yNTEgMCwwLjA1MiAxMGUtNCwwLjEwNSAwLjAwNSwwLjE1NyBsIDAuMDQ4LDAuNjM3IGMgMC4wNDEsMC41MjIgMC4wODMsMS4wNjIgMC4wODMsMS4zNTMgMCwyLjAyNCAyLjA1MSwzLjg2NyA0LjMwMiwzLjg2NyBDIDIwLjYzNSwyOSAyMywyNy4zMTUgMjMsMjMuNjE2IFYgMjEuNiBjIDAsLTAuMDQ4IDAuMDAzLC0wLjA5MSAwLjAwNCwtMC4xMzQgbCAwLjAwNiwtMC4xNDQgYyAxMGUtNCwtMC4wNDUgMTBlLTQsLTAuMDg5IDAsLTAuMTM0IDAuMDAzLC0wLjAyOCAwLjAwNSwtMC4wNTYgMC4wMDcsLTAuMDg1IGwgMC4wMjksLTAuNTQ4IGMgMC4wMTIsLTAuMjUgMC4wMjgsLTAuNTU0IDAuMDQ4LC0wLjgwMiAwLjM3NSwtMC4yNjEgMC43ODQsLTAuNjkgMC44OTgsLTEuMzkyIDAuMTA3LC0wLjY1OSAtMC4xNCwtMS4zNjkgLTAuNjI4LC0xLjgyNCAtMC40MDEsLTAuMzczIC0wLjgxNiwtMC43NzQgLTEuMDA4LC0wLjk3IC0wLjUxNCwtMC45OTMgLTAuODE5LC0yLjYzMiAtMC41MiwtMy40MjUgMC4yNzMsLTAuMDYxIDAuNzc2LC0wLjEwMyAxLjE2MywtMC4xMzUgbCAwLjE2OCwtMC4wMTQgQyAyNC4yMDMsMTEuOTA3IDI1LDExLjA0IDI1LDEwIDI1LDcuOTY0IDIzLjQ1Niw0LjA4OSAxNy42MTMsMy45OTcgYyAtMC4wMTEsMCAtMC4wMjEsLTEwZS00IC0wLjAzMiwtMTBlLTQgeiIgaWQ9InBhdGg4ODYiIHN0eWxlPSJmaWxsOiNmZmZmZmY7ZmlsbC1vcGFjaXR5OjEiLz4mI3hhOyAgICAgIDxwYXRoIGQ9Im0gOS4zMjUsNC45OTQgYyAxLjMzOSwwIDIuMzYxLDAuMjk0IDMuMjcxLDAuNjM2IC0yLjE1LDEuMDE5IC0yLjU5NSwzLjE2MyAtMi41OTUsNS4zNjkgMCwwLjAwMiAwLjAwMSwwLjAwNCAwLjAwMSwwLjAwNiAwLDAuMDA1IC0wLjAwMiwwLjAwOSAtMC4wMDIsMC4wMTQgLTEwZS00LDAuMDg4IDAuMDI5LDAuMjQ3IDAuMDI5LDAuNDYyIEMgMTAuMDI5LDEyLjUgMTAsMTQuNzEgMTAsMTYgYyAwLDIuMjAxIDIuMzUyLDQuMDAzIDIuOTYyLDQuMDAzIDAuMDE0LDAgMC4wMjYsLTAuMDAxIDAuMDM4LC0wLjAwMyAtMS4xNjcsMC42NjcgLTIuOTE3LDEgLTMuOTk5LDEgQyA2LjM0NywyMSA1LjA4NiwxMS42MzggNSwxMCA0Ljc3MSw1LjYzNiA2LjY0Niw1LjA4MiA5LDUgOS4xMTEsNC45OTYgOS4yMTksNC45OTQgOS4zMjUsNC45OTQgbSAwLC0yIGMgMCwwIC0xMGUtNCwwIDAsMCAtMC4xMywwIC0wLjI2MSwwLjAwMiAtMC4zOTUsMC4wMDcgQyA3LjQxMywzLjA1NCA1LjY5MywzLjI5MyA0LjQzLDQuNjcxIDMuMzQsNS44NiAyLjg3Myw3LjYzOCAzLjAwMiwxMC4xMDQgMy4wNDksMTAuOTkyIDMuMzksMTMuODY0IDQuMSwxNi42MTQgNC44MDksMTkuMzU1IDYuMDg4LDIzIDkuMDAxLDIzIGMgMS4zODQsMCAzLjQ2NSwtMC4zOTEgNC45OTIsLTEuMjYzIDAuODM3LC0wLjQ3OCAxLjIxNCwtMS40ODYgMC44OTYsLTIuMzk2IC0wLjI0MiwtMC42OTMgLTAuODM1LC0xLjE4IC0xLjUyNSwtMS4zMDggQyAxMi45MywxNy43NTcgMTIsMTYuODMxIDEyLDE2IGMgMCwtMC42NzggMC4wMDgsLTEuNjEzIDAuMDE2LC0yLjQ5MiAwLjAwNywtMC43OTQgMC4wMTMsLTEuNTQzIDAuMDEzLC0yLjAyNiAwLC0wLjIwMyAtMC4wMTUsLTAuMzc0IC0wLjAyOCwtMC41MSAwLC0wLjAwOSAwLC0wLjAxNyAtMTBlLTQsLTAuMDI2IEMgMTIuMDEsOC40NjQgMTIuNzAzLDcuNzkzIDEzLjQ1Miw3LjQzOCAxNC4xNzgsNy4wOTQgMTQuNjI3LDYuMzUgMTQuNTk0LDUuNTQ4IDE0LjU2MSw0Ljc0NSAxNC4wNTEsNC4wNCAxMy4zLDMuNzU4IDEyLjM1MywzLjQwMiAxMS4wNDYsMi45OTQgOS4zMjUsMi45OTQgWiBtIDEzLjI4LDEuOTc4IGMgMC45ODUsMCAyLjkyNSwwLjE5OSAzLjg5MywxLjY1NCBDIDI3LjcxMyw4LjQ1NSAyNi41NDIsMTguNDE3IDIzLDE5IGMgMC45MTcsLTAuMjkyIDEuODMzLC0wLjI5MiAyLC0zIDAsLTAuODMzIC0wLjA0NiwtMy42MTkgMCwtNCAwLjA2MywtMC41MTggMC4wMTksLTEuNDQ4IDAsLTIgQyAyNS4wMTUsOS45MjcgMjUuMDE0LDkuODQ4IDI1LjAxNCw5Ljc1NSAyNS4wMTQsNi45MTIgMjIsNSAyMiw1IDIyLDUgMjIuMjM1LDQuOTcyIDIyLjYwNSw0Ljk3MiBtIDAsLTIgYyAtMC40NjQsMCAtMC43ODEsMC4wMzUgLTAuODQsMC4wNDIgLTAuODQsMC4xIC0xLjUyNywwLjcxNyAtMS43MTUsMS41NDIgLTAuMTg4LDAuODI1IDAuMTY0LDEuNjc5IDAuODc5LDIuMTMyIDAuMDExLDAuMDA4IDIuMDg1LDEuNDA0IDIuMDg1LDMuMDY2IDAsMCAwLDAuMDA1IDAsMC4wMTEgLTAuMDEyLDAuMSAtMC4wMTYsMC4yMDIgLTAuMDEyLDAuMzAzIGwgMC4wMDcsMC4xOTQgYyAwLjAxNCwwLjM4NiAwLjA0NCwxLjE4OSAwLjAwNywxLjQ5NCAtMC4wNCwwLjMyNSAtMC4wNDQsMC45NDggLTAuMDIzLDMuMTc2IEMgMjIuOTk2LDE1LjM3OSAyMywxNS43NjcgMjMsMTYgYyAwLDAuNTc3IDAuMTcxLDAuOTI3IDAsMSBsIC0wLjc1LDEuNSBjIC0wLjE1NCwwLjMwOCAtMC4yMDksMC42NTcgLTAuMTU4LDAuOTk5IDAuMTEzLDAuNzY3IDAuMTU4LDEuNTAxIDAuOTA1LDEuNTAxIDAuMTA4LDAgMC4yMTgsLTAuMDA5IDAuMzI4LC0wLjAyNyAxLjE5LC0wLjE5NiAyLjg3MywtMS4wMzggNC4xMzMsLTMuOTMzIEMgMjguOTQ3LDEzLjYxNyAyOS41NjUsNy42MjggMjguMTYyLDUuNTE5IDI2LjY4OSwzLjMwMyAyNC4wNDgsMi45NzIgMjIuNjA1LDIuOTcyIFoiIGlkPSJwYXRoODg4IiBzdHlsZT0iZmlsbDojZmZmZmZmO2ZpbGwtb3BhY2l0eToxIi8+JiN4YTsgICAgICA8cGF0aCBkPSJtIDI2LjM2LDIwLjEyNiBjIC0xLjUwMSwwLjM1OSAtMi4yMjMsMC4xNjggLTIuNTczLC0wLjA4MiAtMC4wNTYsMC4wNDcgLTIuODUsLTAuNjI1IC0xLjc4OCwyIDAuMDQ3LDAuMDEgMS4zODQsLTAuMDA0IDEuMzg0LC0wLjAwNCAwLjc0NCwwLjAzOSAxLjcxNywtMC4yMDIgMi4yODgsLTAuNTEgMS4yMzEsLTAuNjYzIDEuOTAyLC0xLjY5NCAwLjY4OSwtMS40MDQgeiBNIDEzLjg3OCwxMi43MSBDIDEzLjY3NSwxMi44OTEgMTMuMzU0LDEzLjA0OSAxMywxMyAxMi40MjQsMTIuOTIgMTEuOTgyLDEyLjMyIDEyLjAxMywxMi4wOTYgdiAwIGMgMC4wMywtMC4yMjQgMC41MjMsLTAuMzQxIDEuMDk5LC0wLjI2MSAwLjIsMC4wMjggMC4zODIsMC4wNzcgMC41MzUsMC4xMzcgMC40MDksMC4xNzcgMC40NTUsMC40NjkgMC4yMzEsMC43MzggeiBtIDcuMjU1LC0wLjAwOSBjIDAuMjAzLDAuMTgxIDAuNTI1LDAuMzQgMC44NzgsMC4yOSAwLjU3NiwtMC4wOCAxLjAxOCwtMC42OCAwLjk4NywtMC45MDQgdiAwIGMgLTAuMDMsLTAuMjI0IC0wLjUyMywtMC4zNDEgLTEuMDk5LC0wLjI2MSAtMC4yLDAuMDI4IC0wLjM4MiwwLjA3NyAtMC41MzUsMC4xMzcgLTAuNDA4LDAuMTc3IC0wLjQ1NSwwLjQ2OSAtMC4yMzEsMC43MzggeiBNIDE4LDQgYyAwLDAgMS4xMjUsLTEgNCwtMSAyLjg3NSwwIC0xLDIgLTEsMiAwLDAgLTIuMzEyLC0wLjMxMiAtMywtMSB6IE0gMTYsNSBDIDE2LDUgMTMuNTgzLDMgOSwzIHYgMSBsIDUsMiB6IiBpZD0icGF0aDg5MCIgc3R5bGU9ImZpbGw6I2ZmZmZmZjtmaWxsLW9wYWNpdHk6MSIvPiYjeGE7ICAgIDwvZz4mI3hhOyAgPC9nPiYjeGE7ICA8ZyBpbmtzY2FwZTpncm91cG1vZGU9ImxheWVyIiBpZD0ibGF5ZXIyIiBpbmtzY2FwZTpsYWJlbD0iTGF5ZXIgMiIvPiYjeGE7PC9zdmc+;" vertex="1" parent="KWQ4xnJLnPjV0gg7NQpi-15">
          <mxGeometry x="8.000000000000057" y="5.5" width="37.17" height="33" as="geometry" />
        </mxCell>
        <mxCell id="KWQ4xnJLnPjV0gg7NQpi-10" value="Postgres" style="text;html=1;resizable=0;autosize=1;align=left;verticalAlign=middle;points=[];fillColor=none;strokeColor=none;rounded=0;fontFamily=Roboto;fontSource=https%3A%2F%2Ffonts.googleapis.com%2Fcss%3Ffamily%3DRoboto;" vertex="1" parent="KWQ4xnJLnPjV0gg7NQpi-15">
          <mxGeometry x="50" y="12" width="60" height="20" as="geometry" />
        </mxCell>
        <mxCell id="KWQ4xnJLnPjV0gg7NQpi-17" value="" style="group" vertex="1" connectable="0" parent="wycD591nMWxJo0nDUt0m-1">
          <mxGeometry x="615" y="710" width="110" height="44" as="geometry" />
        </mxCell>
        <mxCell id="wycD591nMWxJo0nDUt0m-2" value="" style="strokeColor=#dddddd;shadow=1;strokeWidth=1;rounded=1;absoluteArcSize=1;arcSize=2;" vertex="1" parent="KWQ4xnJLnPjV0gg7NQpi-17">
          <mxGeometry width="110" height="44" as="geometry" />
        </mxCell>
        <mxCell id="wycD591nMWxJo0nDUt0m-10" value="" style="shape=image;verticalLabelPosition=bottom;labelBackgroundColor=#ffffff;verticalAlign=top;aspect=fixed;imageAspect=0;image=data:image/svg+xml,PHN2ZyB4bWxuczpkYz0iaHR0cDovL3B1cmwub3JnL2RjL2VsZW1lbnRzLzEuMS8iIHhtbG5zOmNjPSJodHRwOi8vY3JlYXRpdmVjb21tb25zLm9yZy9ucyMiIHhtbG5zOnJkZj0iaHR0cDovL3d3dy53My5vcmcvMTk5OS8wMi8yMi1yZGYtc3ludGF4LW5zIyIgeG1sbnM6c3ZnPSJodHRwOi8vd3d3LnczLm9yZy8yMDAwL3N2ZyIgeG1sbnM9Imh0dHA6Ly93d3cudzMub3JnLzIwMDAvc3ZnIiB4bWxuczpzb2RpcG9kaT0iaHR0cDovL3NvZGlwb2RpLnNvdXJjZWZvcmdlLm5ldC9EVEQvc29kaXBvZGktMC5kdGQiIHhtbG5zOmlua3NjYXBlPSJodHRwOi8vd3d3Lmlua3NjYXBlLm9yZy9uYW1lc3BhY2VzL2lua3NjYXBlIiB3aWR0aD0iOTguMDU4OTk4bW0iIGhlaWdodD0iODcuMzA5OTk4bW0iIHZpZXdCb3g9IjAgMCA5OC4wNTkwMDIgODcuMzA5OTk4IiB2ZXJzaW9uPSIxLjEiIGlkPSJzdmc2MiIgaW5rc2NhcGU6dmVyc2lvbj0iMS4wLjEgKGM0OTdiMDNjLCAyMDIwLTA5LTEwKSIgc29kaXBvZGk6ZG9jbmFtZT0iY2lyY2xlX2FpcmZsb3cuc3ZnIj4mI3hhOyAgPGRlZnMgaWQ9ImRlZnM1NiI+JiN4YTsgICAgPGlua3NjYXBlOnBhdGgtZWZmZWN0IGVmZmVjdD0iZmlsbGV0X2NoYW1mZXIiIGlkPSJwYXRoLWVmZmVjdDEwODgiIGlzX3Zpc2libGU9InRydWUiIGxwZXZlcnNpb249IjEiIHNhdGVsbGl0ZXNfcGFyYW09IkYsMCwwLDEsMCwwLDAsMSBAIEYsMCwwLDEsMCwwLDAsMSBAIEYsMCwwLDEsMCwwLDAsMSBAIEYsMCwwLDEsMCwwLDAsMSBAIEYsMCwwLDEsMCwwLDAsMSBAIEYsMCwwLDEsMCwwLDAsMSIgdW5pdD0icHgiIG1ldGhvZD0iYXV0byIgbW9kZT0iRiIgcmFkaXVzPSIwIiBjaGFtZmVyX3N0ZXBzPSIxIiBmbGV4aWJsZT0iZmFsc2UiIHVzZV9rbm90X2Rpc3RhbmNlPSJ0cnVlIiBhcHBseV9ub19yYWRpdXM9InRydWUiIGFwcGx5X3dpdGhfcmFkaXVzPSJ0cnVlIiBvbmx5X3NlbGVjdGVkPSJmYWxzZSIgaGlkZV9rbm90cz0iZmFsc2UiLz4mI3hhOyAgICA8aW5rc2NhcGU6cGF0aC1lZmZlY3QgZWZmZWN0PSJmaWxsZXRfY2hhbWZlciIgaWQ9InBhdGgtZWZmZWN0MTA2OCIgaXNfdmlzaWJsZT0idHJ1ZSIgbHBldmVyc2lvbj0iMSIgc2F0ZWxsaXRlc19wYXJhbT0iRiwwLDAsMSwwLDAsMCwxIEAgRiwwLDAsMSwwLDMuOTExNjM4MSwwLDEgQCBGLDAsMCwxLDAsMCwwLDEgQCBGLDAsMCwxLDAsMS4wODI5Nzk1LDAsMSBAIEYsMCwwLDEsMCwwLDAsMSBAIEYsMCwwLDEsMCwwLDAsMSBAIEYsMCwwLDEsMCwzLjIzNTA1OTUsMCwxIEAgRiwwLDAsMSwwLDAsMCwxIEAgRiwwLDAsMSwwLDMuMjA5MDEyOCwwLDEgQCBGLDAsMCwxLDAsMCwwLDEgQCBGLDAsMCwxLDAsMy40ODc4MTE3LDAsMSBAIEYsMCwwLDEsMCwwLDAsMSBAIEYsMCwwLDEsMCwzLjcxNTE3MiwwLDEgQCBGLDAsMCwxLDAsMCwwLDEgQCBGLDAsMCwxLDAsMCwwLDEiIHVuaXQ9InB4IiBtZXRob2Q9ImF1dG8iIG1vZGU9IkYiIHJhZGl1cz0iMCIgY2hhbWZlcl9zdGVwcz0iMSIgZmxleGlibGU9ImZhbHNlIiB1c2Vfa25vdF9kaXN0YW5jZT0idHJ1ZSIgYXBwbHlfbm9fcmFkaXVzPSJ0cnVlIiBhcHBseV93aXRoX3JhZGl1cz0idHJ1ZSIgb25seV9zZWxlY3RlZD0iZmFsc2UiIGhpZGVfa25vdHM9ImZhbHNlIi8+JiN4YTsgICAgPHBhdGggaWQ9InBhdGgwX2ZpbGwiIGQ9Ik0gMS43NDQ5OCA1LjQ3NTMzQyAxLjc0NDk4IDcuMDMzMzUgMS42MjAzNCA3LjU0MDgyIDEuMjk5ODMgNy45MTQ3NEMgMC45NDMxMTkgOC4yMzU5NSAwLjQ4MDAyNCA4LjQxMzU4IDAgOC40MTMzMUwgMC4xMjQ2NDIgOS4zMDM2QyAwLjg2ODg0IDkuMzEzNjYgMS41OTA5NSA5LjA1MDc4IDIuMTU0NTIgOC41NjQ2NkMgMi40NTc3NSA4LjE5NDg3IDIuNjgzNCA3Ljc2NzgxIDIuODE4IDcuMzA4OTNDIDIuOTUyNjEgNi44NTAwNSAyLjk5MzQxIDYuMzY4NzYgMi45Mzc5OCA1Ljg5Mzc3TCAyLjkzNzk4IDBMIDEuNzQ0OTggMEwgMS43NDQ5OCA1LjQzOTcyTCAxLjc0NDk4IDUuNDc1MzNaIi8+JiN4YTsgICAgPHBhdGggaWQ9InBhdGgxX2ZpbGwiIGQ9Ik0gNS41MDIwNCA0Ljc2MzA5QyA1LjUwMjA0IDUuNDMwODEgNS41MDIwNCA2LjAyNzMxIDUuNTU1NDUgNi41NDM2OEwgNC40OTYgNi41NDM2OEwgNC40MjQ3OCA1LjQ4NDIzQyA0LjIwMzE4IDUuODU5MDkgMy44ODYyNyA2LjE2ODU4IDMuNTA2MjggNi4zODEyNUMgMy4xMjYyOCA2LjU5MzkyIDIuNjk2NzUgNi43MDIxOSAyLjI2MTM1IDYuNjk1MDNDIDEuMjI4NjEgNi42OTUwMyAwIDYuMTM0MTUgMCAzLjg0NjA4TCAwIDAuMDQ0NTE0OUwgMS4xOTMgMC4wNDQ1MTQ5TCAxLjE5MyAzLjYwNTdDIDEuMTkzIDQuODQzMjIgMS41NzU4MyA1LjY3MTE5IDIuNjUzMDkgNS42NzExOUMgMi44NzQ3MiA1LjY3MzU4IDMuMDk0NTkgNS42MzE2OCAzLjI5OTgyIDUuNTQ3OTZDIDMuNTA1MDUgNS40NjQyNCAzLjY5MTQ5IDUuMzQwMzkgMy44NDgyMiA1LjE4MzY2QyA0LjAwNDk0IDUuMDI2OTQgNC4xMjg4IDQuODQwNDkgNC4yMTI1MiA0LjYzNTI3QyA0LjI5NjIzIDQuNDMwMDQgNC4zMzgxMyA0LjIxMDE2IDQuMzM1NzUgMy45ODg1M0wgNC4zMzU3NSAwTCA1LjUyODc0IDBMIDUuNTI4NzQgNC43Mjc0OEwgNS41MDIwNCA0Ljc2MzA5WiIvPiYjeGE7ICAgIDxwYXRoIGlkPSJwYXRoMl9maWxsIiBkPSJNIDAuMDUzNDE3OCAyLjI3MjY0QyAwLjA1MzQxNzggMS40NDQ2NiAwLjA1MzQxNzggMC43NjgwMzYgMCAwLjE1MzczMUwgMS4wNjgzNiAwLjE1MzczMUwgMS4xMjE3NyAxLjI2NjZDIDEuMzU5OCAwLjg2NDUzNSAxLjcwMjQ3IDAuNTM0NTk0IDIuMTEzMjUgMC4zMTE5NTRDIDIuNTI0MDQgMC4wODkzMTQ1IDIuOTg3NTQgLTAuMDE3Njc4NiAzLjQ1NDM1IDAuMDAyMzgwOTVDIDUuMDM5MDggMC4wMDIzODA5NSA2LjIzMjA4IDEuMzI4OTIgNi4yMzIwOCAzLjMwNTM4QyA2LjIzMjA4IDUuNjM3OTYgNC43OTg3IDYuNzk1MzUgMy4yNDk1OCA2Ljc5NTM1QyAyLjg1MzA5IDYuODEzMDQgMi40NTg3NCA2LjcyODEgMi4xMDQ2OSA2LjU0ODc0QyAxLjc1MDY0IDYuMzY5MzcgMS40NDg4OCA2LjEwMTY2IDEuMjI4NjEgNS43NzE1MUwgMS4yMjg2MSA1Ljc3MTUxTCAxLjIyODYxIDkuMzMyNjlMIDAuMDUzNDE3OCA5LjMzMjY5TCAwLjA1MzQxNzggMi4yOTkzNUwgMC4wNTM0MTc4IDIuMjcyNjRaTSAxLjIyODYxIDQuMDA4NzJDIDEuMjMxODQgNC4xNzAyNiAxLjI0OTcyIDQuMzMxMTcgMS4yODIwMyA0LjQ4OTQ4QyAxLjM4MzA0IDQuODg0NzkgMS42MTI5OSA1LjIzNTEzIDEuOTM1NDggNS40ODUwNkMgMi4yNTc5OCA1LjczNSAyLjY1NDYxIDUuODcwMjYgMy4wNjI2MiA1Ljg2OTQ0QyA0LjMxNzk0IDUuODY5NDQgNS4wNTY4OSA0Ljg0NTYgNS4wNTY4OSAzLjM1ODhDIDUuMDU2ODkgMi4wNTg5NyA0LjM2MjQ2IDAuOTQ2MDk2IDMuMTA3MTQgMC45NDYwOTZDIDIuNjEwMzYgMC45ODY3NzcgMi4xNDU0OCAxLjIwNzI2IDEuNzk5NjUgMS41NjYyQyAxLjQ1MzgyIDEuOTI1MTQgMS4yNTA3OSAyLjM5NzkgMS4yMjg2MSAyLjg5NTg1TCAxLjIyODYxIDQuMDA4NzJaIi8+JiN4YTsgICAgPHBhdGggaWQ9InBhdGgzX2ZpbGwiIGQ9Ik0gMS4zMTc2NCAwLjAxNzgwNTlMIDIuNzUxMDIgMy44NTQ5OUMgMi45MDIzNyA0LjI4MjMzIDMuMDYyNjIgNC43OTg3IDMuMTY5NDYgNS4xODE1M0MgMy4yOTQxIDQuNzg5OCAzLjQyNzY0IDQuMjkxMjMgMy41ODc5IDMuODI4MjhMIDQuODg3NzMgMC4wMTc4MDU5TCA2LjE0MzA1IDAuMDE3ODA1OUwgNC4zNjI0NiA0LjY0NzM1QyAzLjQ3MjE2IDYuODczMDkgMi45MjkwOCA4LjAyMTU4IDIuMTEgOC43MTYwMUMgMS42OTc0NSA5LjA5MjgzIDEuMTk0NDggOS4zNTY1OCAwLjY0OTkxNyA5LjQ4MTY2TCAwLjM1NjExOSA4LjQ4NDUzQyAwLjczNjg4NiA4LjM1OTQyIDEuMDkwMzggOC4xNjMwNCAxLjM5Nzc3IDcuOTA1ODRDIDEuODMyMSA3LjU1MTg4IDIuMTc2NzggNy4xMDA0NCAyLjQwMzggNi41ODgyQyAyLjQ1MjM5IDYuNDk5NDkgMi40ODU1MSA2LjQwMzE0IDIuNTAxNzMgNi4zMDMzQyAyLjQ5MTYxIDYuMTk1ODYgMi40NjQ1NyA2LjA5MDcgMi40MjE2MSA1Ljk5MTdMIDAgMEwgMS4yOTk4MyAwTCAxLjMxNzY0IDAuMDE3ODA1OVoiLz4mI3hhOyAgICA8cGF0aCBpZD0icGF0aDRfZmlsbCIgZD0iTSAyLjE5MDEzIDBMIDIuMTkwMTMgMS44Njk2MkwgMy44OTk1IDEuODY5NjJMIDMuODk5NSAyLjc1OTkyTCAyLjE5MDEzIDIuNzU5OTJMIDIuMTkwMTMgNi4yNjc2OUMgMi4xOTAxMyA3LjA2ODk2IDIuNDIxNjEgNy41MzE5MSAzLjA4MDQzIDcuNTMxOTFDIDMuMzE0NDIgNy41MzU3NCAzLjU0Nzg5IDcuNTA4OCAzLjc3NDg2IDcuNDUxNzlMIDMuODI4MjggOC4zNDIwOEMgMy40ODc5NCA4LjQ1OTk5IDMuMTI4ODEgOC41MTQzMSAyLjc2ODgyIDguNTAyMzRDIDIuNTMwNDIgOC41MTcyNiAyLjI5MTYxIDguNDgwNDMgMi4wNjg3OCA4LjM5NDM3QyAxLjg0NTk1IDguMzA4MzEgMS42NDQzOCA4LjE3NTA2IDEuNDc3ODkgOC4wMDM3N0MgMS4xMTUyNSA3LjUxODczIDAuOTQ5ODI2IDYuOTE0MzEgMS4wMTQ5NCA2LjMxMjIxTCAxLjAxNDk0IDIuNzUxMDJMIDAgMi43NTEwMkwgMCAxLjg2MDcyTCAxLjAzMjc0IDEuODYwNzJMIDEuMDMyNzQgMC4yNzU5OTJMIDIuMTkwMTMgMFoiLz4mI3hhOyAgICA8cGF0aCBpZD0icGF0aDVfZmlsbCIgZD0iTSAxLjE3NzE2IDMuNTc4OTlDIDEuMTUzIDMuODgwOTMgMS4xOTQ2OCA0LjE4NDUxIDEuMjk5MzMgNC40Njg3NkMgMS40MDM5OCA0Ljc1MzAxIDEuNTY5MSA1LjAxMTE0IDEuNzgzMjkgNS4yMjUzMkMgMS45OTc0NyA1LjQzOTUxIDIuMjU1NiA1LjYwNDYzIDIuNTM5ODUgNS43MDkyOEMgMi44MjQxIDUuODEzOTMgMy4xMjc2OCA1Ljg1NTYxIDMuNDI5NjIgNS44MzE0NUMgNC4wNDAzMyA1Ljg0NTExIDQuNjQ3MDYgNS43Mjk4MyA1LjIxMDIxIDUuNDkzMTNMIDUuNDE0OTggNi4zODM0M0MgNC43MjM5MyA2LjY2ODA5IDMuOTgwODUgNi44MDQ1OCAzLjIzMzc1IDYuNzg0MDZDIDIuNzk4MjEgNi44MTM4OCAyLjM2MTM4IDYuNzQ5MTQgMS45NTMyMiA2LjU5NDI3QyAxLjU0NTA1IDYuNDM5NDEgMS4xNzUyMiA2LjE5ODA5IDAuODY5MDcxIDUuODg2ODhDIDAuNTYyOTI4IDUuNTc1NjYgMC4zMjc3MjMgNS4yMDE5IDAuMTc5NTkxIDQuNzkxMjVDIDAuMDMxNDU4NCA0LjM4MDU5IC0wLjAyNjA5NjIgMy45NDI3NiAwLjAxMDg3NDggMy41MDc3N0MgMC4wMTA4NzQ4IDEuNTQ5MTIgMS4xNzcxNiAwIDMuMDgyNCAwQyA1LjIxOTExIDAgNS43NTMyOSAxLjg2OTYyIDUuNzUzMjkgMy4wNjI2MkMgNS43NjQ3MSAzLjI0NjQ0IDUuNzY0NzEgMy40MzA3OSA1Ljc1MzI5IDMuNjE0NjFMIDEuMTUwNDYgMy42MTQ2MUwgMS4xNzcxNiAzLjU3ODk5Wk0gNC42NjcxMyAyLjY4ODdDIDQuNzAxNDkgMi40NTA2NyA0LjY4NDQzIDIuMjA4MDUgNC42MTcwOSAxLjk3NzE4QyA0LjU0OTc2IDEuNzQ2MzEgNC40MzM3MiAxLjUzMjU1IDQuMjc2OCAxLjM1MDMxQyA0LjExOTg3IDEuMTY4MDggMy45MjU3MSAxLjAyMTYgMy43MDczOSAwLjkyMDc0NEMgMy40ODkwNyAwLjgxOTg5IDMuMjUxNjYgMC43NjcwMDYgMy4wMTExOCAwLjc2NTY1NkMgMi41MjIwMSAwLjgwMTA2NCAyLjA2MzcxIDEuMDE3ODggMS43MjYwOSAxLjM3MzYyQyAxLjM4ODQ3IDEuNzI5MzUgMS4xOTU4OCAyLjE5ODM1IDEuMTg2MDcgMi42ODg3TCA0LjY2NzEzIDIuNjg4N1oiLz4mI3hhOyAgICA8cGF0aCBpZD0icGF0aDZfZmlsbCIgZD0iTSAwLjA1MzQxNzggMi4xOTIyOEMgMC4wNTM0MTc4IDEuNDI2NjMgMC4wNTM0MTc4IDAuNzY3ODA2IDAgMC4xNjI0MDRMIDEuMDY4MzYgMC4xNjI0MDRMIDEuMDY4MzYgMS40MzU1M0wgMS4xMjE3NyAxLjQzNTUzQyAxLjIzMzkxIDEuMDQyNTkgMS40NjU2IDAuNjk0MzE0IDEuNzg0NjggMC40MzkwNDlDIDIuMTAzNzYgMC4xODM3ODMgMi40OTQ0IDAuMDM0MTk2IDIuOTAyMzcgMC4wMTEwNTM4QyAzLjAxNDY2IC0wLjAwMzY4NDU5IDMuMTI4MzkgLTAuMDAzNjg0NTkgMy4yNDA2OCAwLjAxMTA1MzhMIDMuMjQwNjggMS4xMjM5M0MgMy4xMDQ2MiAxLjEwODE3IDIuOTY3MiAxLjEwODE3IDIuODMxMTQgMS4xMjM5M0MgMi40MjcgMS4xMzk1OCAyLjA0MjM3IDEuMzAxODIgMS43NDkxIDEuNTgwMzVDIDEuNDU1ODMgMS44NTg4NyAxLjI3Mzk4IDIuMjM0NjIgMS4yMzc1MSAyLjYzNzQzQyAxLjIwNDIyIDIuODE5NiAxLjE4NjM1IDMuMDA0MjUgMS4xODQxIDMuMTg5NDFMIDEuMTg0MSA2LjY1MjY3TCAwLjAwODkwMjk3IDYuNjUyNjdMIDAuMDA4OTAyOTcgMi4yMDExOEwgMC4wNTM0MTc4IDIuMTkyMjhaIi8+JiN4YTsgICAgPHBhdGggaWQ9InBhdGg3X2ZpbGwiIGQ9Ik0gNi4wMzA1OSAyLjgzNTY1QyA2LjA2NzE1IDMuNDMzNzYgNS45MjQ4NSA0LjAyOTIxIDUuNjIxOCA0LjU0NjE1QyA1LjMxODc1IDUuMDYzMSA0Ljg2ODY5IDUuNDc4MTMgNC4zMjg5MyA1LjczODM5QyAzLjc4OTE3IDUuOTk4NjQgMy4xODQxNiA2LjA5MjMzIDIuNTkwOTcgNi4wMDc1M0MgMS45OTc3OCA1LjkyMjcyIDEuNDQzMjYgNS42NjMyNiAwLjk5ODA0OCA1LjI2MjE5QyAwLjU1MjgzNyA0Ljg2MTEzIDAuMjM3MDkgNC4zMzY2MSAwLjA5MTAzMDcgMy43NTU0NkMgLTAuMDU1MDI4NyAzLjE3NDMxIC0wLjAyNDc4OTEgMi41NjI4MyAwLjE3Nzg5NyAxLjk5ODkzQyAwLjM4MDU4MyAxLjQzNTAzIDAuNzQ2NTQxIDAuOTQ0MjIxIDEuMjI5MTUgMC41ODkwMzdDIDEuNzExNzYgMC4yMzM4NTMgMi4yODkxOCAwLjAzMDM2ODYgMi44ODc4NCAwLjAwNDUwNTQzQyAzLjI4MDM1IC0wLjAxNzA5MzIgMy42NzMyNiAwLjAzOTExNDQgNC4wNDM5NiAwLjE2OTg5NkMgNC40MTQ2NyAwLjMwMDY3NyA0Ljc1NTg3IDAuNTAzNDUzIDUuMDQ3OTQgMC43NjY1NjFDIDUuMzQgMS4wMjk2NyA1LjU3NzE4IDEuMzQ3OTIgNS43NDU4MiAxLjcwMzAxQyA1LjkxNDQ2IDIuMDU4MSA2LjAxMTI0IDIuNDQzMDMgNi4wMzA1OSAyLjgzNTY1TCA2LjAzMDU5IDIuODM1NjVaIi8+JiN4YTsgICAgPHBhdGggaWQ9InBhdGg4X2ZpbGwiIGQ9Ik0gMTguNjk2MiA3LjEyMjM4QyAxMC42ODM2IDcuMTIyMzggMy42NDEzMSA0LjI0NjcyIDAgMEMgMS40MTI4NCAzLjgyMDQxIDMuOTYyMTUgNy4xMTYzIDcuMzA0NzkgOS40NDQwNEMgMTAuNjQ3NCAxMS43NzE4IDE0LjYyMyAxMy4wMTk2IDE4LjY5NjIgMTMuMDE5NkMgMjIuNzY5NSAxMy4wMTk2IDI2Ljc0NSAxMS43NzE4IDMwLjA4NzcgOS40NDQwNEMgMzMuNDMwMyA3LjExNjMgMzUuOTc5NiAzLjgyMDQxIDM3LjM5MjUgNC4wNDg2ZS0xM0MgMzMuNzYwMSA0LjI0NjcyIDI2Ljc0NDUgNy4xMjIzOCAxOC42OTYyIDcuMTIyMzhaIi8+JiN4YTsgICAgPHBhdGggaWQ9InBhdGg5X2ZpbGwiIGQ9Ik0gMTguNjk2MiA1Ljg5NzI1QyAyNi43MDg5IDUuODk3MjUgMzMuNzUxMiA4Ljc3MjkxIDM3LjM5MjUgMTMuMDE5NkMgMzUuOTc5NiA5LjE5OTIyIDMzLjQzMDMgNS45MDMzMyAzMC4wODc3IDMuNTc1NTlDIDI2Ljc0NSAxLjI0Nzg1IDIyLjc2OTUgNC4wNDg2ZS0xMyAxOC42OTYyIDBDIDE0LjYyMyA0LjA0ODZlLTEzIDEwLjY0NzQgMS4yNDc4NSA3LjMwNDc5IDMuNTc1NTlDIDMuOTYyMTUgNS45MDMzMyAxLjQxMjg0IDkuMTk5MjIgMCAxMy4wMTk2QyAzLjY0MTMxIDguNzY0MDEgMTAuNjQ4IDUuODk3MjUgMTguNjk2MiA1Ljg5NzI1WiIvPiYjeGE7ICAgIDxwYXRoIGlkPSJwYXRoMTBfZmlsbCIgZD0iTSA3LjU5NTc2IDMuNTY2NTZDIDcuNjQyNzYgNC4zMTk5MiA3LjQ2NDQyIDUuMDcwMjIgNy4wODM0NyA1LjcyMTg2QyA2LjcwMjUxIDYuMzczNSA2LjEzNjE5IDYuODk2OTggNS40NTY2NiA3LjIyNTYxQyA0Ljc3NzEzIDcuNTU0MjQgNC4wMTUxNSA3LjY3MzE0IDMuMjY3ODEgNy41NjcxNkMgMi41MjA0NiA3LjQ2MTE3IDEuODIxNTggNy4xMzUxMSAxLjI2MDIxIDYuNjMwNTFDIDAuNjk4ODM5IDYuMTI1OTEgMC4zMDAzOTQgNS40NjU2MSAwLjExNTYzNyA0LjczMzc1QyAtMC4wNjkxMTkxIDQuMDAxODggLTAuMDMxODIxOSAzLjIzMTU5IDAuMjIyNzc3IDIuNTIwOTlDIDAuNDc3Mzc2IDEuODEwNCAwLjkzNzc1IDEuMTkxNjkgMS41NDUyNCAwLjc0MzY4NUMgMi4xNTI3NCAwLjI5NTY3OCAyLjg3OTg1IDAuMDM4NjU5NSAzLjYzMzk0IDAuMDA1Mzc1ODlDIDQuMTI3OTMgLTAuMDIxMDQ3MSA0LjYyMjI5IDAuMDUwMTE3MyA1LjA4ODc4IDAuMjE0ODAzQyA1LjU1NTI2IDAuMzc5NDkgNS45ODQ3MyAwLjYzNDQ3IDYuMzUyNjQgMC45NjUxNzlDIDYuNzIwNTUgMS4yOTU4OSA3LjAxOTcxIDEuNjk1ODQgNy4yMzMgMi4xNDIyQyA3LjQ0NjMgMi41ODg1NSA3LjU2OTU3IDMuMDcyNTYgNy41OTU3NiAzLjU2NjU2TCA3LjU5NTc2IDMuNTY2NTZaIi8+JiN4YTsgICAgPHBhdGggaWQ9InBhdGgxMV9maWxsIiBkPSJNIDIuMjUwNjEgNC4zNzk0M0MgMS44MTg4NiA0LjM5MTM1IDEuMzkzMjIgNC4yNzUzNSAxLjAyNzIyIDQuMDQ2MDJDIDAuNjYxMjI0IDMuODE2NjggMC4zNzEyMDYgMy40ODQyNCAwLjE5MzY0MSAzLjA5MDUyQyAwLjAxNjA3NjIgMi42OTY3OSAtMC4wNDExMDc4IDIuMjU5MzUgMC4wMjkyODA0IDEuODMzMjFDIDAuMDk5NjY4NiAxLjQwNzA3IDAuMjk0NDg2IDEuMDExMjUgMC41ODkyMzMgMC42OTU1NDJDIDAuODgzOTgxIDAuMzc5ODMgMS4yNjU1IDAuMTU4MzE2IDEuNjg1ODEgMC4wNTg4NTc3QyAyLjEwNjExIC0wLjA0MDYwMDUgMi41NDY0NCAtMC4wMTM1NjIyIDIuOTUxNDMgMC4xMzY1NzJDIDMuMzU2NDEgMC4yODY3MDcgMy43MDc5NiAwLjU1MzIzNCAzLjk2MTg2IDAuOTAyNjM2QyA0LjIxNTc3IDEuMjUyMDQgNC4zNjA3IDEuNjY4NzIgNC4zNzg0MiAyLjEwMDI3QyA0LjM5NTI5IDIuNjgzOCA0LjE4MTMxIDMuMjUwNDQgMy43ODI5MyAzLjY3NzE1QyAzLjM4NDU1IDQuMTAzODcgMi44MzM5MiA0LjM1NjIzIDIuMjUwNjEgNC4zNzk0M1oiLz4mI3hhOyAgPC9kZWZzPiYjeGE7ICA8c29kaXBvZGk6bmFtZWR2aWV3IGlkPSJiYXNlIiBwYWdlY29sb3I9IiNmZmZmZmYiIGJvcmRlcmNvbG9yPSIjNjY2NjY2IiBib3JkZXJvcGFjaXR5PSIxLjAiIGlua3NjYXBlOnBhZ2VvcGFjaXR5PSIwLjAiIGlua3NjYXBlOnBhZ2VzaGFkb3c9IjIiIGlua3NjYXBlOnpvb209IjEuNjE2MDI1NyIgaW5rc2NhcGU6Y3g9IjMxLjY0NTgxNiIgaW5rc2NhcGU6Y3k9IjE3NS45NDg4MyIgaW5rc2NhcGU6ZG9jdW1lbnQtdW5pdHM9Im1tIiBpbmtzY2FwZTpjdXJyZW50LWxheWVyPSJsYXllcjEtNCIgaW5rc2NhcGU6ZG9jdW1lbnQtcm90YXRpb249IjAiIHNob3dncmlkPSJmYWxzZSIgaW5rc2NhcGU6c25hcC1nbG9iYWw9InRydWUiIGlua3NjYXBlOndpbmRvdy13aWR0aD0iMTgyOSIgaW5rc2NhcGU6d2luZG93LWhlaWdodD0iOTY3IiBpbmtzY2FwZTp3aW5kb3cteD0iNDciIGlua3NjYXBlOndpbmRvdy15PSIxMDMiIGlua3NjYXBlOndpbmRvdy1tYXhpbWl6ZWQ9IjAiLz4mI3hhOyAgPG1ldGFkYXRhIGlkPSJtZXRhZGF0YTU5Ij4mI3hhOyAgICA8cmRmOlJERj4mI3hhOyAgICAgIDxjYzpXb3JrIHJkZjphYm91dD0iIj4mI3hhOyAgICAgICAgPGRjOmZvcm1hdD5pbWFnZS9zdmcreG1sPC9kYzpmb3JtYXQ+JiN4YTsgICAgICAgIDxkYzp0eXBlIHJkZjpyZXNvdXJjZT0iaHR0cDovL3B1cmwub3JnL2RjL2RjbWl0eXBlL1N0aWxsSW1hZ2UiLz4mI3hhOyAgICAgICAgPGRjOnRpdGxlLz4mI3hhOyAgICAgIDwvY2M6V29yaz4mI3hhOyAgICA8L3JkZjpSREY+JiN4YTsgIDwvbWV0YWRhdGE+JiN4YTsgIDxnIGlua3NjYXBlOmxhYmVsPSJMYXllciAxIiBpbmtzY2FwZTpncm91cG1vZGU9ImxheWVyIiBpZD0ibGF5ZXIxIiBzdHlsZT0iZGlzcGxheTppbmxpbmUiPiYjeGE7ICAgIDxjaXJjbGUgc3R5bGU9ImZpbGw6IzAzOGVjZDtmaWxsLW9wYWNpdHk6MTtmaWxsLXJ1bGU6ZXZlbm9kZDtzdHJva2Utd2lkdGg6MC4yNjQ1ODMiIGlkPSJwYXRoMzQiIGN4PSI0OS4zNjI5OTkiIGN5PSI0My43OTYzNTYiIHI9IjQzLjQ2ODkxIi8+JiN4YTsgICAgPGcgaWQ9Imc5NTciIHRyYW5zZm9ybT0idHJhbnNsYXRlKDE3LjQ0MjU5NCwtMzIuNjg1NjY1KSI+JiN4YTsgICAgICA8ZyBzdHlsZT0iZGlzcGxheTppbmxpbmUiIGlkPSJsYXllcjEtNSIgaW5rc2NhcGU6bGFiZWw9IkxheWVyIDEiLz4mI3hhOyAgICAgIDxnIGlua3NjYXBlOmxhYmVsPSJMYXllciAyIiBpZD0ibGF5ZXIyLTQiLz4mI3hhOyAgICA8L2c+JiN4YTsgICAgPGcgaWQ9ImcxMDA2IiB0cmFuc2Zvcm09InRyYW5zbGF0ZSg0LjAxNzE2ODUsLTMzLjUwNDI4OCkiPiYjeGE7ICAgICAgPGcgaW5rc2NhcGU6bGFiZWw9IkxheWVyIDEiIGlkPSJsYXllcjEtNCIgc3R5bGU9ImRpc3BsYXk6aW5saW5lIj4mI3hhOyAgICAgICAgPHBhdGggaWQ9InBhdGgxMTc5IiBkPSJtIDQ1LjMyODc0NCw3NC41MzI2NjUgYyAtMS40Mzc3NDIsMCAtMi42Mzg0ODcsMS4xNzU1ODkgLTIuNjM4NDg3LDIuNjI0MzA4IDAsMS40Mzc3NDMgMS4yMDA3NDUsMi42Mzg0ODYgMi42Mzg0ODcsMi42Mzg0ODYgMy41MTU4MDksMCAzLjUxNTgwOSwtNS4yNjI3OTQgMCwtNS4yNjI3OTQgeiBtIDAsMS42NjY5MDQgYyAwLjUzOTgzNCwwIDAuOTU1ODY1LDAuNDE1ODQ2IDAuOTU1ODY1LDAuOTU1ODY2IDAsMC41Mzk4MjcgLTAuNDE1ODU0LDAuOTU1ODU4IC0wLjk1NTg2NSwwLjk1NTg1OCAtMC41Mzk4MzYsMCAtMC45NTU4NjYsLTAuNDE1ODQ2IC0wLjk1NTg2NiwtMC45NTU4NTggMCwtMC41Mzk4MzYgMC40MTU4NTIsLTAuOTU1ODY2IDAuOTU1ODY2LC0wLjk1NTg2NiB6IE0gMjEuNTA3MzIzLDUyLjEwODE2NiBjIC0wLjE0NTkzNiwwIC0wLjIxOTQ5NywwLjAyMzc3IC0wLjcyNjc1NywwLjA4MTI4IC0wLjUxNDkyMSwwLjA2NDY3IC0wLjY4NTg4NiwwLjY3ODA1OSAtMC41NjQ3NSwxLjMyNDcyNiAwLjExNDQ5MywwLjY1Mjk2OCAwLjE0ODg5NiwwLjQzMzA1NiAwLjQwOTkxNywwLjgwOTk0IDAuMjYyMjA0LDAuMzc0OTExIDguODQ0NTcsOC42NjQwNDQgMTMuMjkxMTQ2LDEzLjAwMzkwMyBsIC03Ljg4MDgxNCw4LjA3ODU5NiBjIC0yLjYxNjQ4MSwyLjY4MDg0MyAtMy45OTc2ODksNi44MTA0MDEgLTQuODA0NDczLDExLjM2OTk4NSAtMC44MDk4NjgsNC41NjI3ODkgLTEuMDE1NTM3LDkuNjEzNjgzIC0xLjA3OTg0NywxNC4yMDE1MTQgMC4wMDYyLDAuNjYwNzggMC40OTc3MTksMS4yMTggMS4xNjE0NzMsMS4yOTE3OSAwLjA4MTksMC4wMDYgMC4xNjMxMzgsMC4wMDYgMC4yNDUwMDMsMCAwLjMwMTM2MSwtMC4wMjM3IDAuNTg4NDgxLC0wLjE2MzEyIDAuODAyMTAyLC0wLjM4NDQgaCAwLjAxMTg0IEwgMzUuMzY5Nzc1LDg4LjU1MTk5NSBjIDguNDEyOTM1LDcuNzkxMzYyIDguNjE4NTUyLDEwLjYzNTQwMyAxOS40NDg1NzgsMTIuNzAyNTU1IDQuNTYyNzkyLDAuODAyMDQgOS42MTM2OTMsMS4wMTU1NCAxNC4yMDE1MTYsMS4wNzk4NCAwLjY1Mjk1NywwIDEuMjEwMTgsLTAuNDg5NDEgMS4yOTE4MDYsLTEuMTQ0MjEgbCAwLjAxNzc4LC0wLjAxNzggYyAwLjAwNjIsLTAuMDg5NiAwLC0wLjE4ODY0IC0wLjAxNzc4LC0wLjI3NzYyIC0wLjAzNTYxLC0wLjI5MzY0IC0wLjE2MzEzNiwtMC41NjM1NiAtMC4zNjg5ODUsLTAuNzc2OTUgdiAtMC4wMTE4IEwgNTYuNTkzNDYxLDg3LjExNjE1OSA2NC4xOTY0NjksNzkuMzE2OTE1IGMgMC4wOTkwOCwtMC4wODk1OCAwLjE4ODA1MywtMC4xODgwNTMgMC4yNzc2MywtMC4yNzc2MyBsIDAuMDE3ODYsLTAuMDE3NzggYyAyLjYxNjQ3LC0yLjY4MDg0MyA0LjAxMTg1OCwtNi43OTMwNzggNC44MjE3MjcsLTExLjM1MjcyNCAwLjgwMjAzOSwtNC41NzA1NTkgMC45OTgyODMsLTkuNjEzNjI5IDEuMDYyNTgyLC0xNC4yMDE1MTMgMCwtMC42NTI4OTYgLTAuNDkwMDA1LC0xLjIxMDExOSAtMS4xNDQyMDksLTEuMjkxNzQ1IGwgLTAuMDE3NzgsLTAuMDIzNzcgYyAtMC4wODk1OCwwIC0wLjE4ODA1LDAgLTAuMjc3NjMsMC4wMTE4NCAtMC4yOTM2NDgsMC4wMzU2MSAtMC41NjM1NjUsMC4xNjMxMzggLTAuNzY3NTExLDAuMzc2Njk3IGggLTAuMDExODMgTCA1NS4xNTk2MjMsNjUuODY0NDIyIDQ3LjA4MTAyOSw1Ny45OTE0NDQgQyA0NC40MDAxODQsNTUuMzc0OTYzIDQwLjI4MDA2NCw1My45Nzk1NzUgMzUuNzExMDQzLDUzLjE2OTcwNyAzMC45OTQ0OTYsNTIuNjU0Nzg3IDI2LjI2MDY3Niw1Mi4xNzkzMjMgMjEuNTA5NTM5LDUyLjEwNzEyNCBaIG0gMS4wMDYwNDgsMS43NTAwNzggYyA0LjI2NzcyMiwwLjA4MTkgOC44MjEwMTYsMC4yNTI3MDcgMTIuOTAwMzkzLDAuOTczMTIxIDQuNDA1NzU5LDAuNzc2OTQ4IDguMjI0NTMxLDIuMTU4MTU3IDEwLjQ4OTQ1Niw0LjM3NDM4NiBoIDAuMDExODMgbCAwLjIyMTI3NCwwLjIyNzc5MiBjIDAuMDQ3NDQsMC4wNDc0NCAwLjA5OTA3LDAuMTE0NDkzIDAuMTU1NDI0LDAuMTcwODUxIDAsMC4wMDYyIDAuMDA2MiwwLjAwNjIgMC4wMDYyLDAuMDE3ODUgbCAwLjAyMzY4LDAuMDE3NzYgMC4wMjM3NiwwLjAyOTY5IGMgMCwwIDAsMC4wMTc3NiAwLDAuMDE3NzYgMC4wMDYyLDAuMDA2MiAwLjAxMTgzLDAuMDA2MiAwLjAxMTgzLDAuMDE3ODUgMC4yNjk5MTcsMC4zNjg5ODQgMC43NDU1MDYsMS4wODYxMzcgMC44ODM2NjYsMS4zODkwMzYgMC4wOTkwOCwwLjIxMzU1OSAwLjE4ODY0MiwwLjQzMzA1NSAwLjI3NzYzLDAuNjc4MDU4IDAuMzc2Njk4LDEuMDg3NzM3IDAuNTY0NzUsMi40NDM4NDYgMC40MzMwNTYsNC4xNTQ3MDQgdiAwLjAxMTg0IGMgLTAuMDM1NjEsMC4zODQ0MDkgLTAuMDgxOSwwLjc3Njg4NyAtMC4xMzgyMjMsMS4xOTQ0MDEgLTAuMDM1NiwwLjE5NDU3MyAtMC4wNzM2LDAuNDE1ODQ2IC0wLjEwNjc4MSwwLjY0NTEzMSAtMC4wODk1OCwwLjQ1ODU2MyAtMC4xODg2NDIsMC44OTkzMzIgLTAuMjk0ODMsMS4zNDk4MjYgLTAuMDU5MjgsMC4yMzcyOTEgLTAuMTIxMDIxLDAuNDgxNjkzIC0wLjE4ODA1NiwwLjcyNjY5NiB2IDAuMDE3ODUgYyAtMC4yNjk5MTQsMC45NzMxMiAtMC42Mjc4NjYsMi4wNDUxMzkgLTEuMDY4ODc0LDMuMTgxNTIyIC0wLjEwNjc3OCwwLjI4NzEyIC0wLjIxMzU1NiwwLjU2MzU2NiAtMC4zMzQ1NzksMC44NjY0MDQgLTAuMDk5MDcsMC4yMjc4IC0wLjIwNTg0NiwwLjQ2NjI3NCAtMC4zMTIwMzYsMC43MTEwMzkgbCAtMC41Mzk4MzIsMC4xMDUwMDMgYyAtMS44MzE2NCwtMy40NjU1ODEgLTMuODM0NDI2LC01Ljg1OTE5IC01LjYyMzcxMywtNy4yMzQxNiAtMC45MDg3NTgsLTAuNjg1ODg3IC0xLjc1MDA2OSwtMS4xMjg0OTMgLTIuNTY3ODI3LC0xLjMwNzQxMSBoIC0wLjAwNjIgYyAtMC44MDgzMywtMC4xNzczOCAtMS42NzQ3MzMsLTAuMDU5MzcgLTIuMjM5Nzc1LDAuNTIyNjI1IGwgMC4wNzM2LDAuMTU3MjEgMC42NzAyMzEsLTAuNTAwNjc4IHogbSA0Ni4xMTQxMSwwLjYwNDI1MSBjIC0wLjA3MzU5LDQuMjY3NjY5IC0wLjI0NTAwNCw4LjgyODg1MyAtMC45NzMxMywxMi45MDgxNjggLTAuNzc2OTQ5LDQuNDA1ODIyIC0yLjE0ODcyMSw4LjIyNDU4NiAtNC4zNzQzODgsMTAuNDk3MzQ4IGwgLTAuMjI3NzksMC4yMTE3ODMgYyAtMC4wNTkyOCwwLjA1OTI4IC0wLjEzMDUxMSwwLjEyMzk4MSAtMC4xOTYzNTgsMC4xODAzNCBsIC0wLjAyOTY5LDAuMDQxNTIgaCAtMC4wMTc3OCBjIC0wLjM1OTQ5NSwwLjI2MjIwNSAtMS4xMDUsMC43NTE4NTkgLTEuNDA2MzYxLDAuODkwMDIyIC0wLjIxMzU2MSwwLjA5OTA2IC0wLjQ0MTM1NCwwLjIxMzU1OCAtMC42NzgwNSwwLjI5NDgzIGggLTAuMDE3ODMgYyAtMS4wNzk4NDksMC4zNjg5ODUgLTIuNDM1OTU1LDAuNTQ3NTQ3IC00LjE0NTIxNywwLjQxNTg0NiAtMC4zNzQ5MTksLTAuMDI5NjkgLTAuNzg0ODM4LC0wLjA2NDY3IC0xLjIwMDc0MiwtMC4xMjEwMTMgTCA1NC43MzA3Myw3OS42NzQ1NTkgSCA1NC43MTg5IGMgLTAuNDU4NTYyLC0wLjA4OTU4IC0wLjg5OTM4MiwtMC4xODg2NDMgLTEuMzQ5ODI3LC0wLjI5NDgzMSBoIC0wLjAxNzc4IGMgLTAuMjQ1MDA0LC0wLjA2NDY3IC0wLjQ4MTcwMywtMC4xMzgyMjMgLTAuNzE3MzMxLC0wLjIwMjI5NSAtMS4wNzk4NDksLTAuMjk0ODMzIC0yLjE0MjQzMSwtMC42NDY2NzkgLTMuMTg5MzUxLC0xLjA0NjkxOSAtMC4yODcxMTgsLTAuMTE0NDkzIC0wLjU3ODk5MywtMC4yMzg0ODUgLTAuODgzNjc2LC0wLjM1OTQ5NyAtMC4yMTk0ODUsLTAuMDg5NTggLTAuNDQxMzUyLC0wLjE4MDMzOCAtMC42NjA3ODQsLTAuMjc3NjMgMC4wMjM2OCwtMC4xMzE2OTQgLTAuMTYzMTM5LDAuMjA1ODQ4IDAsMCAwLjAwNjIsLTAuMjA1ODQ2IC0wLjAyMzc2LC0wLjQwODE0MSAtMC4xMDY3OCwtMC41OTY0MzIgMy40MjYzNDgsLTEuODIyMzIyIDUuODE5OTQ5LC0zLjgwMzA5OCA3LjE4NzA5MSwtNS41ODMwMTEgMC42OTUzMjIsLTAuOTA4NzY3IDEuMTQ0MjIsLTEuNzY1NzM1IDEuMzIzMTM2LC0yLjU3NTY2NCAwLjE4ODY0NiwtMC44MDgzMyAwLjA1OTI4LC0xLjY5MDM5NyAtMC41MjI2MzQsLTIuMjU1NDQ4IGwgMC4wMTc3OCwwLjAxNzg1IDAuMjMwNzcsMC43MzYwNjkgeiBtIC0xOS4zOTA1MTEsNy45OTM4MzIgNS4zMDY3NTEsNS4xNjcwNDQgMC4wMjM3NiwwLjAzNTYxIDAuMDM1NiwwLjAyMzc3IGMgMC4wODE5LDAuMDgxOSAwLjE2MzEzNywwLjIzODQ3NCAwLjA2NDA1LDAuNjk1MzE0IC0wLjA0NzQ0LDAuMjA1ODU1IC0wLjMwMTM1MiwwLjU1NzA0NiAtMC40MzMwNDksMC44MTc3NjcgLTAuMTcwODQ5LDAuMzUxNzgyIC0wLjI0NTAwMSwwLjYyOTQxMiAtMC41NzEyNzcsMS4wNTQ3NTUgLTEuMTQ0MjEyLDEuNDYyODI2IC0zLjM4Mzk5NSwzLjI3NzI2NyAtNi41NjU1MTcsNC45Nzg2OTkgMC4wOTkwNywtMC4yMjc4IDAuMTg4MDUzLC0wLjQ1MDI1NyAwLjI3NzYzMywtMC42NzAyMzEgMC4xMjEwMSwtMC4zMDMxMzcgMC4yMzY2ODgsLTAuNjEzNjg2IDAuMzUxNzc0LC0wLjkwODc1NyAwLjQ1ODU2OCwtMS4xOTI4NTUgMC44NDEyNTksLTIuMzExOTc0IDEuMTI4NDkzLC0zLjM1MjYxMSAwLjIwMjI5MiwtMC43MzQ1OTMgMC4zNzY2OTUsLTEuNDgwMDk5IDAuNTE0OTE5LC0yLjIyMjUyIHYgLTAuMDE3NzYgYyAwLjAzNTYxLC0wLjIyNzgwMSAwLjA4OTU4LC0wLjQ1MDI1NyAwLjEyMzk4OSwtMC42NzgwNTggMC4wNTkyOCwtMC40NDEzNjEgMC4xMDQ5OTQsLTAuODc0MjMxIDAuMTM4MjE1LC0xLjMxNjg5OSAwLjEwNjc4NCwtMS40MTQxOTcgLTAuMTQ1OTIzLC0yLjUwMDMzNSAtMC4zOTM4OTMsLTMuNTk3NDk4IHogbSAtMTIuODE4NzAzLDUuMzcyNjYgYyAzLjMzNTM0NywxLjUwMjEwNiA1LjUxMDc2OCw1LjA2ODE1NCA2Ljg2MDU4Niw3LjU3MDA3OSAtMC4yMzA3NjIsLTAuMTA2Nzc5IC0wLjQ1MDI1NywtMC4xODg2NDQgLTAuNjc4MDUxLC0wLjI4NzExOSAtMC4zMTIwNDIsLTAuMTIxMDEyIC0wLjYxMzY5NCwtMC4yMzY2OTggLTAuOTE2NTk0LC0wLjM1MTc4MSAtMS4wODYxOSwtMC40MzMwNTcgLTIuMjA4NDAxLC0wLjgwODMzMSAtMy4zMzUzNDcsLTEuMTI4NDkzIGggLTAuMDA2MiBjIC0wLjI2MjE5NywtMC4wNzM1OSAtMC41MTQ5MDQsLTAuMTM4MjI1IC0wLjc1OTczMSwtMC4yMDIyODYgLTAuNDk3NzE4LC0wLjEyMzk4MiAtMC45OTY2NzQsLTAuMjIxMjczIC0xLjQ2MjgzNCwtMC4zMTI2MzYgLTAuMjI3ODAyLC0wLjAzNTYgLTAuNDY2Mjc1LC0wLjA2NDA1IC0wLjY5NTMyMiwtMC4xMDY3OCB2IC0wLjAxNzc2IGMgLTAuNDQxMzUyLC0wLjA1OTI4IC0wLjg3NDIzMSwtMC4xMDUwMDQgLTEuMzE2ODM3LC0wLjEzODIyMyAtMS40MjM2MjUsLTAuMTA2NzggLTIuNTE3NTkxLDAuMTM4MjIzIC0zLjYxNDc1NCwwLjM4NDQxIGwgNS4xNzQ4OCwtNS4yOTg4NjEgMC4wNTkyOCwtMC4wNjQ2NyBjIDAuMDgxOSwtMC4wODE5IDAuMjM4NDc0LC0wLjE2MzEzOCAwLjY5NTMyMiwtMC4wNTkyOCB6IG0gLTIuNDQzODQ1LDYuNzAzNjc4IGMgMC4zNzY2OTcsMC4wMjM3NyAwLjc3ODU0NywwLjA3MzYgMS4xOTQ0NTQsMC4xMzgyMjEgaCAwLjAxNzg1IGMgMC4xOTQ1NzMsMC4wMzU2IDAuNDA4MTMyLDAuMDY0NjcgMC42Mjc4MDUsMC4xMDY3ODEgMC40MzMwNTYsMC4wODE5IDAuODc0MjkyLDAuMTgwMzQxIDEuMzQ5ODg4LDAuMjk0ODMxIGwgMC4zNjg5ODUsMC4wODk1OCBjIDAuMTIxMDEyLDAuMDI5NjkgMC4yMzcyOSwwLjA1OTI4IDAuMzU5NDk1LDAuMDg5NTggaCAwLjAwNjIgYyAwLjk5MDM5MywwLjI3NjQzNyAyLjA0NTEzOSwwLjYyNzgwNCAzLjE4OTQxMSwxLjA2ODg3NSAwLjI4NzEyOCwwLjEwNjc3OSAwLjU3ODk5MywwLjIyMTI3MiAwLjg3NDI0LDAuMzM0NTcgMC4yNTI3MTUsMC4xMDY3OTEgMC41MDcyMDgsMC4yMjEyODQgMC43NTk2ODQsMC4zMjgwNjIgbCAwLjAzNTYsMC41NTQwNjcgYyAtMy40MzQzLDEuODIyMjczIC01LjgzNzI3NCwzLjgxMDkzNiAtNy4yMDI4MjcsNS41OTIzOTUgLTAuNjk1MzEzLDAuOTA4ODIgLTEuMTQ0MjEsMS43NTAwNjcgLTEuMzIzMTgsMi41Njc4MjYgdiAwLjAxNzgzIGMgLTAuMTg4NjU0LDAuODA4MzI4IC0wLjA1OTI4LDEuNjc0NzMzIDAuNTIyNjIzLDIuMjM5Nzc0IEggMzQuNzM2ODkgTCAzNC4zNDI5ODIsODcuMjUxOTAxIDIxLjkxODIzOCw5OS45NTQ0NTQgYyAwLjA4MTksLTQuMjU4MjI1IDAuMjM2Njk4LC04LjgwMzc1NCAwLjk1NTg2NiwtMTIuODgzMDY4IDAuNzc2OTQ4LC00LjQwNTgyIDIuMTU4MTQ4LC04LjIxNjY5MSA0LjM3NDM3NywtMTAuNDg5NDU2IFYgNzYuNTcwMSBjIDAuMDQ3NDQsLTAuMDU5MjggMC4xMDUwMDQsLTAuMDk5MDYgMC4xNjMxMzgsLTAuMTU3MjEgbCAwLjA2NDA1LC0wLjA1OTI4IGMgMC4wNTkyOCwtMC4wNjQ2NyAwLjEyMzk4MiwtMC4xMjM5ODIgMC4xODg2NDUsLTAuMTcwODUyIGggMC4wMTc3NiBjIDAuMDA2MiwtMC4wMDYyIDAuMDExODQsLTAuMDIzNzcgMC4wMjM3NywtMC4wMzU2IDAuMzU5NDk2LC0wLjI2MjIwNiAxLjEyMjI2NCwtMC43Njc1MTMgMS40MjM2MjYsLTAuOTE1MDUgMC4yMjc3OTIsLTAuMDk5MDYgMC40NTc5NywtMC4xOTYzNTggMC42OTUzMTMsLTAuMjc3NjI4IDEuMDg3Njg0LC0wLjM3NjY5OCAyLjQ0Mzc5MiwtMC41NjQ3NSA0LjE2MDk0MiwtMC40MzMwNDggeiBtIDEwLjc5MjQxNywwLjQxNTg1MiBjIC0wLjg3NDI5MiwwLjI3NzYzMSAtMS40NjQ0MzIsMC44NzQyOTMgLTEuNzUwMDY3LDEuNzQwNjk1IGwgMC45MjI4NzYsLTEuMDIxODI4IHogbSAxLjEzNjM4MSwwLjA1OTI4IDAuMzc0OTIsMC42Nzk2NTYgMC4zMTIwMzYsMC4xOTQ1ODMgMC44NDEzMTIsMC42NjM4NzggYyAtMC4zMDEzNjMsLTAuNzM2MTMgLTAuNzc2OTQ5LC0xLjI2ODE5OSAtMS41MTkzNywtMS41MzAzNDIgeiBtIC0wLjU5NjQ4NSwxLjA4NzY4MiBjIDAuNjQ1MTMxLDAgMS4xNTA1MDEsMC41MDcyMDkgMS4xNTA1MDEsMS4xNTM2MzkgMC4wMDYyLDAuNjQ1MTQgLTAuNTE0OTIxLDEuMTY3NzYzIC0xLjE1MDUwMSwxLjE1OTkzNCAtMC42NDY2MTQsMC4wMDYyIC0xLjE2OTMwOCwtMC41MTQ5MTggLTEuMTYxNDcxLC0xLjE1OTkzNCAwLC0wLjY0NjY2OSAwLjUwNzIwNiwtMS4xNTM2MzkgMS4xNjE0NzEsLTEuMTUzNjM5IHogbSAtMi4yMDA1MDgsMS44MDY2MDUgYyAwLjI5MzY0OCwwLjc2MTIyNSAwLjgwMjAzOSwxLjI3NjA4OCAxLjU2MTcyLDEuNTYxNzI3IGwgLTAuNDk3NzA1LC0wLjU3ODk5MyAtMC40MjcxMywtMC40ODk0MDUgeiBtIDQuMzE2Mjk5LDAuMDczNiAtMC41OTY0MjEsMC4yNDYxODcgLTAuMTIxMDIsMC4zNzQ5MjIgLTAuNTk4MDMzLDAuNjc4MDQ4IGMgMC42MDQzMjIsLTAuMjkzNjQgMS4wMzc0OSwtMC42NzgwNDggMS4zMTY5LC0xLjI5MTc0NiB6IG0gLTAuMTU1NDI0LDEuMDcwNDczIGMgMC4yMTk0OTgsMC4wODk1OCAwLjQ0MDc3LDAuMjA1ODQ1IDAuNjYwNzk3LDAuMjk0ODMzIDAuMzEyMDMxLDAuMTIxMDE3IDAuNjEzNjk2LDAuMjM3Mjg5IDAuOTE2NTkzLDAuMzUxNzgyIDEuMTc1NjU1LDAuNDU2Nzg0IDIuMjk3ODU2LDAuODI0MDQ3IDMuMzM1MzQ4LDEuMTExMjI5IDAuMjY5OTE4LDAuMDgxOSAwLjUzMjEyLDAuMTM4MjIzIDAuNzY3NTc1LDAuMjA1ODQ1IDAuNTA3MjA5LDAuMTIxMDIzIDAuOTk2Njc1LDAuMjM3MjkyIDEuNDcwNjYzLDAuMzI2Mjc3IDAuMjE5NDk4LDAuMDI5NjkgMC40NTg1NjMsMC4wNjQ2NyAwLjY5NTMyMiwwLjEwNjc3OCAwLjQ1MDI1OCwwLjA1OTI4IDAuODkxNDkzLDAuMTEzMzEgMS4zMTY4OTgsMC4xNTU0MjYgMS40MjM1NjQsMC4xMDY3NzYgMi41MDk2OTIsLTAuMTQ1OTI4IDMuNjExNTQ2LC0wLjM5MzkwMSBsIC01LjE3MzI3MSw1LjMwNjc1MSAtMC4wMzU2LDAuMDIzNzYgLTAuMDI5NjksMC4wMzU2MSBjIC0wLjA3NTM2LDAuMDgxOSAtMC4yMzg0NzEsMC4xNTU0MjcgLTAuNjc5NjU2LDAuMDY0MDUgaCAtMC4wMTE4NSBjIC0wLjQ1MDI1NCwtMC4xMDY3ODEgLTEuMTEyODI2LC0wLjQyNTM0NCAtMS44NzI1MTEsLTEuMDIxODMxIC0xLjQ2MjgzNywtMS4xNDQyMSAtMy4yNzcyNzUsLTMuMzgzOTkyIC00Ljk3MDgwOSwtNi41NjU1MTEgeiBtIC0zLjgzNDQ4NCwwLjE4ODY0MiAtMC4yNzc2MjIsMC42NjA4IGMgLTAuMTIxMDIyLDAuMzAzMTM1IC0wLjIzNjcsMC42MTM2ODIgLTAuMzU5NDk2LDAuOTA4NzUzIC0wLjQyNTM0MywxLjA5NDAyNiAtMC43OTI2MTMsMi4yMDgzOTggLTEuMTExMjI5LDMuMzM1MzQ2IC0wLjA3MzYsMC4yNjk5MTcgLTAuMTM4MjI0LDAuNTMyMTIyIC0wLjE5NjM1OCwwLjc3Njk0OSAtMC4xMjEwMjIsMC40OTc3MTggLTAuMjM2Njk4LDAuOTk2NjgzIC0wLjMyNjI3NiwxLjQ2MjgzMyAtMC4wNDE1MiwwLjIzNzI5MiAtMC4wNzM1OSwwLjQ2NjI3OCAtMC4xMDY3OCwwLjcwMzIxMyAtMC4wNjQ2NywwLjQzMzA1NCAtMC4xMTI3MTYsMC44NjY0MDQgLTAuMTU1NDI1LDEuMzA3NDYyIC0wLjEwNjc3OSwxLjQyMzU2NCAwLjE0NTkzNywyLjUxNzU5MiAwLjM4NDQxMSwzLjYxMTU1NSBsIC01LjI5ODkyMywtNS4xNzMzMzIgLTAuMDI5NjksLTAuMDQ3NDQgLTAuMDM1NiwtMC4wMTE4MyB2IC0wLjAxNzc4IGMgLTAuMDgxOSwtMC4wODE5IC0wLjE1NTQyNSwtMC4yMTM1NTggLTAuMDU5MjgsLTAuNjYzODc2IDAsLTAuMDA2MiAwLC0wLjAwNjIgMCwtMC4wMTE4NSAwLjEwNjc4OSwtMC40NTAyNTcgMC40MzMwNTYsLTEuMTEyODI5IDEuMDIxODM3LC0xLjg3MjUxMiAxLjEzNjMyLC0xLjQ2MjgzNiAzLjM3NjE1NiwtMy4yNzcyNzQgNi41NDgyNTEsLTQuOTcwODcgeiBtIDIuMTc1NDE3LDAuNTM5ODM3IGMgMS44MTQ0NDEsMy40MDEyNTQgMy43OTM2Nyw1LjgwMjY5MSA1LjU2NzI5NCw3LjE2OTc3MiAwLjkwODc2NywwLjY5NTMyMyAxLjc1MDA3OCwxLjE0MjY3MiAyLjU2NzgzNywxLjMyMzE4OSBoIDAuMDE3NzggYyAwLjgwODMzMSwwLjE4MDM0IDEuNjY1MzA2LDAuMDU5MjggMi4yMzk3ODIsLTAuNTIyNjMxIGwgLTAuMDczNiwtMC4xNDU5MjggLTAuNjM4Nzg2LDAuNTY1MzQgMTIuNzQ0OTY2LDEyLjQzMjU3MiBDIDYzLjc2NTU4NywxMDAuNTE1MDUgNTkuMTk1MDMyLDEwMC4zNDQyNCA1NS4xMTcyNjEsOTkuNjE1OTk0IDUwLjcxMTQ0LDk4LjgzOTA0NSA0Ni44OTI2NjYsOTcuNDY3MjEyIDQ0LjYyNzc5NCw5NS4yNTA5OCBoIC0wLjAxMTgzIGwgLTAuMTE0NDkyLC0wLjExMjcwNyBjIC0wLjAxNzc3LC0wLjAxNzg2IC0wLjAyMzY4LC0wLjA0MTUzIC0wLjA0MTUzLC0wLjA2NzU5IGwgLTAuMDY0MDUsLTAuMDU5MjggYyAtMC4wNDc0NCwtMC4wNTkyOCAtMC4xMTQ0ODEsLTAuMTIzOTg5IC0wLjE2MzEyNywtMC4xODg2NDYgdiAtMC4wMTc4MyBjIC0wLjAwNjIsLTAuMDA2MiAtMC4wMzU2MSwtMC4wMjM3NiAtMC4wMzU2MSwtMC4wMjk2OSAtMC4zMzQ1ODEsLTAuNDUwMjU4IC0wLjYzNTcwNCwtMC45MjQ0MjYgLTAuOTE1MDQ5LC0xLjQyMzU2NSAtMC4xMDY3NzksLTAuMjE5NDg3IC0wLjE5NjM1NywtMC40NTg1NjIgLTAuMjc3NjMsLTAuNjk1MzE0IC0wLjM3NjY5OSwtMS4wODc3NDQgLTAuNTY0NzUxLC0yLjQzNjAyNyAtMC40MzMwNTYsLTQuMTUxNTY3IDAuMDM1NjEsLTAuMzc2Njk3IDAuMDgxOSwtMC43NzA2NTkgMC4xMzgyMjQsLTEuMTk0NDAzIHYgLTAuMDE3NzggYyAwLjAzNTYsLTAuMTk0NTgyIDAuMDczNiwtMC40MDgxNDEgMC4xMDY3NzksLTAuNjI3ODc1IDAuMDgxOSwtMC40MzMwNDggMC4xODAzNDEsLTAuODc0MjMxIDAuMjk0ODMzLC0xLjM0OTgxNiB2IC0wLjAxNzg2IGwgMC4wOTkwNiwtMC4zNTE3NzkgMC4wODk1OCwtMC4zNTc3MTQgdiAtMC4wMTc3OCBjIDAuMjY5OTE2LC0wLjk4MDk1NiAwLjYxOTk3NywtMi4wMzU3MTIgMS4wNjg4NzIsLTMuMTgxNTI4IDAuMTA2Nzc5LC0wLjI4NzExNyAwLjIzMDc2LC0wLjU3ODk4MiAwLjM1MTc4MiwtMC44NzQyMyAwLjA5OTA3LC0wLjI0NTAwMiAwLjIwNTg0NSwtMC40ODE3MDEgMC4zMTIwMzUsLTAuNzI2NzY2IGwgMC41Nzg5OSwtMC4wMzU2MSB6IiBzdHlsZT0iZGlzcGxheTppbmxpbmU7c3Ryb2tlOiNmZmZmZmY7c3Ryb2tlLXdpZHRoOjIuMzIzO3N0cm9rZS1taXRlcmxpbWl0OjQ7c3Ryb2tlLWRhc2hhcnJheTpub25lO3N0cm9rZS1vcGFjaXR5OjEiLz4mI3hhOyAgICAgIDwvZz4mI3hhOyAgICAgIDxnIGlkPSJsYXllcjItOSIgaW5rc2NhcGU6bGFiZWw9IkxheWVyIDIiLz4mI3hhOyAgICA8L2c+JiN4YTsgIDwvZz4mI3hhOyAgPGcgaW5rc2NhcGU6Z3JvdXBtb2RlPSJsYXllciIgaWQ9ImxheWVyMiIgaW5rc2NhcGU6bGFiZWw9IkxheWVyIDIiLz4mI3hhOyAgPHN0eWxlIGlkPSJzdHlsZTg5OCI+c3ZnIHtlbmFibGUtYmFja2dyb3VuZDpuZXcgMCAwIDM2MCAzNjB9PC9zdHlsZT4mI3hhOyAgPHN0eWxlIGlkPSJzdHlsZTkwMCI+LnN0MHtmaWxsOm5vbmV9PC9zdHlsZT4mI3hhOzwvc3ZnPg==;" vertex="1" parent="KWQ4xnJLnPjV0gg7NQpi-17">
          <mxGeometry x="6.410000000000025" y="5.5" width="37.17" height="33" as="geometry" />
        </mxCell>
        <mxCell id="KWQ4xnJLnPjV0gg7NQpi-9" value="Airflow" style="text;html=1;resizable=0;autosize=1;align=left;verticalAlign=middle;points=[];fillColor=none;strokeColor=none;rounded=0;fontFamily=Roboto;fontSource=https%3A%2F%2Ffonts.googleapis.com%2Fcss%3Ffamily%3DRoboto;" vertex="1" parent="KWQ4xnJLnPjV0gg7NQpi-17">
          <mxGeometry x="49.99999999999994" y="13.5" width="50" height="20" as="geometry" />
        </mxCell>
        <mxCell id="KWQ4xnJLnPjV0gg7NQpi-18" value="" style="group" vertex="1" connectable="0" parent="wycD591nMWxJo0nDUt0m-1">
          <mxGeometry x="615" y="550" width="110" height="44" as="geometry" />
        </mxCell>
        <mxCell id="KWQ4xnJLnPjV0gg7NQpi-7" value="" style="strokeColor=#dddddd;shadow=1;strokeWidth=1;rounded=1;absoluteArcSize=1;arcSize=2;" vertex="1" parent="KWQ4xnJLnPjV0gg7NQpi-18">
          <mxGeometry width="110" height="44" as="geometry" />
        </mxCell>
        <mxCell id="KWQ4xnJLnPjV0gg7NQpi-6" value="" style="shape=image;verticalLabelPosition=bottom;labelBackgroundColor=#ffffff;verticalAlign=top;aspect=fixed;imageAspect=0;image=data:image/svg+xml,PHN2ZyB4bWxuczpkYz0iaHR0cDovL3B1cmwub3JnL2RjL2VsZW1lbnRzLzEuMS8iIHhtbG5zOmNjPSJodHRwOi8vY3JlYXRpdmVjb21tb25zLm9yZy9ucyMiIHhtbG5zOnJkZj0iaHR0cDovL3d3dy53My5vcmcvMTk5OS8wMi8yMi1yZGYtc3ludGF4LW5zIyIgeG1sbnM6c3ZnPSJodHRwOi8vd3d3LnczLm9yZy8yMDAwL3N2ZyIgeG1sbnM9Imh0dHA6Ly93d3cudzMub3JnLzIwMDAvc3ZnIiB4bWxuczpzb2RpcG9kaT0iaHR0cDovL3NvZGlwb2RpLnNvdXJjZWZvcmdlLm5ldC9EVEQvc29kaXBvZGktMC5kdGQiIHhtbG5zOmlua3NjYXBlPSJodHRwOi8vd3d3Lmlua3NjYXBlLm9yZy9uYW1lc3BhY2VzL2lua3NjYXBlIiB3aWR0aD0iOTguMDU4OTk4bW0iIGhlaWdodD0iODcuMzA5OTk4bW0iIHZpZXdCb3g9IjAgMCA5OC4wNTkwMDIgODcuMzA5OTk4IiB2ZXJzaW9uPSIxLjEiIGlkPSJzdmc2MiIgaW5rc2NhcGU6dmVyc2lvbj0iMS4wLjEgKGM0OTdiMDNjLCAyMDIwLTA5LTEwKSIgc29kaXBvZGk6ZG9jbmFtZT0iY2lyY2xlX3JlZGlzLnN2ZyI+JiN4YTsgIDxkZWZzIGlkPSJkZWZzNTYiPiYjeGE7ICAgIDxpbmtzY2FwZTpwYXRoLWVmZmVjdCBlZmZlY3Q9ImZpbGxldF9jaGFtZmVyIiBpZD0icGF0aC1lZmZlY3QxMDg4IiBpc192aXNpYmxlPSJ0cnVlIiBscGV2ZXJzaW9uPSIxIiBzYXRlbGxpdGVzX3BhcmFtPSJGLDAsMCwxLDAsMCwwLDEgQCBGLDAsMCwxLDAsMCwwLDEgQCBGLDAsMCwxLDAsMCwwLDEgQCBGLDAsMCwxLDAsMCwwLDEgQCBGLDAsMCwxLDAsMCwwLDEgQCBGLDAsMCwxLDAsMCwwLDEiIHVuaXQ9InB4IiBtZXRob2Q9ImF1dG8iIG1vZGU9IkYiIHJhZGl1cz0iMCIgY2hhbWZlcl9zdGVwcz0iMSIgZmxleGlibGU9ImZhbHNlIiB1c2Vfa25vdF9kaXN0YW5jZT0idHJ1ZSIgYXBwbHlfbm9fcmFkaXVzPSJ0cnVlIiBhcHBseV93aXRoX3JhZGl1cz0idHJ1ZSIgb25seV9zZWxlY3RlZD0iZmFsc2UiIGhpZGVfa25vdHM9ImZhbHNlIi8+JiN4YTsgICAgPGlua3NjYXBlOnBhdGgtZWZmZWN0IGVmZmVjdD0iZmlsbGV0X2NoYW1mZXIiIGlkPSJwYXRoLWVmZmVjdDEwNjgiIGlzX3Zpc2libGU9InRydWUiIGxwZXZlcnNpb249IjEiIHNhdGVsbGl0ZXNfcGFyYW09IkYsMCwwLDEsMCwwLDAsMSBAIEYsMCwwLDEsMCwzLjkxMTYzODEsMCwxIEAgRiwwLDAsMSwwLDAsMCwxIEAgRiwwLDAsMSwwLDEuMDgyOTc5NSwwLDEgQCBGLDAsMCwxLDAsMCwwLDEgQCBGLDAsMCwxLDAsMCwwLDEgQCBGLDAsMCwxLDAsMy4yMzUwNTk1LDAsMSBAIEYsMCwwLDEsMCwwLDAsMSBAIEYsMCwwLDEsMCwzLjIwOTAxMjgsMCwxIEAgRiwwLDAsMSwwLDAsMCwxIEAgRiwwLDAsMSwwLDMuNDg3ODExNywwLDEgQCBGLDAsMCwxLDAsMCwwLDEgQCBGLDAsMCwxLDAsMy43MTUxNzIsMCwxIEAgRiwwLDAsMSwwLDAsMCwxIEAgRiwwLDAsMSwwLDAsMCwxIiB1bml0PSJweCIgbWV0aG9kPSJhdXRvIiBtb2RlPSJGIiByYWRpdXM9IjAiIGNoYW1mZXJfc3RlcHM9IjEiIGZsZXhpYmxlPSJmYWxzZSIgdXNlX2tub3RfZGlzdGFuY2U9InRydWUiIGFwcGx5X25vX3JhZGl1cz0idHJ1ZSIgYXBwbHlfd2l0aF9yYWRpdXM9InRydWUiIG9ubHlfc2VsZWN0ZWQ9ImZhbHNlIiBoaWRlX2tub3RzPSJmYWxzZSIvPiYjeGE7ICAgIDxwYXRoIGlkPSJwYXRoMF9maWxsIiBkPSJNIDEuNzQ0OTggNS40NzUzM0MgMS43NDQ5OCA3LjAzMzM1IDEuNjIwMzQgNy41NDA4MiAxLjI5OTgzIDcuOTE0NzRDIDAuOTQzMTE5IDguMjM1OTUgMC40ODAwMjQgOC40MTM1OCAwIDguNDEzMzFMIDAuMTI0NjQyIDkuMzAzNkMgMC44Njg4NCA5LjMxMzY2IDEuNTkwOTUgOS4wNTA3OCAyLjE1NDUyIDguNTY0NjZDIDIuNDU3NzUgOC4xOTQ4NyAyLjY4MzQgNy43Njc4MSAyLjgxOCA3LjMwODkzQyAyLjk1MjYxIDYuODUwMDUgMi45OTM0MSA2LjM2ODc2IDIuOTM3OTggNS44OTM3N0wgMi45Mzc5OCAwTCAxLjc0NDk4IDBMIDEuNzQ0OTggNS40Mzk3MkwgMS43NDQ5OCA1LjQ3NTMzWiIvPiYjeGE7ICAgIDxwYXRoIGlkPSJwYXRoMV9maWxsIiBkPSJNIDUuNTAyMDQgNC43NjMwOUMgNS41MDIwNCA1LjQzMDgxIDUuNTAyMDQgNi4wMjczMSA1LjU1NTQ1IDYuNTQzNjhMIDQuNDk2IDYuNTQzNjhMIDQuNDI0NzggNS40ODQyM0MgNC4yMDMxOCA1Ljg1OTA5IDMuODg2MjcgNi4xNjg1OCAzLjUwNjI4IDYuMzgxMjVDIDMuMTI2MjggNi41OTM5MiAyLjY5Njc1IDYuNzAyMTkgMi4yNjEzNSA2LjY5NTAzQyAxLjIyODYxIDYuNjk1MDMgMCA2LjEzNDE1IDAgMy44NDYwOEwgMCAwLjA0NDUxNDlMIDEuMTkzIDAuMDQ0NTE0OUwgMS4xOTMgMy42MDU3QyAxLjE5MyA0Ljg0MzIyIDEuNTc1ODMgNS42NzExOSAyLjY1MzA5IDUuNjcxMTlDIDIuODc0NzIgNS42NzM1OCAzLjA5NDU5IDUuNjMxNjggMy4yOTk4MiA1LjU0Nzk2QyAzLjUwNTA1IDUuNDY0MjQgMy42OTE0OSA1LjM0MDM5IDMuODQ4MjIgNS4xODM2NkMgNC4wMDQ5NCA1LjAyNjk0IDQuMTI4OCA0Ljg0MDQ5IDQuMjEyNTIgNC42MzUyN0MgNC4yOTYyMyA0LjQzMDA0IDQuMzM4MTMgNC4yMTAxNiA0LjMzNTc1IDMuOTg4NTNMIDQuMzM1NzUgMEwgNS41Mjg3NCAwTCA1LjUyODc0IDQuNzI3NDhMIDUuNTAyMDQgNC43NjMwOVoiLz4mI3hhOyAgICA8cGF0aCBpZD0icGF0aDJfZmlsbCIgZD0iTSAwLjA1MzQxNzggMi4yNzI2NEMgMC4wNTM0MTc4IDEuNDQ0NjYgMC4wNTM0MTc4IDAuNzY4MDM2IDAgMC4xNTM3MzFMIDEuMDY4MzYgMC4xNTM3MzFMIDEuMTIxNzcgMS4yNjY2QyAxLjM1OTggMC44NjQ1MzUgMS43MDI0NyAwLjUzNDU5NCAyLjExMzI1IDAuMzExOTU0QyAyLjUyNDA0IDAuMDg5MzE0NSAyLjk4NzU0IC0wLjAxNzY3ODYgMy40NTQzNSAwLjAwMjM4MDk1QyA1LjAzOTA4IDAuMDAyMzgwOTUgNi4yMzIwOCAxLjMyODkyIDYuMjMyMDggMy4zMDUzOEMgNi4yMzIwOCA1LjYzNzk2IDQuNzk4NyA2Ljc5NTM1IDMuMjQ5NTggNi43OTUzNUMgMi44NTMwOSA2LjgxMzA0IDIuNDU4NzQgNi43MjgxIDIuMTA0NjkgNi41NDg3NEMgMS43NTA2NCA2LjM2OTM3IDEuNDQ4ODggNi4xMDE2NiAxLjIyODYxIDUuNzcxNTFMIDEuMjI4NjEgNS43NzE1MUwgMS4yMjg2MSA5LjMzMjY5TCAwLjA1MzQxNzggOS4zMzI2OUwgMC4wNTM0MTc4IDIuMjk5MzVMIDAuMDUzNDE3OCAyLjI3MjY0Wk0gMS4yMjg2MSA0LjAwODcyQyAxLjIzMTg0IDQuMTcwMjYgMS4yNDk3MiA0LjMzMTE3IDEuMjgyMDMgNC40ODk0OEMgMS4zODMwNCA0Ljg4NDc5IDEuNjEyOTkgNS4yMzUxMyAxLjkzNTQ4IDUuNDg1MDZDIDIuMjU3OTggNS43MzUgMi42NTQ2MSA1Ljg3MDI2IDMuMDYyNjIgNS44Njk0NEMgNC4zMTc5NCA1Ljg2OTQ0IDUuMDU2ODkgNC44NDU2IDUuMDU2ODkgMy4zNTg4QyA1LjA1Njg5IDIuMDU4OTcgNC4zNjI0NiAwLjk0NjA5NiAzLjEwNzE0IDAuOTQ2MDk2QyAyLjYxMDM2IDAuOTg2Nzc3IDIuMTQ1NDggMS4yMDcyNiAxLjc5OTY1IDEuNTY2MkMgMS40NTM4MiAxLjkyNTE0IDEuMjUwNzkgMi4zOTc5IDEuMjI4NjEgMi44OTU4NUwgMS4yMjg2MSA0LjAwODcyWiIvPiYjeGE7ICAgIDxwYXRoIGlkPSJwYXRoM19maWxsIiBkPSJNIDEuMzE3NjQgMC4wMTc4MDU5TCAyLjc1MTAyIDMuODU0OTlDIDIuOTAyMzcgNC4yODIzMyAzLjA2MjYyIDQuNzk4NyAzLjE2OTQ2IDUuMTgxNTNDIDMuMjk0MSA0Ljc4OTggMy40Mjc2NCA0LjI5MTIzIDMuNTg3OSAzLjgyODI4TCA0Ljg4NzczIDAuMDE3ODA1OUwgNi4xNDMwNSAwLjAxNzgwNTlMIDQuMzYyNDYgNC42NDczNUMgMy40NzIxNiA2Ljg3MzA5IDIuOTI5MDggOC4wMjE1OCAyLjExIDguNzE2MDFDIDEuNjk3NDUgOS4wOTI4MyAxLjE5NDQ4IDkuMzU2NTggMC42NDk5MTcgOS40ODE2NkwgMC4zNTYxMTkgOC40ODQ1M0MgMC43MzY4ODYgOC4zNTk0MiAxLjA5MDM4IDguMTYzMDQgMS4zOTc3NyA3LjkwNTg0QyAxLjgzMjEgNy41NTE4OCAyLjE3Njc4IDcuMTAwNDQgMi40MDM4IDYuNTg4MkMgMi40NTIzOSA2LjQ5OTQ5IDIuNDg1NTEgNi40MDMxNCAyLjUwMTczIDYuMzAzM0MgMi40OTE2MSA2LjE5NTg2IDIuNDY0NTcgNi4wOTA3IDIuNDIxNjEgNS45OTE3TCAwIDBMIDEuMjk5ODMgMEwgMS4zMTc2NCAwLjAxNzgwNTlaIi8+JiN4YTsgICAgPHBhdGggaWQ9InBhdGg0X2ZpbGwiIGQ9Ik0gMi4xOTAxMyAwTCAyLjE5MDEzIDEuODY5NjJMIDMuODk5NSAxLjg2OTYyTCAzLjg5OTUgMi43NTk5MkwgMi4xOTAxMyAyLjc1OTkyTCAyLjE5MDEzIDYuMjY3NjlDIDIuMTkwMTMgNy4wNjg5NiAyLjQyMTYxIDcuNTMxOTEgMy4wODA0MyA3LjUzMTkxQyAzLjMxNDQyIDcuNTM1NzQgMy41NDc4OSA3LjUwODggMy43NzQ4NiA3LjQ1MTc5TCAzLjgyODI4IDguMzQyMDhDIDMuNDg3OTQgOC40NTk5OSAzLjEyODgxIDguNTE0MzEgMi43Njg4MiA4LjUwMjM0QyAyLjUzMDQyIDguNTE3MjYgMi4yOTE2MSA4LjQ4MDQzIDIuMDY4NzggOC4zOTQzN0MgMS44NDU5NSA4LjMwODMxIDEuNjQ0MzggOC4xNzUwNiAxLjQ3Nzg5IDguMDAzNzdDIDEuMTE1MjUgNy41MTg3MyAwLjk0OTgyNiA2LjkxNDMxIDEuMDE0OTQgNi4zMTIyMUwgMS4wMTQ5NCAyLjc1MTAyTCAwIDIuNzUxMDJMIDAgMS44NjA3MkwgMS4wMzI3NCAxLjg2MDcyTCAxLjAzMjc0IDAuMjc1OTkyTCAyLjE5MDEzIDBaIi8+JiN4YTsgICAgPHBhdGggaWQ9InBhdGg1X2ZpbGwiIGQ9Ik0gMS4xNzcxNiAzLjU3ODk5QyAxLjE1MyAzLjg4MDkzIDEuMTk0NjggNC4xODQ1MSAxLjI5OTMzIDQuNDY4NzZDIDEuNDAzOTggNC43NTMwMSAxLjU2OTEgNS4wMTExNCAxLjc4MzI5IDUuMjI1MzJDIDEuOTk3NDcgNS40Mzk1MSAyLjI1NTYgNS42MDQ2MyAyLjUzOTg1IDUuNzA5MjhDIDIuODI0MSA1LjgxMzkzIDMuMTI3NjggNS44NTU2MSAzLjQyOTYyIDUuODMxNDVDIDQuMDQwMzMgNS44NDUxMSA0LjY0NzA2IDUuNzI5ODMgNS4yMTAyMSA1LjQ5MzEzTCA1LjQxNDk4IDYuMzgzNDNDIDQuNzIzOTMgNi42NjgwOSAzLjk4MDg1IDYuODA0NTggMy4yMzM3NSA2Ljc4NDA2QyAyLjc5ODIxIDYuODEzODggMi4zNjEzOCA2Ljc0OTE0IDEuOTUzMjIgNi41OTQyN0MgMS41NDUwNSA2LjQzOTQxIDEuMTc1MjIgNi4xOTgwOSAwLjg2OTA3MSA1Ljg4Njg4QyAwLjU2MjkyOCA1LjU3NTY2IDAuMzI3NzIzIDUuMjAxOSAwLjE3OTU5MSA0Ljc5MTI1QyAwLjAzMTQ1ODQgNC4zODA1OSAtMC4wMjYwOTYyIDMuOTQyNzYgMC4wMTA4NzQ4IDMuNTA3NzdDIDAuMDEwODc0OCAxLjU0OTEyIDEuMTc3MTYgMCAzLjA4MjQgMEMgNS4yMTkxMSAwIDUuNzUzMjkgMS44Njk2MiA1Ljc1MzI5IDMuMDYyNjJDIDUuNzY0NzEgMy4yNDY0NCA1Ljc2NDcxIDMuNDMwNzkgNS43NTMyOSAzLjYxNDYxTCAxLjE1MDQ2IDMuNjE0NjFMIDEuMTc3MTYgMy41Nzg5OVpNIDQuNjY3MTMgMi42ODg3QyA0LjcwMTQ5IDIuNDUwNjcgNC42ODQ0MyAyLjIwODA1IDQuNjE3MDkgMS45NzcxOEMgNC41NDk3NiAxLjc0NjMxIDQuNDMzNzIgMS41MzI1NSA0LjI3NjggMS4zNTAzMUMgNC4xMTk4NyAxLjE2ODA4IDMuOTI1NzEgMS4wMjE2IDMuNzA3MzkgMC45MjA3NDRDIDMuNDg5MDcgMC44MTk4OSAzLjI1MTY2IDAuNzY3MDA2IDMuMDExMTggMC43NjU2NTZDIDIuNTIyMDEgMC44MDEwNjQgMi4wNjM3MSAxLjAxNzg4IDEuNzI2MDkgMS4zNzM2MkMgMS4zODg0NyAxLjcyOTM1IDEuMTk1ODggMi4xOTgzNSAxLjE4NjA3IDIuNjg4N0wgNC42NjcxMyAyLjY4ODdaIi8+JiN4YTsgICAgPHBhdGggaWQ9InBhdGg2X2ZpbGwiIGQ9Ik0gMC4wNTM0MTc4IDIuMTkyMjhDIDAuMDUzNDE3OCAxLjQyNjYzIDAuMDUzNDE3OCAwLjc2NzgwNiAwIDAuMTYyNDA0TCAxLjA2ODM2IDAuMTYyNDA0TCAxLjA2ODM2IDEuNDM1NTNMIDEuMTIxNzcgMS40MzU1M0MgMS4yMzM5MSAxLjA0MjU5IDEuNDY1NiAwLjY5NDMxNCAxLjc4NDY4IDAuNDM5MDQ5QyAyLjEwMzc2IDAuMTgzNzgzIDIuNDk0NCAwLjAzNDE5NiAyLjkwMjM3IDAuMDExMDUzOEMgMy4wMTQ2NiAtMC4wMDM2ODQ1OSAzLjEyODM5IC0wLjAwMzY4NDU5IDMuMjQwNjggMC4wMTEwNTM4TCAzLjI0MDY4IDEuMTIzOTNDIDMuMTA0NjIgMS4xMDgxNyAyLjk2NzIgMS4xMDgxNyAyLjgzMTE0IDEuMTIzOTNDIDIuNDI3IDEuMTM5NTggMi4wNDIzNyAxLjMwMTgyIDEuNzQ5MSAxLjU4MDM1QyAxLjQ1NTgzIDEuODU4ODcgMS4yNzM5OCAyLjIzNDYyIDEuMjM3NTEgMi42Mzc0M0MgMS4yMDQyMiAyLjgxOTYgMS4xODYzNSAzLjAwNDI1IDEuMTg0MSAzLjE4OTQxTCAxLjE4NDEgNi42NTI2N0wgMC4wMDg5MDI5NyA2LjY1MjY3TCAwLjAwODkwMjk3IDIuMjAxMThMIDAuMDUzNDE3OCAyLjE5MjI4WiIvPiYjeGE7ICAgIDxwYXRoIGlkPSJwYXRoN19maWxsIiBkPSJNIDYuMDMwNTkgMi44MzU2NUMgNi4wNjcxNSAzLjQzMzc2IDUuOTI0ODUgNC4wMjkyMSA1LjYyMTggNC41NDYxNUMgNS4zMTg3NSA1LjA2MzEgNC44Njg2OSA1LjQ3ODEzIDQuMzI4OTMgNS43MzgzOUMgMy43ODkxNyA1Ljk5ODY0IDMuMTg0MTYgNi4wOTIzMyAyLjU5MDk3IDYuMDA3NTNDIDEuOTk3NzggNS45MjI3MiAxLjQ0MzI2IDUuNjYzMjYgMC45OTgwNDggNS4yNjIxOUMgMC41NTI4MzcgNC44NjExMyAwLjIzNzA5IDQuMzM2NjEgMC4wOTEwMzA3IDMuNzU1NDZDIC0wLjA1NTAyODcgMy4xNzQzMSAtMC4wMjQ3ODkxIDIuNTYyODMgMC4xNzc4OTcgMS45OTg5M0MgMC4zODA1ODMgMS40MzUwMyAwLjc0NjU0MSAwLjk0NDIyMSAxLjIyOTE1IDAuNTg5MDM3QyAxLjcxMTc2IDAuMjMzODUzIDIuMjg5MTggMC4wMzAzNjg2IDIuODg3ODQgMC4wMDQ1MDU0M0MgMy4yODAzNSAtMC4wMTcwOTMyIDMuNjczMjYgMC4wMzkxMTQ0IDQuMDQzOTYgMC4xNjk4OTZDIDQuNDE0NjcgMC4zMDA2NzcgNC43NTU4NyAwLjUwMzQ1MyA1LjA0Nzk0IDAuNzY2NTYxQyA1LjM0IDEuMDI5NjcgNS41NzcxOCAxLjM0NzkyIDUuNzQ1ODIgMS43MDMwMUMgNS45MTQ0NiAyLjA1ODEgNi4wMTEyNCAyLjQ0MzAzIDYuMDMwNTkgMi44MzU2NUwgNi4wMzA1OSAyLjgzNTY1WiIvPiYjeGE7ICAgIDxwYXRoIGlkPSJwYXRoOF9maWxsIiBkPSJNIDE4LjY5NjIgNy4xMjIzOEMgMTAuNjgzNiA3LjEyMjM4IDMuNjQxMzEgNC4yNDY3MiAwIDBDIDEuNDEyODQgMy44MjA0MSAzLjk2MjE1IDcuMTE2MyA3LjMwNDc5IDkuNDQ0MDRDIDEwLjY0NzQgMTEuNzcxOCAxNC42MjMgMTMuMDE5NiAxOC42OTYyIDEzLjAxOTZDIDIyLjc2OTUgMTMuMDE5NiAyNi43NDUgMTEuNzcxOCAzMC4wODc3IDkuNDQ0MDRDIDMzLjQzMDMgNy4xMTYzIDM1Ljk3OTYgMy44MjA0MSAzNy4zOTI1IDQuMDQ4NmUtMTNDIDMzLjc2MDEgNC4yNDY3MiAyNi43NDQ1IDcuMTIyMzggMTguNjk2MiA3LjEyMjM4WiIvPiYjeGE7ICAgIDxwYXRoIGlkPSJwYXRoOV9maWxsIiBkPSJNIDE4LjY5NjIgNS44OTcyNUMgMjYuNzA4OSA1Ljg5NzI1IDMzLjc1MTIgOC43NzI5MSAzNy4zOTI1IDEzLjAxOTZDIDM1Ljk3OTYgOS4xOTkyMiAzMy40MzAzIDUuOTAzMzMgMzAuMDg3NyAzLjU3NTU5QyAyNi43NDUgMS4yNDc4NSAyMi43Njk1IDQuMDQ4NmUtMTMgMTguNjk2MiAwQyAxNC42MjMgNC4wNDg2ZS0xMyAxMC42NDc0IDEuMjQ3ODUgNy4zMDQ3OSAzLjU3NTU5QyAzLjk2MjE1IDUuOTAzMzMgMS40MTI4NCA5LjE5OTIyIDAgMTMuMDE5NkMgMy42NDEzMSA4Ljc2NDAxIDEwLjY0OCA1Ljg5NzI1IDE4LjY5NjIgNS44OTcyNVoiLz4mI3hhOyAgICA8cGF0aCBpZD0icGF0aDEwX2ZpbGwiIGQ9Ik0gNy41OTU3NiAzLjU2NjU2QyA3LjY0Mjc2IDQuMzE5OTIgNy40NjQ0MiA1LjA3MDIyIDcuMDgzNDcgNS43MjE4NkMgNi43MDI1MSA2LjM3MzUgNi4xMzYxOSA2Ljg5Njk4IDUuNDU2NjYgNy4yMjU2MUMgNC43NzcxMyA3LjU1NDI0IDQuMDE1MTUgNy42NzMxNCAzLjI2NzgxIDcuNTY3MTZDIDIuNTIwNDYgNy40NjExNyAxLjgyMTU4IDcuMTM1MTEgMS4yNjAyMSA2LjYzMDUxQyAwLjY5ODgzOSA2LjEyNTkxIDAuMzAwMzk0IDUuNDY1NjEgMC4xMTU2MzcgNC43MzM3NUMgLTAuMDY5MTE5MSA0LjAwMTg4IC0wLjAzMTgyMTkgMy4yMzE1OSAwLjIyMjc3NyAyLjUyMDk5QyAwLjQ3NzM3NiAxLjgxMDQgMC45Mzc3NSAxLjE5MTY5IDEuNTQ1MjQgMC43NDM2ODVDIDIuMTUyNzQgMC4yOTU2NzggMi44Nzk4NSAwLjAzODY1OTUgMy42MzM5NCAwLjAwNTM3NTg5QyA0LjEyNzkzIC0wLjAyMTA0NzEgNC42MjIyOSAwLjA1MDExNzMgNS4wODg3OCAwLjIxNDgwM0MgNS41NTUyNiAwLjM3OTQ5IDUuOTg0NzMgMC42MzQ0NyA2LjM1MjY0IDAuOTY1MTc5QyA2LjcyMDU1IDEuMjk1ODkgNy4wMTk3MSAxLjY5NTg0IDcuMjMzIDIuMTQyMkMgNy40NDYzIDIuNTg4NTUgNy41Njk1NyAzLjA3MjU2IDcuNTk1NzYgMy41NjY1NkwgNy41OTU3NiAzLjU2NjU2WiIvPiYjeGE7ICAgIDxwYXRoIGlkPSJwYXRoMTFfZmlsbCIgZD0iTSAyLjI1MDYxIDQuMzc5NDNDIDEuODE4ODYgNC4zOTEzNSAxLjM5MzIyIDQuMjc1MzUgMS4wMjcyMiA0LjA0NjAyQyAwLjY2MTIyNCAzLjgxNjY4IDAuMzcxMjA2IDMuNDg0MjQgMC4xOTM2NDEgMy4wOTA1MkMgMC4wMTYwNzYyIDIuNjk2NzkgLTAuMDQxMTA3OCAyLjI1OTM1IDAuMDI5MjgwNCAxLjgzMzIxQyAwLjA5OTY2ODYgMS40MDcwNyAwLjI5NDQ4NiAxLjAxMTI1IDAuNTg5MjMzIDAuNjk1NTQyQyAwLjg4Mzk4MSAwLjM3OTgzIDEuMjY1NSAwLjE1ODMxNiAxLjY4NTgxIDAuMDU4ODU3N0MgMi4xMDYxMSAtMC4wNDA2MDA1IDIuNTQ2NDQgLTAuMDEzNTYyMiAyLjk1MTQzIDAuMTM2NTcyQyAzLjM1NjQxIDAuMjg2NzA3IDMuNzA3OTYgMC41NTMyMzQgMy45NjE4NiAwLjkwMjYzNkMgNC4yMTU3NyAxLjI1MjA0IDQuMzYwNyAxLjY2ODcyIDQuMzc4NDIgMi4xMDAyN0MgNC4zOTUyOSAyLjY4MzggNC4xODEzMSAzLjI1MDQ0IDMuNzgyOTMgMy42NzcxNUMgMy4zODQ1NSA0LjEwMzg3IDIuODMzOTIgNC4zNTYyMyAyLjI1MDYxIDQuMzc5NDNaIi8+JiN4YTsgIDwvZGVmcz4mI3hhOyAgPHNvZGlwb2RpOm5hbWVkdmlldyBpZD0iYmFzZSIgcGFnZWNvbG9yPSIjZmZmZmZmIiBib3JkZXJjb2xvcj0iIzY2NjY2NiIgYm9yZGVyb3BhY2l0eT0iMS4wIiBpbmtzY2FwZTpwYWdlb3BhY2l0eT0iMC4wIiBpbmtzY2FwZTpwYWdlc2hhZG93PSIyIiBpbmtzY2FwZTp6b29tPSIxLjYxNjAyNTciIGlua3NjYXBlOmN4PSIzMS42NDU4MTYiIGlua3NjYXBlOmN5PSIxNzUuOTQ4ODMiIGlua3NjYXBlOmRvY3VtZW50LXVuaXRzPSJtbSIgaW5rc2NhcGU6Y3VycmVudC1sYXllcj0iZzEwODIiIGlua3NjYXBlOmRvY3VtZW50LXJvdGF0aW9uPSIwIiBzaG93Z3JpZD0iZmFsc2UiIGlua3NjYXBlOnNuYXAtZ2xvYmFsPSJ0cnVlIiBpbmtzY2FwZTp3aW5kb3ctd2lkdGg9IjE4MjkiIGlua3NjYXBlOndpbmRvdy1oZWlnaHQ9Ijk2NyIgaW5rc2NhcGU6d2luZG93LXg9IjkiIGlua3NjYXBlOndpbmRvdy15PSI2OSIgaW5rc2NhcGU6d2luZG93LW1heGltaXplZD0iMCIvPiYjeGE7ICA8bWV0YWRhdGEgaWQ9Im1ldGFkYXRhNTkiPiYjeGE7ICAgIDxyZGY6UkRGPiYjeGE7ICAgICAgPGNjOldvcmsgcmRmOmFib3V0PSIiPiYjeGE7ICAgICAgICA8ZGM6Zm9ybWF0PmltYWdlL3N2Zyt4bWw8L2RjOmZvcm1hdD4mI3hhOyAgICAgICAgPGRjOnR5cGUgcmRmOnJlc291cmNlPSJodHRwOi8vcHVybC5vcmcvZGMvZGNtaXR5cGUvU3RpbGxJbWFnZSIvPiYjeGE7ICAgICAgICA8ZGM6dGl0bGUvPiYjeGE7ICAgICAgPC9jYzpXb3JrPiYjeGE7ICAgIDwvcmRmOlJERj4mI3hhOyAgPC9tZXRhZGF0YT4mI3hhOyAgPGcgaW5rc2NhcGU6bGFiZWw9IkxheWVyIDEiIGlua3NjYXBlOmdyb3VwbW9kZT0ibGF5ZXIiIGlkPSJsYXllcjEiIHN0eWxlPSJkaXNwbGF5OmlubGluZSI+JiN4YTsgICAgPGNpcmNsZSBzdHlsZT0iZmlsbDojMDM4ZWNkO2ZpbGwtb3BhY2l0eToxO2ZpbGwtcnVsZTpldmVub2RkO3N0cm9rZS13aWR0aDowLjI2NDU4MyIgaWQ9InBhdGgzNCIgY3g9IjQ5LjM2Mjk5OSIgY3k9IjQzLjc5NjM1NiIgcj0iNDMuNDY4OTEiLz4mI3hhOyAgICA8ZyBpZD0iZzk1NyIgdHJhbnNmb3JtPSJ0cmFuc2xhdGUoMTcuNDQyNTk0LC0zMi42ODU2NjUpIj4mI3hhOyAgICAgIDxnIHN0eWxlPSJkaXNwbGF5OmlubGluZSIgaWQ9ImxheWVyMS01IiBpbmtzY2FwZTpsYWJlbD0iTGF5ZXIgMSIvPiYjeGE7ICAgICAgPGcgaW5rc2NhcGU6bGFiZWw9IkxheWVyIDIiIGlkPSJsYXllcjItNCIvPiYjeGE7ICAgIDwvZz4mI3hhOyAgICA8ZyBpZD0iZzEwMDYiIHRyYW5zZm9ybT0idHJhbnNsYXRlKDQuMDE3MTY4NSwtMzMuNTA0Mjg4KSI+JiN4YTsgICAgICA8ZyBpbmtzY2FwZTpsYWJlbD0iTGF5ZXIgMSIgaWQ9ImxheWVyMS00IiBzdHlsZT0iZGlzcGxheTppbmxpbmUiPiYjeGE7ICAgICAgICA8ZyBpZD0iZzEwODIiIHRyYW5zZm9ybT0ibWF0cml4KDEuMzIyOTE2NywwLDAsMS4zMjI5MTY3LDE0LjU1NDQyNSw0Ny4zODkwNTYpIj4mI3hhOyAgICAgICAgICA8cGF0aCBmaWxsPSIjYjcxYzFjIiBkPSJtIDQ0LjUwNDk1OCwyOC4wNzgzOTYgYyAwLC0wLjYzNyAtMS42ODYsLTEuMTUzIC0zLjc2OSwtMS4xNTMgLTEuODEyLDAgLTMuMzIsMC4zOTEgLTMuNjgzLDAuOTExIC0zLjU4NiwtMS42OTQgLTcuMTczLC0zLjM4OCAtMTAuNzU5LC01LjA4MyAtMS4yNDgsLTAuNTkgLTIuNjczLC0wLjU4NCAtMy45MTgsMC4wMTQgLTMuODE4LDEuODM3IC03LjYzNiwzLjY3NCAtMTEuNDU0LDUuNTExIC0wLjg2NCwtMC4xMjYgLTEuOTA2OTk5NiwtMC4yMDEgLTMuMDMxOTk5NiwtMC4yMDEgLTIuOTc3LDAuMDAxIC01LjM4NSwwLjUxNyAtNS4zODUsMS4xNTQgdiAzLjQ2IGMgMCwwLjAzMyAwLjAzMywwLjA2NCAwLjA0NSwwLjA5NiAtMC4xNDYsMC41NTUgMC4wNywxLjIwNSAwLjY0OSwxLjQ3OCA1LjY0MSwyLjY2NSAxMS4yODA5OTk2LDUuMzI5IDE2LjkyMTk5OTYsNy45OTQgMS40MzIsMC42NzcgMy4wNjgsMC42NzEgNC40OTYsLTAuMDE2IDYuNDQyLC0zLjEgMTIuODg0LC02LjE5OSAxOS4zMjcsLTkuMjk5IDAuNDg0LC0wLjIzMyAwLjY1MSwtMC43ODYgMC41MDksLTEuMjQ3IDAuMDIzLC0wLjA1MyAwLjA1MiwtMC4xMDUgMC4wNTIsLTAuMTYgeiIgaWQ9InBhdGgxMDQxIiBzdHlsZT0iZmlsbDojZmZmZmZmO2ZpbGwtb3BhY2l0eToxO3N0cm9rZTojMDM4ZWNkO3N0cm9rZS13aWR0aDoxLjAwMDA2O3N0cm9rZS1taXRlcmxpbWl0OjQ7c3Ryb2tlLWRhc2hhcnJheTpub25lO3N0cm9rZS1vcGFjaXR5OjEiLz4mI3hhOyAgICAgICAgICA8cGF0aCBmaWxsPSIjZTUzOTM1IiBkPSJtIDIwLjEyMDk1OCwzNy45MjAzOTYgYyAtNS42NDEsLTIuNTIyIC0xMS4yODA5OTk2LC01LjA0NCAtMTYuOTIxOTk5NiwtNy41NjYgLTAuOTIyLC0wLjQxMiAtMC45MjYsLTEuNzI3IC0wLjAwNywtMi4xNDYgNi4zOTUsLTIuOTEyIDEyLjc4ODk5OTYsLTUuODI0IDE5LjE4Mzk5OTYsLTguNzM2IDEuMjQ0LC0wLjU2NyAyLjY3LC0wLjU3MiAzLjkxOCwtMC4wMTQgNS44ODEsMi42MyAxMS43NjMsNS4yNTkgMTcuNjQ0LDcuODg5IDAuNzU0LDAuMzM3IDAuNzU4LDEuNDE0IDAuMDA2LDEuNzU2IC02LjQ0MiwyLjkzNCAtMTIuODg0LDUuODY4IC0xOS4zMjcsOC44MDEgLTEuNDI4LDAuNjUgLTMuMDY0LDAuNjU2IC00LjQ5NiwwLjAxNiB6IiBpZD0icGF0aDEwNDMiIHN0eWxlPSJmaWxsOiNmZmZmZmY7ZmlsbC1vcGFjaXR5OjE7c3Ryb2tlOiMwMzhlY2Q7c3Ryb2tlLW9wYWNpdHk6MSIvPiYjeGE7ICAgICAgICAgIDxwYXRoIGZpbGw9IiNiNzFjMWMiIGQ9Im0gNDQuNTA0OTU4LDIwLjQzNzM5NiBjIDAsLTAuNjM3IC0xLjY4NiwtMS4xNTMgLTMuNzY5LC0xLjE1MyAtMS44MTIsMCAtMy4zMiwwLjM5MSAtMy42ODMsMC45MTEgLTMuNTg2LC0xLjY5NCAtNy4xNzMsLTMuMzg4IC0xMC43NTksLTUuMDgzIC0xLjI0OCwtMC41OSAtMi42NzMsLTAuNTg0IC0zLjkxOCwwLjAxNCAtMy44MTgsMS44MzcgLTcuNjM2LDMuNjc0IC0xMS40NTQsNS41MTEgLTAuODY0LC0wLjEyNiAtMS45MDY5OTk2LC0wLjIwMSAtMy4wMzE5OTk2LC0wLjIwMSAtMi45NzcsMC4wMDEgLTUuMzg1LDAuNTE4IC01LjM4NSwxLjE1NSB2IDMuNDYgYyAwLDAuMDMzIDAuMDMzLDAuMDY0IDAuMDQ1LDAuMDk2IC0wLjE0NiwwLjU1NSAwLjA3LDEuMjA1IDAuNjQ5LDEuNDc4IDUuNjQxLDIuNjY1IDExLjI4MDk5OTYsNS4zMjkgMTYuOTIxOTk5Niw3Ljk5NCAxLjQzMiwwLjY3NyAzLjA2OCwwLjY3MSA0LjQ5NiwtMC4wMTYgNi40NDIsLTMuMSAxMi44ODQsLTYuMTk5IDE5LjMyNywtOS4yOTkgMC40ODQsLTAuMjMzIDAuNjUxLC0wLjc4NiAwLjUwOSwtMS4yNDcgMC4wMjMsLTAuMDUzIDAuMDUyLC0wLjEwNSAwLjA1MiwtMC4xNiB6IiBpZD0icGF0aDEwNDUiIHN0eWxlPSJmaWxsOiNmZmZmZmY7ZmlsbC1vcGFjaXR5OjE7c3Ryb2tlOiMwMzhlY2Q7c3Ryb2tlLXdpZHRoOjEuMDAwMDY7c3Ryb2tlLW1pdGVybGltaXQ6NDtzdHJva2UtZGFzaGFycmF5Om5vbmU7c3Ryb2tlLW9wYWNpdHk6MSIvPiYjeGE7ICAgICAgICAgIDxwYXRoIGZpbGw9IiNlNTM5MzUiIGQ9Im0gMjAuMTIwOTU4LDMwLjI3OTM5NiBjIC01LjY0MSwtMi41MjIgLTExLjI4MDk5OTYsLTUuMDQ0IC0xNi45MjE5OTk2LC03LjU2NiAtMC45MjIsLTAuNDEyIC0wLjkyNiwtMS43MjcgLTAuMDA3LC0yLjE0NiA2LjM5NSwtMi45MTIgMTIuNzg4OTk5NiwtNS44MjQgMTkuMTgzOTk5NiwtOC43MzYgMS4yNDQsLTAuNTY3IDIuNjcsLTAuNTcyIDMuOTE4LC0wLjAxNCA1Ljg4MSwyLjYzIDExLjc2Myw1LjI1OSAxNy42NDQsNy44ODkgMC43NTQsMC4zMzcgMC43NTgsMS40MTQgMC4wMDYsMS43NTYgLTYuNDQyLDIuOTM0IC0xMi44ODQsNS44NjggLTE5LjMyNyw4LjgwMSAtMS40MjgsMC42NTEgLTMuMDY0LDAuNjU3IC00LjQ5NiwwLjAxNiB6IiBpZD0icGF0aDEwNDciIHN0eWxlPSJmaWxsOiNmZmZmZmY7ZmlsbC1vcGFjaXR5OjE7c3Ryb2tlOiMwMzhlY2Q7c3Ryb2tlLW9wYWNpdHk6MSIvPiYjeGE7ICAgICAgICAgIDxwYXRoIGZpbGw9IiNiNzFjMWMiIGQ9Im0gNDQuNTA0OTU4LDEyLjc5NzM5NiBjIDAsLTAuNjM3IC0xLjY4NiwtMS4xNTMgLTMuNzY5LC0xLjE1MyAtMS44MTIsMCAtMy4zMiwwLjM5MSAtMy42ODMsMC45MTEgLTMuNTg2LC0xLjY5NCAtNy4xNzMsLTMuMzg4IC0xMC43NTksLTUuMDgzIC0xLjI0OCwtMC41OSAtMi42NzMsLTAuNTg0IC0zLjkxOCwwLjAxNCAtMy44MTgsMS44MzcgLTcuNjM2LDMuNjc0IC0xMS40NTQsNS41MTEgLTAuODY0LC0wLjEyNiAtMS45MDY5OTk2LC0wLjIwMSAtMy4wMzE5OTk2LC0wLjIwMSAtMi45NzcsMC4wMDEgLTUuMzg1LDAuNTE3IC01LjM4NSwxLjE1NCB2IDMuNDYgYyAwLDAuMDMzIDAuMDMzLDAuMDY0IDAuMDQ1LDAuMDk2IC0wLjE0NiwwLjU1NSAwLjA3LDEuMjA1IDAuNjQ5LDEuNDc4IDUuNjQxLDIuNjY1IDExLjI4MDk5OTYsNS4zMjkgMTYuOTIxOTk5Niw3Ljk5NCAxLjQzMiwwLjY3NyAzLjA2OCwwLjY3MSA0LjQ5NiwtMC4wMTYgNi40NDIsLTMuMSAxMi44ODQsLTYuMTk5IDE5LjMyNywtOS4yOTkgMC40ODQsLTAuMjMzIDAuNjUxLC0wLjc4NiAwLjUwOSwtMS4yNDcgMC4wMjMsLTAuMDUzIDAuMDUyLC0wLjEwNSAwLjA1MiwtMC4xNiB6IiBpZD0icGF0aDEwNDkiIHN0eWxlPSJmaWxsOiNmZWZiZmI7ZmlsbC1vcGFjaXR5OjE7c3Ryb2tlOiMwMzhlY2Q7c3Ryb2tlLW9wYWNpdHk6MSIvPiYjeGE7ICAgICAgICAgIDxwYXRoIGZpbGw9IiNlNTM5MzUiIGQ9Im0gMjAuMTIwOTU4LDIyLjYzOTM5NiBjIC01LjY0MSwtMi41MjIgLTExLjI4MDk5OTYsLTUuMDQ0IC0xNi45MjE5OTk2LC03LjU2NiAtMC45MjIsLTAuNDEyIC0wLjkyNiwtMS43MjcgLTAuMDA3LC0yLjE0NiA2LjM5NSwtMi45MTIgMTIuNzg4OTk5NiwtNS44MjQgMTkuMTgzOTk5NiwtOC43MzYgMS4yNDQsLTAuNTY3IDIuNjcsLTAuNTcyIDMuOTE4LC0wLjAxNCA1Ljg4MSwyLjYzIDExLjc2Myw1LjI1OSAxNy42NDQsNy44ODkgMC43NTQsMC4zMzcgMC43NTgsMS40MTQgMC4wMDYsMS43NTYgLTYuNDQyLDIuOTM0IC0xMi44ODQsNS44NjggLTE5LjMyNyw4LjgwMSAtMS40MjgsMC42NTEgLTMuMDY0LDAuNjU2IC00LjQ5NiwwLjAxNiB6IiBpZD0icGF0aDEwNTEiIHN0eWxlPSJmaWxsOiNmZmZmZmY7ZmlsbC1vcGFjaXR5OjE7c3Ryb2tlOiMwMzhlY2Q7c3Ryb2tlLW9wYWNpdHk6MSIvPiYjeGE7ICAgICAgICAgIDxwYXRoIGZpbGw9IiNmZmZmZmYiIGQ9Im0gMTguMjUyOTU4LDEzLjUwMzM5NiBjIC0wLjAwMiwxLjA0MiAtMi43NjIsMi4wNTcgLTUuMDkzLDIuMDg2IC0yLjQxOSwwLjAzIC01LjI3Mjk5OTYsLTAuOTkzIC01LjI4MTk5OTYsLTIuMDUxIC0wLjAwOSwtMS4wNjEgMi44NDE5OTk2LC0yLjE2MSA1LjMxMDk5OTYsLTIuMTM1IDIuMzMzLDAuMDI0IDUuMDY3LDEuMDYyIDUuMDY0LDIuMSB6IiBpZD0icGF0aDEwNTMiIHN0eWxlPSJmaWxsOiMwMzhlY2Q7ZmlsbC1vcGFjaXR5OjEiLz4mI3hhOyAgICAgICAgICA8cGF0aCBmaWxsPSIjZmZmZmZmIiBkPSJtIDE2LjU0Mjk1OCwxNy4yMzMzOTYgYyAyLjM5MywxLjAyMiA0Ljc4NSwyLjA0NSA3LjE3OCwzLjA2NyAxLjA1NCwtMS41NiAyLjEwOCwtMy4xMiAzLjE2MiwtNC42OCAtMy40NDcsMC41MzggLTYuODkzLDEuMDc2IC0xMC4zNCwxLjYxMyB6IiBpZD0icGF0aDEwNTUiIHN0eWxlPSJmaWxsOiMwMzhlY2Q7ZmlsbC1vcGFjaXR5OjEiLz4mI3hhOyAgICAgICAgICA8cGF0aCBmaWxsPSIjZmZmZmZmIiBkPSJtIDIxLjM2NDk1OCw4LjUzNzM5NiBjIC0xLjEwMSwwLjQwMSAtMi4yMDMsMC44MDEgLTMuMzA0LDEuMjAyIDEuNTA3LDAuMTMyIDMuMDE1LDAuMjY0IDQuNTIyLDAuMzk1IDAuNDgsMC43OTYgMC45NTksMS41OTIgMS40MzksMi4zODcgMC4yOTUsLTAuNzIyIDAuNTksLTEuNDQ0IDAuODg1LC0yLjE2NiAxLjI4NiwtMC4xIDIuNTcyLC0wLjIgMy44NTgsLTAuMyAtMC45OTcsLTAuNDE5IC0xLjk5NCwtMC44MzkgLTIuOTkxLC0xLjI1OSAwLjI1NCwtMC42MDggMC41MDgsLTEuMjE2IDAuNzYyLC0xLjgyNSAtMC45NywwLjI5IC0xLjkzOSwwLjU4IC0yLjkwOSwwLjg3IC0xLjA3LC0wLjQyMiAtMi4xNCwtMC44NDMgLTMuMjEsLTEuMjY1IDAuMzE2LDAuNjU0IDAuNjMyLDEuMzA4IDAuOTQ4LDEuOTYxIHoiIGlkPSJwYXRoMTA1NyIgc3R5bGU9ImZpbGw6IzAzOGVjZDtmaWxsLW9wYWNpdHk6MSIvPiYjeGE7ICAgICAgICAgIDxwYXRoIGZpbGw9IiNiNzFjMWMiIGQ9Im0gMjYuNzcxOTU4LDEzLjM4MTM5NiBjIDIuMjcxLC0wLjkwNiA0LjU0MywtMS44MTMgNi44MTQsLTIuNzE5IDEuOTYyLDAuODM0IDMuOTI0LDEuNjY4IDUuODg2LDIuNTAyIC0yLjIwMiwwLjg3NiAtNC40MDMsMS43NTIgLTYuNjA1LDIuNjI5IC0yLjAzMSwtMC44MDUgLTQuMDYzLC0xLjYwOCAtNi4wOTUsLTIuNDEyIHoiIGlkPSJwYXRoMTA1OSIgc3R5bGU9ImZpbGw6I2ZmZmZmZjtmaWxsLW9wYWNpdHk6MSIvPiYjeGE7ICAgICAgICAgIDxwYXRoIGZpbGw9IiNhMDFjMWMiIGQ9Im0gMzMuNTg2OTU4LDEwLjcyNTM5NiBjIC0wLjAwNSwxLjU5NiAtMC4wMSwzLjE5MSAtMC4wMTUsNC43ODcgMS45NjcsLTAuNzgzIDMuOTM0LC0xLjU2NSA1LjkwMSwtMi4zNDggLTEuOTYyLC0wLjgxMyAtMy45MjQsLTEuNjI2IC01Ljg4NiwtMi40MzkgeiIgaWQ9InBhdGgxMDYxIiBzdHlsZT0iZmlsbDojZmZmZmZmO2ZpbGwtb3BhY2l0eToxO3N0cm9rZTpub25lO3N0cm9rZS1vcGFjaXR5OjEiLz4mI3hhOyAgICAgICAgPC9nPiYjeGE7ICAgICAgPC9nPiYjeGE7ICAgICAgPGcgaWQ9ImxheWVyMi05IiBpbmtzY2FwZTpsYWJlbD0iTGF5ZXIgMiIvPiYjeGE7ICAgIDwvZz4mI3hhOyAgPC9nPiYjeGE7ICA8ZyBpbmtzY2FwZTpncm91cG1vZGU9ImxheWVyIiBpZD0ibGF5ZXIyIiBpbmtzY2FwZTpsYWJlbD0iTGF5ZXIgMiIvPiYjeGE7ICA8c3R5bGUgaWQ9InN0eWxlODk4Ij5zdmcge2VuYWJsZS1iYWNrZ3JvdW5kOm5ldyAwIDAgMzYwIDM2MH08L3N0eWxlPiYjeGE7ICA8c3R5bGUgaWQ9InN0eWxlOTAwIj4uc3Qwe2ZpbGw6bm9uZX08L3N0eWxlPiYjeGE7PC9zdmc+;" vertex="1" parent="KWQ4xnJLnPjV0gg7NQpi-18">
          <mxGeometry x="6.409999999999968" y="5.5" width="37.17" height="33" as="geometry" />
        </mxCell>
        <mxCell id="KWQ4xnJLnPjV0gg7NQpi-8" value="Redis" style="text;html=1;resizable=0;autosize=1;align=left;verticalAlign=middle;points=[];fillColor=none;strokeColor=none;rounded=0;fontFamily=Roboto;fontSource=https%3A%2F%2Ffonts.googleapis.com%2Fcss%3Ffamily%3DRoboto;" vertex="1" parent="KWQ4xnJLnPjV0gg7NQpi-18">
          <mxGeometry x="49.99999999999994" y="12" width="50" height="20" as="geometry" />
        </mxCell>
        <mxCell id="KWQ4xnJLnPjV0gg7NQpi-25" value="8081&lt;br&gt;8083&lt;br&gt;9092" style="edgeStyle=entityRelationEdgeStyle;fontSize=12;html=1;endArrow=blockThin;endFill=1;rounded=0;strokeWidth=2;endSize=4;startSize=4;dashed=0;strokeColor=#4284F3;entryX=0;entryY=0.383;entryDx=0;entryDy=0;exitX=1;exitY=0.5;exitDx=0;exitDy=0;startArrow=blockThin;startFill=1;entryPerimeter=0;" edge="1" parent="wycD591nMWxJo0nDUt0m-1" source="KWQ4xnJLnPjV0gg7NQpi-27" target="KWQ4xnJLnPjV0gg7NQpi-38">
          <mxGeometry x="0.3991" width="100" relative="1" as="geometry">
            <mxPoint x="425" y="590" as="sourcePoint" />
            <mxPoint x="610" y="482" as="targetPoint" />
            <mxPoint as="offset" />
          </mxGeometry>
        </mxCell>
        <mxCell id="KWQ4xnJLnPjV0gg7NQpi-31" value="" style="group" vertex="1" connectable="0" parent="wycD591nMWxJo0nDUt0m-1">
          <mxGeometry x="130" y="452" width="240" height="68" as="geometry" />
        </mxCell>
        <mxCell id="KWQ4xnJLnPjV0gg7NQpi-27" value="" style="shape=mxgraph.gcp2.doubleRect;strokeColor=#dddddd;shadow=1;strokeWidth=1;fontFamily=Roboto;align=left;" vertex="1" parent="KWQ4xnJLnPjV0gg7NQpi-31">
          <mxGeometry width="240" height="68" as="geometry" />
        </mxCell>
        <mxCell id="KWQ4xnJLnPjV0gg7NQpi-28" value="" style="dashed=0;connectable=0;html=1;fillColor=#757575;strokeColor=none;shape=mxgraph.gcp2.frontend_platform_services;part=1;labelPosition=right;verticalLabelPosition=middle;align=left;verticalAlign=middle;spacingLeft=5;fontSize=12;" vertex="1" parent="KWQ4xnJLnPjV0gg7NQpi-31">
          <mxGeometry x="10" y="10" width="32" height="32" as="geometry" />
        </mxCell>
        <mxCell id="KWQ4xnJLnPjV0gg7NQpi-29" value="PI Graph Generator Service" style="text;html=1;resizable=0;autosize=1;align=left;verticalAlign=middle;points=[];fillColor=none;strokeColor=none;rounded=0;fontFamily=Roboto;" vertex="1" parent="KWQ4xnJLnPjV0gg7NQpi-31">
          <mxGeometry x="50" y="10" width="160" height="20" as="geometry" />
        </mxCell>
        <mxCell id="KWQ4xnJLnPjV0gg7NQpi-30" value="NodeJS" style="text;html=1;resizable=0;autosize=1;align=left;verticalAlign=middle;points=[];fillColor=none;strokeColor=none;rounded=0;fontFamily=Roboto;fontColor=#666666;" vertex="1" parent="KWQ4xnJLnPjV0gg7NQpi-31">
          <mxGeometry x="50" y="24" width="60" height="20" as="geometry" />
        </mxCell>
        <mxCell id="KWQ4xnJLnPjV0gg7NQpi-42" value="" style="group" vertex="1" connectable="0" parent="wycD591nMWxJo0nDUt0m-1">
          <mxGeometry x="610" y="460" width="120" height="60" as="geometry" />
        </mxCell>
        <mxCell id="KWQ4xnJLnPjV0gg7NQpi-38" value="" style="shape=mxgraph.gcp2.doubleRect;strokeColor=#dddddd;shadow=1;strokeWidth=1;fontFamily=Roboto;align=left;" vertex="1" parent="KWQ4xnJLnPjV0gg7NQpi-42">
          <mxGeometry width="120" height="60" as="geometry" />
        </mxCell>
        <mxCell id="KWQ4xnJLnPjV0gg7NQpi-39" value="" style="shape=image;verticalLabelPosition=bottom;labelBackgroundColor=#ffffff;verticalAlign=top;aspect=fixed;imageAspect=0;image=data:image/svg+xml,PHN2ZyB4bWxuczpkYz0iaHR0cDovL3B1cmwub3JnL2RjL2VsZW1lbnRzLzEuMS8iIHhtbG5zOmNjPSJodHRwOi8vY3JlYXRpdmVjb21tb25zLm9yZy9ucyMiIHhtbG5zOnJkZj0iaHR0cDovL3d3dy53My5vcmcvMTk5OS8wMi8yMi1yZGYtc3ludGF4LW5zIyIgeG1sbnM6c3ZnPSJodHRwOi8vd3d3LnczLm9yZy8yMDAwL3N2ZyIgeG1sbnM9Imh0dHA6Ly93d3cudzMub3JnLzIwMDAvc3ZnIiB4bWxuczpzb2RpcG9kaT0iaHR0cDovL3NvZGlwb2RpLnNvdXJjZWZvcmdlLm5ldC9EVEQvc29kaXBvZGktMC5kdGQiIHhtbG5zOmlua3NjYXBlPSJodHRwOi8vd3d3Lmlua3NjYXBlLm9yZy9uYW1lc3BhY2VzL2lua3NjYXBlIiB3aWR0aD0iOTguMDU4OTk4bW0iIGhlaWdodD0iODcuMzA5OTk4bW0iIHZpZXdCb3g9IjAgMCA5OC4wNTkwMDIgODcuMzA5OTk4IiB2ZXJzaW9uPSIxLjEiIGlkPSJzdmc2MiIgaW5rc2NhcGU6dmVyc2lvbj0iMS4wLjEgKGM0OTdiMDNjLCAyMDIwLTA5LTEwKSIgc29kaXBvZGk6ZG9jbmFtZT0iY2lyY2xlX2thZmthLnN2ZyI+JiN4YTsgIDxkZWZzIGlkPSJkZWZzNTYiPiYjeGE7ICAgIDxpbmtzY2FwZTpwYXRoLWVmZmVjdCBlZmZlY3Q9ImZpbGxldF9jaGFtZmVyIiBpZD0icGF0aC1lZmZlY3QxMDg4IiBpc192aXNpYmxlPSJ0cnVlIiBscGV2ZXJzaW9uPSIxIiBzYXRlbGxpdGVzX3BhcmFtPSJGLDAsMCwxLDAsMCwwLDEgQCBGLDAsMCwxLDAsMCwwLDEgQCBGLDAsMCwxLDAsMCwwLDEgQCBGLDAsMCwxLDAsMCwwLDEgQCBGLDAsMCwxLDAsMCwwLDEgQCBGLDAsMCwxLDAsMCwwLDEiIHVuaXQ9InB4IiBtZXRob2Q9ImF1dG8iIG1vZGU9IkYiIHJhZGl1cz0iMCIgY2hhbWZlcl9zdGVwcz0iMSIgZmxleGlibGU9ImZhbHNlIiB1c2Vfa25vdF9kaXN0YW5jZT0idHJ1ZSIgYXBwbHlfbm9fcmFkaXVzPSJ0cnVlIiBhcHBseV93aXRoX3JhZGl1cz0idHJ1ZSIgb25seV9zZWxlY3RlZD0iZmFsc2UiIGhpZGVfa25vdHM9ImZhbHNlIi8+JiN4YTsgICAgPGlua3NjYXBlOnBhdGgtZWZmZWN0IGVmZmVjdD0iZmlsbGV0X2NoYW1mZXIiIGlkPSJwYXRoLWVmZmVjdDEwNjgiIGlzX3Zpc2libGU9InRydWUiIGxwZXZlcnNpb249IjEiIHNhdGVsbGl0ZXNfcGFyYW09IkYsMCwwLDEsMCwwLDAsMSBAIEYsMCwwLDEsMCwzLjkxMTYzODEsMCwxIEAgRiwwLDAsMSwwLDAsMCwxIEAgRiwwLDAsMSwwLDEuMDgyOTc5NSwwLDEgQCBGLDAsMCwxLDAsMCwwLDEgQCBGLDAsMCwxLDAsMCwwLDEgQCBGLDAsMCwxLDAsMy4yMzUwNTk1LDAsMSBAIEYsMCwwLDEsMCwwLDAsMSBAIEYsMCwwLDEsMCwzLjIwOTAxMjgsMCwxIEAgRiwwLDAsMSwwLDAsMCwxIEAgRiwwLDAsMSwwLDMuNDg3ODExNywwLDEgQCBGLDAsMCwxLDAsMCwwLDEgQCBGLDAsMCwxLDAsMy43MTUxNzIsMCwxIEAgRiwwLDAsMSwwLDAsMCwxIEAgRiwwLDAsMSwwLDAsMCwxIiB1bml0PSJweCIgbWV0aG9kPSJhdXRvIiBtb2RlPSJGIiByYWRpdXM9IjAiIGNoYW1mZXJfc3RlcHM9IjEiIGZsZXhpYmxlPSJmYWxzZSIgdXNlX2tub3RfZGlzdGFuY2U9InRydWUiIGFwcGx5X25vX3JhZGl1cz0idHJ1ZSIgYXBwbHlfd2l0aF9yYWRpdXM9InRydWUiIG9ubHlfc2VsZWN0ZWQ9ImZhbHNlIiBoaWRlX2tub3RzPSJmYWxzZSIvPiYjeGE7ICAgIDxwYXRoIGlkPSJwYXRoMF9maWxsIiBkPSJNIDEuNzQ0OTggNS40NzUzM0MgMS43NDQ5OCA3LjAzMzM1IDEuNjIwMzQgNy41NDA4MiAxLjI5OTgzIDcuOTE0NzRDIDAuOTQzMTE5IDguMjM1OTUgMC40ODAwMjQgOC40MTM1OCAwIDguNDEzMzFMIDAuMTI0NjQyIDkuMzAzNkMgMC44Njg4NCA5LjMxMzY2IDEuNTkwOTUgOS4wNTA3OCAyLjE1NDUyIDguNTY0NjZDIDIuNDU3NzUgOC4xOTQ4NyAyLjY4MzQgNy43Njc4MSAyLjgxOCA3LjMwODkzQyAyLjk1MjYxIDYuODUwMDUgMi45OTM0MSA2LjM2ODc2IDIuOTM3OTggNS44OTM3N0wgMi45Mzc5OCAwTCAxLjc0NDk4IDBMIDEuNzQ0OTggNS40Mzk3MkwgMS43NDQ5OCA1LjQ3NTMzWiIvPiYjeGE7ICAgIDxwYXRoIGlkPSJwYXRoMV9maWxsIiBkPSJNIDUuNTAyMDQgNC43NjMwOUMgNS41MDIwNCA1LjQzMDgxIDUuNTAyMDQgNi4wMjczMSA1LjU1NTQ1IDYuNTQzNjhMIDQuNDk2IDYuNTQzNjhMIDQuNDI0NzggNS40ODQyM0MgNC4yMDMxOCA1Ljg1OTA5IDMuODg2MjcgNi4xNjg1OCAzLjUwNjI4IDYuMzgxMjVDIDMuMTI2MjggNi41OTM5MiAyLjY5Njc1IDYuNzAyMTkgMi4yNjEzNSA2LjY5NTAzQyAxLjIyODYxIDYuNjk1MDMgMCA2LjEzNDE1IDAgMy44NDYwOEwgMCAwLjA0NDUxNDlMIDEuMTkzIDAuMDQ0NTE0OUwgMS4xOTMgMy42MDU3QyAxLjE5MyA0Ljg0MzIyIDEuNTc1ODMgNS42NzExOSAyLjY1MzA5IDUuNjcxMTlDIDIuODc0NzIgNS42NzM1OCAzLjA5NDU5IDUuNjMxNjggMy4yOTk4MiA1LjU0Nzk2QyAzLjUwNTA1IDUuNDY0MjQgMy42OTE0OSA1LjM0MDM5IDMuODQ4MjIgNS4xODM2NkMgNC4wMDQ5NCA1LjAyNjk0IDQuMTI4OCA0Ljg0MDQ5IDQuMjEyNTIgNC42MzUyN0MgNC4yOTYyMyA0LjQzMDA0IDQuMzM4MTMgNC4yMTAxNiA0LjMzNTc1IDMuOTg4NTNMIDQuMzM1NzUgMEwgNS41Mjg3NCAwTCA1LjUyODc0IDQuNzI3NDhMIDUuNTAyMDQgNC43NjMwOVoiLz4mI3hhOyAgICA8cGF0aCBpZD0icGF0aDJfZmlsbCIgZD0iTSAwLjA1MzQxNzggMi4yNzI2NEMgMC4wNTM0MTc4IDEuNDQ0NjYgMC4wNTM0MTc4IDAuNzY4MDM2IDAgMC4xNTM3MzFMIDEuMDY4MzYgMC4xNTM3MzFMIDEuMTIxNzcgMS4yNjY2QyAxLjM1OTggMC44NjQ1MzUgMS43MDI0NyAwLjUzNDU5NCAyLjExMzI1IDAuMzExOTU0QyAyLjUyNDA0IDAuMDg5MzE0NSAyLjk4NzU0IC0wLjAxNzY3ODYgMy40NTQzNSAwLjAwMjM4MDk1QyA1LjAzOTA4IDAuMDAyMzgwOTUgNi4yMzIwOCAxLjMyODkyIDYuMjMyMDggMy4zMDUzOEMgNi4yMzIwOCA1LjYzNzk2IDQuNzk4NyA2Ljc5NTM1IDMuMjQ5NTggNi43OTUzNUMgMi44NTMwOSA2LjgxMzA0IDIuNDU4NzQgNi43MjgxIDIuMTA0NjkgNi41NDg3NEMgMS43NTA2NCA2LjM2OTM3IDEuNDQ4ODggNi4xMDE2NiAxLjIyODYxIDUuNzcxNTFMIDEuMjI4NjEgNS43NzE1MUwgMS4yMjg2MSA5LjMzMjY5TCAwLjA1MzQxNzggOS4zMzI2OUwgMC4wNTM0MTc4IDIuMjk5MzVMIDAuMDUzNDE3OCAyLjI3MjY0Wk0gMS4yMjg2MSA0LjAwODcyQyAxLjIzMTg0IDQuMTcwMjYgMS4yNDk3MiA0LjMzMTE3IDEuMjgyMDMgNC40ODk0OEMgMS4zODMwNCA0Ljg4NDc5IDEuNjEyOTkgNS4yMzUxMyAxLjkzNTQ4IDUuNDg1MDZDIDIuMjU3OTggNS43MzUgMi42NTQ2MSA1Ljg3MDI2IDMuMDYyNjIgNS44Njk0NEMgNC4zMTc5NCA1Ljg2OTQ0IDUuMDU2ODkgNC44NDU2IDUuMDU2ODkgMy4zNTg4QyA1LjA1Njg5IDIuMDU4OTcgNC4zNjI0NiAwLjk0NjA5NiAzLjEwNzE0IDAuOTQ2MDk2QyAyLjYxMDM2IDAuOTg2Nzc3IDIuMTQ1NDggMS4yMDcyNiAxLjc5OTY1IDEuNTY2MkMgMS40NTM4MiAxLjkyNTE0IDEuMjUwNzkgMi4zOTc5IDEuMjI4NjEgMi44OTU4NUwgMS4yMjg2MSA0LjAwODcyWiIvPiYjeGE7ICAgIDxwYXRoIGlkPSJwYXRoM19maWxsIiBkPSJNIDEuMzE3NjQgMC4wMTc4MDU5TCAyLjc1MTAyIDMuODU0OTlDIDIuOTAyMzcgNC4yODIzMyAzLjA2MjYyIDQuNzk4NyAzLjE2OTQ2IDUuMTgxNTNDIDMuMjk0MSA0Ljc4OTggMy40Mjc2NCA0LjI5MTIzIDMuNTg3OSAzLjgyODI4TCA0Ljg4NzczIDAuMDE3ODA1OUwgNi4xNDMwNSAwLjAxNzgwNTlMIDQuMzYyNDYgNC42NDczNUMgMy40NzIxNiA2Ljg3MzA5IDIuOTI5MDggOC4wMjE1OCAyLjExIDguNzE2MDFDIDEuNjk3NDUgOS4wOTI4MyAxLjE5NDQ4IDkuMzU2NTggMC42NDk5MTcgOS40ODE2NkwgMC4zNTYxMTkgOC40ODQ1M0MgMC43MzY4ODYgOC4zNTk0MiAxLjA5MDM4IDguMTYzMDQgMS4zOTc3NyA3LjkwNTg0QyAxLjgzMjEgNy41NTE4OCAyLjE3Njc4IDcuMTAwNDQgMi40MDM4IDYuNTg4MkMgMi40NTIzOSA2LjQ5OTQ5IDIuNDg1NTEgNi40MDMxNCAyLjUwMTczIDYuMzAzM0MgMi40OTE2MSA2LjE5NTg2IDIuNDY0NTcgNi4wOTA3IDIuNDIxNjEgNS45OTE3TCAwIDBMIDEuMjk5ODMgMEwgMS4zMTc2NCAwLjAxNzgwNTlaIi8+JiN4YTsgICAgPHBhdGggaWQ9InBhdGg0X2ZpbGwiIGQ9Ik0gMi4xOTAxMyAwTCAyLjE5MDEzIDEuODY5NjJMIDMuODk5NSAxLjg2OTYyTCAzLjg5OTUgMi43NTk5MkwgMi4xOTAxMyAyLjc1OTkyTCAyLjE5MDEzIDYuMjY3NjlDIDIuMTkwMTMgNy4wNjg5NiAyLjQyMTYxIDcuNTMxOTEgMy4wODA0MyA3LjUzMTkxQyAzLjMxNDQyIDcuNTM1NzQgMy41NDc4OSA3LjUwODggMy43NzQ4NiA3LjQ1MTc5TCAzLjgyODI4IDguMzQyMDhDIDMuNDg3OTQgOC40NTk5OSAzLjEyODgxIDguNTE0MzEgMi43Njg4MiA4LjUwMjM0QyAyLjUzMDQyIDguNTE3MjYgMi4yOTE2MSA4LjQ4MDQzIDIuMDY4NzggOC4zOTQzN0MgMS44NDU5NSA4LjMwODMxIDEuNjQ0MzggOC4xNzUwNiAxLjQ3Nzg5IDguMDAzNzdDIDEuMTE1MjUgNy41MTg3MyAwLjk0OTgyNiA2LjkxNDMxIDEuMDE0OTQgNi4zMTIyMUwgMS4wMTQ5NCAyLjc1MTAyTCAwIDIuNzUxMDJMIDAgMS44NjA3MkwgMS4wMzI3NCAxLjg2MDcyTCAxLjAzMjc0IDAuMjc1OTkyTCAyLjE5MDEzIDBaIi8+JiN4YTsgICAgPHBhdGggaWQ9InBhdGg1X2ZpbGwiIGQ9Ik0gMS4xNzcxNiAzLjU3ODk5QyAxLjE1MyAzLjg4MDkzIDEuMTk0NjggNC4xODQ1MSAxLjI5OTMzIDQuNDY4NzZDIDEuNDAzOTggNC43NTMwMSAxLjU2OTEgNS4wMTExNCAxLjc4MzI5IDUuMjI1MzJDIDEuOTk3NDcgNS40Mzk1MSAyLjI1NTYgNS42MDQ2MyAyLjUzOTg1IDUuNzA5MjhDIDIuODI0MSA1LjgxMzkzIDMuMTI3NjggNS44NTU2MSAzLjQyOTYyIDUuODMxNDVDIDQuMDQwMzMgNS44NDUxMSA0LjY0NzA2IDUuNzI5ODMgNS4yMTAyMSA1LjQ5MzEzTCA1LjQxNDk4IDYuMzgzNDNDIDQuNzIzOTMgNi42NjgwOSAzLjk4MDg1IDYuODA0NTggMy4yMzM3NSA2Ljc4NDA2QyAyLjc5ODIxIDYuODEzODggMi4zNjEzOCA2Ljc0OTE0IDEuOTUzMjIgNi41OTQyN0MgMS41NDUwNSA2LjQzOTQxIDEuMTc1MjIgNi4xOTgwOSAwLjg2OTA3MSA1Ljg4Njg4QyAwLjU2MjkyOCA1LjU3NTY2IDAuMzI3NzIzIDUuMjAxOSAwLjE3OTU5MSA0Ljc5MTI1QyAwLjAzMTQ1ODQgNC4zODA1OSAtMC4wMjYwOTYyIDMuOTQyNzYgMC4wMTA4NzQ4IDMuNTA3NzdDIDAuMDEwODc0OCAxLjU0OTEyIDEuMTc3MTYgMCAzLjA4MjQgMEMgNS4yMTkxMSAwIDUuNzUzMjkgMS44Njk2MiA1Ljc1MzI5IDMuMDYyNjJDIDUuNzY0NzEgMy4yNDY0NCA1Ljc2NDcxIDMuNDMwNzkgNS43NTMyOSAzLjYxNDYxTCAxLjE1MDQ2IDMuNjE0NjFMIDEuMTc3MTYgMy41Nzg5OVpNIDQuNjY3MTMgMi42ODg3QyA0LjcwMTQ5IDIuNDUwNjcgNC42ODQ0MyAyLjIwODA1IDQuNjE3MDkgMS45NzcxOEMgNC41NDk3NiAxLjc0NjMxIDQuNDMzNzIgMS41MzI1NSA0LjI3NjggMS4zNTAzMUMgNC4xMTk4NyAxLjE2ODA4IDMuOTI1NzEgMS4wMjE2IDMuNzA3MzkgMC45MjA3NDRDIDMuNDg5MDcgMC44MTk4OSAzLjI1MTY2IDAuNzY3MDA2IDMuMDExMTggMC43NjU2NTZDIDIuNTIyMDEgMC44MDEwNjQgMi4wNjM3MSAxLjAxNzg4IDEuNzI2MDkgMS4zNzM2MkMgMS4zODg0NyAxLjcyOTM1IDEuMTk1ODggMi4xOTgzNSAxLjE4NjA3IDIuNjg4N0wgNC42NjcxMyAyLjY4ODdaIi8+JiN4YTsgICAgPHBhdGggaWQ9InBhdGg2X2ZpbGwiIGQ9Ik0gMC4wNTM0MTc4IDIuMTkyMjhDIDAuMDUzNDE3OCAxLjQyNjYzIDAuMDUzNDE3OCAwLjc2NzgwNiAwIDAuMTYyNDA0TCAxLjA2ODM2IDAuMTYyNDA0TCAxLjA2ODM2IDEuNDM1NTNMIDEuMTIxNzcgMS40MzU1M0MgMS4yMzM5MSAxLjA0MjU5IDEuNDY1NiAwLjY5NDMxNCAxLjc4NDY4IDAuNDM5MDQ5QyAyLjEwMzc2IDAuMTgzNzgzIDIuNDk0NCAwLjAzNDE5NiAyLjkwMjM3IDAuMDExMDUzOEMgMy4wMTQ2NiAtMC4wMDM2ODQ1OSAzLjEyODM5IC0wLjAwMzY4NDU5IDMuMjQwNjggMC4wMTEwNTM4TCAzLjI0MDY4IDEuMTIzOTNDIDMuMTA0NjIgMS4xMDgxNyAyLjk2NzIgMS4xMDgxNyAyLjgzMTE0IDEuMTIzOTNDIDIuNDI3IDEuMTM5NTggMi4wNDIzNyAxLjMwMTgyIDEuNzQ5MSAxLjU4MDM1QyAxLjQ1NTgzIDEuODU4ODcgMS4yNzM5OCAyLjIzNDYyIDEuMjM3NTEgMi42Mzc0M0MgMS4yMDQyMiAyLjgxOTYgMS4xODYzNSAzLjAwNDI1IDEuMTg0MSAzLjE4OTQxTCAxLjE4NDEgNi42NTI2N0wgMC4wMDg5MDI5NyA2LjY1MjY3TCAwLjAwODkwMjk3IDIuMjAxMThMIDAuMDUzNDE3OCAyLjE5MjI4WiIvPiYjeGE7ICAgIDxwYXRoIGlkPSJwYXRoN19maWxsIiBkPSJNIDYuMDMwNTkgMi44MzU2NUMgNi4wNjcxNSAzLjQzMzc2IDUuOTI0ODUgNC4wMjkyMSA1LjYyMTggNC41NDYxNUMgNS4zMTg3NSA1LjA2MzEgNC44Njg2OSA1LjQ3ODEzIDQuMzI4OTMgNS43MzgzOUMgMy43ODkxNyA1Ljk5ODY0IDMuMTg0MTYgNi4wOTIzMyAyLjU5MDk3IDYuMDA3NTNDIDEuOTk3NzggNS45MjI3MiAxLjQ0MzI2IDUuNjYzMjYgMC45OTgwNDggNS4yNjIxOUMgMC41NTI4MzcgNC44NjExMyAwLjIzNzA5IDQuMzM2NjEgMC4wOTEwMzA3IDMuNzU1NDZDIC0wLjA1NTAyODcgMy4xNzQzMSAtMC4wMjQ3ODkxIDIuNTYyODMgMC4xNzc4OTcgMS45OTg5M0MgMC4zODA1ODMgMS40MzUwMyAwLjc0NjU0MSAwLjk0NDIyMSAxLjIyOTE1IDAuNTg5MDM3QyAxLjcxMTc2IDAuMjMzODUzIDIuMjg5MTggMC4wMzAzNjg2IDIuODg3ODQgMC4wMDQ1MDU0M0MgMy4yODAzNSAtMC4wMTcwOTMyIDMuNjczMjYgMC4wMzkxMTQ0IDQuMDQzOTYgMC4xNjk4OTZDIDQuNDE0NjcgMC4zMDA2NzcgNC43NTU4NyAwLjUwMzQ1MyA1LjA0Nzk0IDAuNzY2NTYxQyA1LjM0IDEuMDI5NjcgNS41NzcxOCAxLjM0NzkyIDUuNzQ1ODIgMS43MDMwMUMgNS45MTQ0NiAyLjA1ODEgNi4wMTEyNCAyLjQ0MzAzIDYuMDMwNTkgMi44MzU2NUwgNi4wMzA1OSAyLjgzNTY1WiIvPiYjeGE7ICAgIDxwYXRoIGlkPSJwYXRoOF9maWxsIiBkPSJNIDE4LjY5NjIgNy4xMjIzOEMgMTAuNjgzNiA3LjEyMjM4IDMuNjQxMzEgNC4yNDY3MiAwIDBDIDEuNDEyODQgMy44MjA0MSAzLjk2MjE1IDcuMTE2MyA3LjMwNDc5IDkuNDQ0MDRDIDEwLjY0NzQgMTEuNzcxOCAxNC42MjMgMTMuMDE5NiAxOC42OTYyIDEzLjAxOTZDIDIyLjc2OTUgMTMuMDE5NiAyNi43NDUgMTEuNzcxOCAzMC4wODc3IDkuNDQ0MDRDIDMzLjQzMDMgNy4xMTYzIDM1Ljk3OTYgMy44MjA0MSAzNy4zOTI1IDQuMDQ4NmUtMTNDIDMzLjc2MDEgNC4yNDY3MiAyNi43NDQ1IDcuMTIyMzggMTguNjk2MiA3LjEyMjM4WiIvPiYjeGE7ICAgIDxwYXRoIGlkPSJwYXRoOV9maWxsIiBkPSJNIDE4LjY5NjIgNS44OTcyNUMgMjYuNzA4OSA1Ljg5NzI1IDMzLjc1MTIgOC43NzI5MSAzNy4zOTI1IDEzLjAxOTZDIDM1Ljk3OTYgOS4xOTkyMiAzMy40MzAzIDUuOTAzMzMgMzAuMDg3NyAzLjU3NTU5QyAyNi43NDUgMS4yNDc4NSAyMi43Njk1IDQuMDQ4NmUtMTMgMTguNjk2MiAwQyAxNC42MjMgNC4wNDg2ZS0xMyAxMC42NDc0IDEuMjQ3ODUgNy4zMDQ3OSAzLjU3NTU5QyAzLjk2MjE1IDUuOTAzMzMgMS40MTI4NCA5LjE5OTIyIDAgMTMuMDE5NkMgMy42NDEzMSA4Ljc2NDAxIDEwLjY0OCA1Ljg5NzI1IDE4LjY5NjIgNS44OTcyNVoiLz4mI3hhOyAgICA8cGF0aCBpZD0icGF0aDEwX2ZpbGwiIGQ9Ik0gNy41OTU3NiAzLjU2NjU2QyA3LjY0Mjc2IDQuMzE5OTIgNy40NjQ0MiA1LjA3MDIyIDcuMDgzNDcgNS43MjE4NkMgNi43MDI1MSA2LjM3MzUgNi4xMzYxOSA2Ljg5Njk4IDUuNDU2NjYgNy4yMjU2MUMgNC43NzcxMyA3LjU1NDI0IDQuMDE1MTUgNy42NzMxNCAzLjI2NzgxIDcuNTY3MTZDIDIuNTIwNDYgNy40NjExNyAxLjgyMTU4IDcuMTM1MTEgMS4yNjAyMSA2LjYzMDUxQyAwLjY5ODgzOSA2LjEyNTkxIDAuMzAwMzk0IDUuNDY1NjEgMC4xMTU2MzcgNC43MzM3NUMgLTAuMDY5MTE5MSA0LjAwMTg4IC0wLjAzMTgyMTkgMy4yMzE1OSAwLjIyMjc3NyAyLjUyMDk5QyAwLjQ3NzM3NiAxLjgxMDQgMC45Mzc3NSAxLjE5MTY5IDEuNTQ1MjQgMC43NDM2ODVDIDIuMTUyNzQgMC4yOTU2NzggMi44Nzk4NSAwLjAzODY1OTUgMy42MzM5NCAwLjAwNTM3NTg5QyA0LjEyNzkzIC0wLjAyMTA0NzEgNC42MjIyOSAwLjA1MDExNzMgNS4wODg3OCAwLjIxNDgwM0MgNS41NTUyNiAwLjM3OTQ5IDUuOTg0NzMgMC42MzQ0NyA2LjM1MjY0IDAuOTY1MTc5QyA2LjcyMDU1IDEuMjk1ODkgNy4wMTk3MSAxLjY5NTg0IDcuMjMzIDIuMTQyMkMgNy40NDYzIDIuNTg4NTUgNy41Njk1NyAzLjA3MjU2IDcuNTk1NzYgMy41NjY1NkwgNy41OTU3NiAzLjU2NjU2WiIvPiYjeGE7ICAgIDxwYXRoIGlkPSJwYXRoMTFfZmlsbCIgZD0iTSAyLjI1MDYxIDQuMzc5NDNDIDEuODE4ODYgNC4zOTEzNSAxLjM5MzIyIDQuMjc1MzUgMS4wMjcyMiA0LjA0NjAyQyAwLjY2MTIyNCAzLjgxNjY4IDAuMzcxMjA2IDMuNDg0MjQgMC4xOTM2NDEgMy4wOTA1MkMgMC4wMTYwNzYyIDIuNjk2NzkgLTAuMDQxMTA3OCAyLjI1OTM1IDAuMDI5MjgwNCAxLjgzMzIxQyAwLjA5OTY2ODYgMS40MDcwNyAwLjI5NDQ4NiAxLjAxMTI1IDAuNTg5MjMzIDAuNjk1NTQyQyAwLjg4Mzk4MSAwLjM3OTgzIDEuMjY1NSAwLjE1ODMxNiAxLjY4NTgxIDAuMDU4ODU3N0MgMi4xMDYxMSAtMC4wNDA2MDA1IDIuNTQ2NDQgLTAuMDEzNTYyMiAyLjk1MTQzIDAuMTM2NTcyQyAzLjM1NjQxIDAuMjg2NzA3IDMuNzA3OTYgMC41NTMyMzQgMy45NjE4NiAwLjkwMjYzNkMgNC4yMTU3NyAxLjI1MjA0IDQuMzYwNyAxLjY2ODcyIDQuMzc4NDIgMi4xMDAyN0MgNC4zOTUyOSAyLjY4MzggNC4xODEzMSAzLjI1MDQ0IDMuNzgyOTMgMy42NzcxNUMgMy4zODQ1NSA0LjEwMzg3IDIuODMzOTIgNC4zNTYyMyAyLjI1MDYxIDQuMzc5NDNaIi8+JiN4YTsgIDwvZGVmcz4mI3hhOyAgPHNvZGlwb2RpOm5hbWVkdmlldyBpZD0iYmFzZSIgcGFnZWNvbG9yPSIjZmZmZmZmIiBib3JkZXJjb2xvcj0iIzY2NjY2NiIgYm9yZGVyb3BhY2l0eT0iMS4wIiBpbmtzY2FwZTpwYWdlb3BhY2l0eT0iMC4wIiBpbmtzY2FwZTpwYWdlc2hhZG93PSIyIiBpbmtzY2FwZTp6b29tPSIxLjYxNjAyNTciIGlua3NjYXBlOmN4PSIzMS42NDU4MTYiIGlua3NjYXBlOmN5PSIxNzUuOTQ4ODMiIGlua3NjYXBlOmRvY3VtZW50LXVuaXRzPSJtbSIgaW5rc2NhcGU6Y3VycmVudC1sYXllcj0ibGF5ZXIxIiBpbmtzY2FwZTpkb2N1bWVudC1yb3RhdGlvbj0iMCIgc2hvd2dyaWQ9ImZhbHNlIiBpbmtzY2FwZTpzbmFwLWdsb2JhbD0idHJ1ZSIgaW5rc2NhcGU6d2luZG93LXdpZHRoPSIxODI5IiBpbmtzY2FwZTp3aW5kb3ctaGVpZ2h0PSI5NjciIGlua3NjYXBlOndpbmRvdy14PSI0NyIgaW5rc2NhcGU6d2luZG93LXk9IjEwMyIgaW5rc2NhcGU6d2luZG93LW1heGltaXplZD0iMCIvPiYjeGE7ICA8bWV0YWRhdGEgaWQ9Im1ldGFkYXRhNTkiPiYjeGE7ICAgIDxyZGY6UkRGPiYjeGE7ICAgICAgPGNjOldvcmsgcmRmOmFib3V0PSIiPiYjeGE7ICAgICAgICA8ZGM6Zm9ybWF0PmltYWdlL3N2Zyt4bWw8L2RjOmZvcm1hdD4mI3hhOyAgICAgICAgPGRjOnR5cGUgcmRmOnJlc291cmNlPSJodHRwOi8vcHVybC5vcmcvZGMvZGNtaXR5cGUvU3RpbGxJbWFnZSIvPiYjeGE7ICAgICAgICA8ZGM6dGl0bGUvPiYjeGE7ICAgICAgPC9jYzpXb3JrPiYjeGE7ICAgIDwvcmRmOlJERj4mI3hhOyAgPC9tZXRhZGF0YT4mI3hhOyAgPGcgaW5rc2NhcGU6bGFiZWw9IkxheWVyIDEiIGlua3NjYXBlOmdyb3VwbW9kZT0ibGF5ZXIiIGlkPSJsYXllcjEiIHN0eWxlPSJkaXNwbGF5OmlubGluZSI+JiN4YTsgICAgPGNpcmNsZSBzdHlsZT0iZmlsbDojMDM4ZWNkO2ZpbGwtb3BhY2l0eToxO2ZpbGwtcnVsZTpldmVub2RkO3N0cm9rZS13aWR0aDowLjI2NDU4MyIgaWQ9InBhdGgzNCIgY3g9IjQ5LjM2Mjk5OSIgY3k9IjQzLjc5NjM1NiIgcj0iNDMuNDY4OTEiLz4mI3hhOyAgICA8ZyBpZD0iZzk1NyIgdHJhbnNmb3JtPSJ0cmFuc2xhdGUoMTcuNDQyNTk0LC0zMi42ODU2NjUpIj4mI3hhOyAgICAgIDxnIHN0eWxlPSJkaXNwbGF5OmlubGluZSIgaWQ9ImxheWVyMS01IiBpbmtzY2FwZTpsYWJlbD0iTGF5ZXIgMSIvPiYjeGE7ICAgICAgPGcgaW5rc2NhcGU6bGFiZWw9IkxheWVyIDIiIGlkPSJsYXllcjItNCIvPiYjeGE7ICAgIDwvZz4mI3hhOyAgICA8cGF0aCBzdHlsZT0iZGlzcGxheTppbmxpbmU7ZmlsbDojZmZmZmZmO3N0cm9rZS13aWR0aDowLjE1OTAwNCIgaW5rc2NhcGU6Y29ubmVjdG9yLWN1cnZhdHVyZT0iMCIgZD0ibSA2Mi44MTkxODQsNDguMDkzNzEgYyAtMi41NzM2NDksMCAtNC44ODA5NTksMS4xNDAyMTkgLTYuNDYwOTksMi45MzUzOCBsIC00LjA0ODczLC0yLjg2NjIyMSBjIDAuNDI5NzksLTEuMTgzMzA5IDAuNjc2NTcsLTIuNDUzOTEgMC42NzY1NywtMy43ODM4MyAwLC0xLjMwNjg1MSAtMC4yMzgxOSwtMi41NTYxNSAtMC42NTM4MywtMy43MjE5NyBsIDQuMDM5NjcsLTIuODM1ODQgYyAxLjU3OTg2MSwxLjc4NjA4OSAzLjg4MTEzLDIuOTIwMTA5IDYuNDQ3MzEsMi45MjAxMDkgNC43NTAyNSwwIDguNjE1NDksLTMuODY0NTk5IDguNjE1NDksLTguNjE1NDg5IDAsLTQuNzUwOSAtMy44NjUyNCwtOC42MTU1IC04LjYxNTQ5LC04LjYxNTUgLTQuNzUwMjYsMCAtOC42MTU1LDMuODY0NiAtOC42MTU1LDguNjE1NSAwLDAuODUwMzUgMC4xMjg0OCwxLjY3MDM0IDAuMzU5MDMsMi40NDY5MiBsIC00LjA0MjM3LDIuODM3MjcgYyAtMS42ODg2MiwtMi4wOTQ4OCAtNC4xMTk5NiwtMy41NTc1NiAtNi44OTAxMywtNC4wMDQwNSB2IC00Ljg3MTg5IGMgMy45MDI2LC0wLjgxOTY3IDYuODQzMDcsLTQuMjg3MDggNi44NDMwNywtOC40MzAyNiAwLC00Ljc1MDg5IC0zLjg2NTI0LC04LjYxNTQ5IC04LjYxNTUsLTguNjE1NDkgLTQuNzUwMjUsMCAtOC42MTU0OSwzLjg2NDYgLTguNjE1NDksOC42MTU0OSAwLDQuMDg3NjkgMi44NjQzLDcuNTEyMzIgNi42ODg4NCw4LjM5MDUgdiA0LjkzNTE4IGMgLTUuMjE5NDgsMC45MTYxOSAtOS4yMDE1OSw1LjQ3MTM1MSAtOS4yMDE1OSwxMC45NDk1MiAwLDUuNTA0OSA0LjAyMTUzOSwxMC4wNzY3NTIgOS4yNzg3MDEsMTAuOTYxNzcgdiA1LjIxMTIwOSBjIC0zLjg2MzY0MSwwLjg0OTI0MSAtNi43NjU5NTEsNC4yOTQ4NyAtNi43NjU5NTEsOC40MTAzODIgMCw0Ljc1MDg5IDMuODY1MjQsOC42MTU0OSA4LjYxNTQ5LDguNjE1NDkgNC43NTAyNiwwIDguNjE1NSwtMy44NjQ2IDguNjE1NSwtOC42MTU0OSAwLC00LjExNTUxMiAtMi45MDIzMSwtNy41NjExNDEgLTYuNzY1OTYsLTguNDEwMzgyIFYgNTUuMzQwNjUgYSAxMS4xMjQ3NDMsMTEuMTI0NzQzIDAgMCAwIDYuNzczNTksLTMuOTM5NDkgbCA0LjA3NTc2LDIuODg0ODExIGMgLTAuMjI2MjYsMC43Njk1NzcgLTAuMzUyOTksMS41ODE0NTkgLTAuMzUyOTksMi40MjMyMjggMCw0Ljc1MDg5IDMuODY1MjQsOC42MTU0OSA4LjYxNTUsOC42MTU0OSA0Ljc1MDI1LDAgOC42MTU0OSwtMy44NjQ2IDguNjE1NDksLTguNjE1NDkgMCwtNC43NTA4OSAtMy44NjUyNCwtOC42MTU0ODkgLTguNjE1NDksLTguNjE1NDg5IHogbSAwLC0yMC4xNDUwNzEgYyAyLjMwMzQ4OSwwIDQuMTc3MDQxLDEuODc0MzUgNC4xNzcwNDEsNC4xNzcyMSAwLDIuMzAyODYgLTEuODczNTUyLDQuMTc3MDQgLTQuMTc3MDQxLDQuMTc3MDQgLTIuMzAzNDk5LDAgLTQuMTc3MDUxLC0xLjg3NDE4IC00LjE3NzA1MSwtNC4xNzcwNCAwLC0yLjMwMjg2IDEuODczNTUyLC00LjE3NzIxIDQuMTc3MDUxLC00LjE3NzIxIHogbSAtMjUuMTM4NTk5LC03Ljg0NDggYyAwLC0yLjMwMjg2IDEuODczNzA5LC00LjE3NzA0IDQuMTc3MTk5LC00LjE3NzA0IDIuMzAzNSwwIDQuMTc3MDUsMS44NzQxOCA0LjE3NzA1LDQuMTc3MDQgMCwyLjMwMjg2IC0xLjg3MzU1LDQuMTc3MDUgLTQuMTc3MDUsNC4xNzcwNSAtMi4zMDM0OSwwIC00LjE3NzE5OSwtMS44NzQxOSAtNC4xNzcxOTksLTQuMTc3MDUgeiBNIDQ2LjAzNDgzNCw2OC45NjI0IGMgMCwyLjMwMjg1OSAtMS44NzM1NSw0LjE3NzA0MSAtNC4xNzcwNSw0LjE3NzA0MSAtMi4zMDM0OSwwIC00LjE3NzE5OSwtMS44NzQxODIgLTQuMTc3MTk5LC00LjE3NzA0MSAwLC0yLjMwMjg1OSAxLjg3MzcwOSwtNC4xNzcwNTEgNC4xNzcxOTksLTQuMTc3MDUxIDIuMzAzNSwwIDQuMTc3MDUsMS44NzQxOTIgNC4xNzcwNSw0LjE3NzA1MSB6IG0gLTQuMTc3MzYsLTE4Ljc1Nzc1MiBjIC0zLjIxMjY5LDAgLTUuODI2MjQsLTIuNjEzMDc4IC01LjgyNjI0LC01LjgyNTYwOSAwLC0zLjIxMjY3OSAyLjYxMzU1LC01LjgyNjIzOSA1LjgyNjI0LC01LjgyNjIzOSAzLjIxMjUyLDAgNS44MjYwOCwyLjYxMzU2IDUuODI2MDgsNS44MjYyMzkgMCwzLjIxMjUzMSAtMi42MTM1Niw1LjgyNTYwOSAtNS44MjYwOCw1LjgyNTYwOSB6IG0gMjAuOTYxNzEsMTAuNjgxNzUxIGMgLTIuMzAzNDk5LDAgLTQuMTc3MDUxLC0xLjg3NDM0IC00LjE3NzA1MSwtNC4xNzcyIDAsLTIuMzAyODU5IDEuODczNTUyLC00LjE3NzA1MSA0LjE3NzA1MSwtNC4xNzcwNTEgMi4zMDM0ODksMCA0LjE3NzA0MSwxLjg3NDE5MiA0LjE3NzA0MSw0LjE3NzA1MSAwLDIuMzAyODYgLTEuODczNTUyLDQuMTc3MiAtNC4xNzcwNDEsNC4xNzcyIHoiIGlkPSJwYXRoMTAxNyIvPiYjeGE7ICA8L2c+JiN4YTsgIDxnIGlua3NjYXBlOmdyb3VwbW9kZT0ibGF5ZXIiIGlkPSJsYXllcjIiIGlua3NjYXBlOmxhYmVsPSJMYXllciAyIi8+JiN4YTsgIDxzdHlsZSBpZD0ic3R5bGU4OTgiPnN2ZyB7ZW5hYmxlLWJhY2tncm91bmQ6bmV3IDAgMCAzNjAgMzYwfTwvc3R5bGU+JiN4YTsgIDxzdHlsZSBpZD0ic3R5bGU5MDAiPi5zdDB7ZmlsbDpub25lfTwvc3R5bGU+JiN4YTs8L3N2Zz4=;" vertex="1" parent="KWQ4xnJLnPjV0gg7NQpi-42">
          <mxGeometry x="10" y="10.5" width="37.17" height="33" as="geometry" />
        </mxCell>
        <mxCell id="KWQ4xnJLnPjV0gg7NQpi-40" value="Kafka" style="text;html=1;resizable=0;autosize=1;align=left;verticalAlign=middle;points=[];fillColor=none;strokeColor=none;rounded=0;fontFamily=Roboto;fontSource=https%3A%2F%2Ffonts.googleapis.com%2Fcss%3Ffamily%3DRoboto;" vertex="1" parent="KWQ4xnJLnPjV0gg7NQpi-42">
          <mxGeometry x="53.59000000000003" y="15" width="50" height="20" as="geometry" />
        </mxCell>
        <mxCell id="KWQ4xnJLnPjV0gg7NQpi-43" value="" style="group" vertex="1" connectable="0" parent="wycD591nMWxJo0nDUt0m-1">
          <mxGeometry x="145" y="940" width="280" height="68" as="geometry" />
        </mxCell>
        <mxCell id="KWQ4xnJLnPjV0gg7NQpi-44" value="" style="shape=mxgraph.gcp2.doubleRect;strokeColor=#dddddd;shadow=1;strokeWidth=1;fontFamily=Roboto;align=left;" vertex="1" parent="KWQ4xnJLnPjV0gg7NQpi-43">
          <mxGeometry width="240" height="68" as="geometry" />
        </mxCell>
        <mxCell id="KWQ4xnJLnPjV0gg7NQpi-45" value="" style="dashed=0;connectable=0;html=1;fillColor=#757575;strokeColor=none;shape=mxgraph.gcp2.frontend_platform_services;part=1;labelPosition=right;verticalLabelPosition=middle;align=left;verticalAlign=middle;spacingLeft=5;fontSize=12;" vertex="1" parent="KWQ4xnJLnPjV0gg7NQpi-43">
          <mxGeometry x="10" y="10" width="32" height="32" as="geometry" />
        </mxCell>
        <mxCell id="KWQ4xnJLnPjV0gg7NQpi-46" value="IDM Services" style="text;html=1;resizable=0;autosize=1;align=left;verticalAlign=middle;points=[];fillColor=none;strokeColor=none;rounded=0;fontFamily=Roboto;" vertex="1" parent="KWQ4xnJLnPjV0gg7NQpi-43">
          <mxGeometry x="50" y="10" width="90" height="20" as="geometry" />
        </mxCell>
        <mxCell id="KWQ4xnJLnPjV0gg7NQpi-47" value="Java Microservice" style="text;html=1;resizable=0;autosize=1;align=left;verticalAlign=middle;points=[];fillColor=none;strokeColor=none;rounded=0;fontFamily=Roboto;fontColor=#666666;" vertex="1" parent="KWQ4xnJLnPjV0gg7NQpi-43">
          <mxGeometry x="50" y="24" width="110" height="20" as="geometry" />
        </mxCell>
        <mxCell id="KWQ4xnJLnPjV0gg7NQpi-51" value="" style="group" vertex="1" connectable="0" parent="wycD591nMWxJo0nDUt0m-1">
          <mxGeometry x="130" y="590" width="240" height="68" as="geometry" />
        </mxCell>
        <mxCell id="KWQ4xnJLnPjV0gg7NQpi-52" value="" style="shape=mxgraph.gcp2.doubleRect;strokeColor=#dddddd;shadow=1;strokeWidth=1;fontFamily=Roboto;align=left;" vertex="1" parent="KWQ4xnJLnPjV0gg7NQpi-51">
          <mxGeometry width="240" height="68" as="geometry" />
        </mxCell>
        <mxCell id="KWQ4xnJLnPjV0gg7NQpi-53" value="" style="dashed=0;connectable=0;html=1;fillColor=#757575;strokeColor=none;shape=mxgraph.gcp2.frontend_platform_services;part=1;labelPosition=right;verticalLabelPosition=middle;align=left;verticalAlign=middle;spacingLeft=5;fontSize=12;" vertex="1" parent="KWQ4xnJLnPjV0gg7NQpi-51">
          <mxGeometry x="10" y="10" width="32" height="32" as="geometry" />
        </mxCell>
        <mxCell id="KWQ4xnJLnPjV0gg7NQpi-54" value="Cloud UI / IAP UI" style="text;html=1;resizable=0;autosize=1;align=left;verticalAlign=middle;points=[];fillColor=none;strokeColor=none;rounded=0;fontFamily=Roboto;" vertex="1" parent="KWQ4xnJLnPjV0gg7NQpi-51">
          <mxGeometry x="50" y="10" width="100" height="20" as="geometry" />
        </mxCell>
        <mxCell id="KWQ4xnJLnPjV0gg7NQpi-55" value="Java Microservices" style="text;html=1;resizable=0;autosize=1;align=left;verticalAlign=middle;points=[];fillColor=none;strokeColor=none;rounded=0;fontFamily=Roboto;fontColor=#666666;" vertex="1" parent="KWQ4xnJLnPjV0gg7NQpi-51">
          <mxGeometry x="50" y="24" width="120" height="20" as="geometry" />
        </mxCell>
        <mxCell id="KWQ4xnJLnPjV0gg7NQpi-56" value="3001" style="edgeStyle=entityRelationEdgeStyle;fontSize=12;html=1;endArrow=blockThin;endFill=1;rounded=0;strokeWidth=2;endSize=4;startSize=4;dashed=0;strokeColor=#4284F3;entryX=0;entryY=0.5;entryDx=0;entryDy=0;startArrow=blockThin;startFill=1;exitX=1;exitY=0.75;exitDx=0;exitDy=0;" edge="1" parent="wycD591nMWxJo0nDUt0m-1" source="KWQ4xnJLnPjV0gg7NQpi-27" target="KWQ4xnJLnPjV0gg7NQpi-7">
          <mxGeometry width="100" relative="1" as="geometry">
            <mxPoint x="380" y="496" as="sourcePoint" />
            <mxPoint x="620" y="492.98" as="targetPoint" />
          </mxGeometry>
        </mxCell>
        <mxCell id="KWQ4xnJLnPjV0gg7NQpi-58" value="" style="group" vertex="1" connectable="0" parent="wycD591nMWxJo0nDUt0m-1">
          <mxGeometry x="130" y="668" width="240" height="68" as="geometry" />
        </mxCell>
        <mxCell id="KWQ4xnJLnPjV0gg7NQpi-59" value="" style="shape=mxgraph.gcp2.doubleRect;strokeColor=#dddddd;shadow=1;strokeWidth=1;fontFamily=Roboto;align=left;" vertex="1" parent="KWQ4xnJLnPjV0gg7NQpi-58">
          <mxGeometry width="240" height="68" as="geometry" />
        </mxCell>
        <mxCell id="KWQ4xnJLnPjV0gg7NQpi-60" value="" style="dashed=0;connectable=0;html=1;fillColor=#757575;strokeColor=none;shape=mxgraph.gcp2.frontend_platform_services;part=1;labelPosition=right;verticalLabelPosition=middle;align=left;verticalAlign=middle;spacingLeft=5;fontSize=12;" vertex="1" parent="KWQ4xnJLnPjV0gg7NQpi-58">
          <mxGeometry x="10" y="10" width="32" height="32" as="geometry" />
        </mxCell>
        <mxCell id="KWQ4xnJLnPjV0gg7NQpi-61" value="Subscription" style="text;html=1;resizable=0;autosize=1;align=left;verticalAlign=middle;points=[];fillColor=none;strokeColor=none;rounded=0;fontFamily=Roboto;" vertex="1" parent="KWQ4xnJLnPjV0gg7NQpi-58">
          <mxGeometry x="50" y="10" width="80" height="20" as="geometry" />
        </mxCell>
        <mxCell id="KWQ4xnJLnPjV0gg7NQpi-62" value="Java Microservices" style="text;html=1;resizable=0;autosize=1;align=left;verticalAlign=middle;points=[];fillColor=none;strokeColor=none;rounded=0;fontFamily=Roboto;fontColor=#666666;" vertex="1" parent="KWQ4xnJLnPjV0gg7NQpi-58">
          <mxGeometry x="50" y="24" width="120" height="20" as="geometry" />
        </mxCell>
        <mxCell id="KWQ4xnJLnPjV0gg7NQpi-63" value="" style="group" vertex="1" connectable="0" parent="wycD591nMWxJo0nDUt0m-1">
          <mxGeometry x="130" y="750" width="240" height="68" as="geometry" />
        </mxCell>
        <mxCell id="KWQ4xnJLnPjV0gg7NQpi-64" value="" style="shape=mxgraph.gcp2.doubleRect;strokeColor=#dddddd;shadow=1;strokeWidth=1;fontFamily=Roboto;align=left;" vertex="1" parent="KWQ4xnJLnPjV0gg7NQpi-63">
          <mxGeometry width="240" height="68" as="geometry" />
        </mxCell>
        <mxCell id="KWQ4xnJLnPjV0gg7NQpi-65" value="" style="dashed=0;connectable=0;html=1;fillColor=#757575;strokeColor=none;shape=mxgraph.gcp2.frontend_platform_services;part=1;labelPosition=right;verticalLabelPosition=middle;align=left;verticalAlign=middle;spacingLeft=5;fontSize=12;" vertex="1" parent="KWQ4xnJLnPjV0gg7NQpi-63">
          <mxGeometry x="10" y="10" width="32" height="32" as="geometry" />
        </mxCell>
        <mxCell id="KWQ4xnJLnPjV0gg7NQpi-66" value="Cloud UI / IAP UI" style="text;html=1;resizable=0;autosize=1;align=left;verticalAlign=middle;points=[];fillColor=none;strokeColor=none;rounded=0;fontFamily=Roboto;" vertex="1" parent="KWQ4xnJLnPjV0gg7NQpi-63">
          <mxGeometry x="50" y="10" width="100" height="20" as="geometry" />
        </mxCell>
        <mxCell id="KWQ4xnJLnPjV0gg7NQpi-67" value="Java Microservices" style="text;html=1;resizable=0;autosize=1;align=left;verticalAlign=middle;points=[];fillColor=none;strokeColor=none;rounded=0;fontFamily=Roboto;fontColor=#666666;" vertex="1" parent="KWQ4xnJLnPjV0gg7NQpi-63">
          <mxGeometry x="50" y="24" width="120" height="20" as="geometry" />
        </mxCell>
        <mxCell id="KWQ4xnJLnPjV0gg7NQpi-68" value="3001" style="edgeStyle=orthogonalEdgeStyle;fontSize=12;html=1;endArrow=blockThin;endFill=1;rounded=0;strokeWidth=2;endSize=4;startSize=4;dashed=0;strokeColor=#4284F3;startArrow=blockThin;startFill=1;exitX=0.5;exitY=1;exitDx=0;exitDy=0;exitPerimeter=0;entryX=0.5;entryY=0;entryDx=0;entryDy=0;entryPerimeter=0;curved=1;" edge="1" parent="wycD591nMWxJo0nDUt0m-1" source="KWQ4xnJLnPjV0gg7NQpi-50" target="KWQ4xnJLnPjV0gg7NQpi-48">
          <mxGeometry width="100" relative="1" as="geometry">
            <mxPoint x="380" y="513" as="sourcePoint" />
            <mxPoint x="250" y="890" as="targetPoint" />
          </mxGeometry>
        </mxCell>
      </root>
    </mxGraphModel>
  </diagram>
</mxfile>
